<mxfile host="65bd71144e">
    <diagram name="Page-1" id="KscOucJOolFp8NFxgL6y">
        <mxGraphModel dx="1513" dy="1773" grid="1" gridSize="10" guides="1" tooltips="1" connect="1" arrows="1" fold="1" page="1" pageScale="1" pageWidth="850" pageHeight="1100" math="0" shadow="0">
            <root>
                <mxCell id="0"/>
                <mxCell id="1" parent="0"/>
                <mxCell id="PPONDHGBJ6GsKwcfjAT5-1" value="arkts-1466" style="rounded=0;whiteSpace=wrap;html=1;" parent="1" vertex="1">
                    <mxGeometry x="200" y="280" width="120" height="40" as="geometry"/>
                </mxCell>
                <mxCell id="PPONDHGBJ6GsKwcfjAT5-2" value="nanotron" style="rounded=0;whiteSpace=wrap;html=1;" parent="1" vertex="1">
                    <mxGeometry x="640" y="280" width="120" height="40" as="geometry"/>
                </mxCell>
                <mxCell id="20" style="edgeStyle=none;html=1;entryX=0;entryY=0.5;entryDx=0;entryDy=0;" edge="1" parent="1" source="PPONDHGBJ6GsKwcfjAT5-3" target="PPONDHGBJ6GsKwcfjAT5-4">
                    <mxGeometry relative="1" as="geometry"/>
                </mxCell>
                <mxCell id="PPONDHGBJ6GsKwcfjAT5-3" value="Dataset" style="rounded=0;whiteSpace=wrap;html=1;" parent="1" vertex="1">
                    <mxGeometry x="200" y="220" width="120" height="40" as="geometry"/>
                </mxCell>
                <mxCell id="21" style="edgeStyle=none;html=1;entryX=0;entryY=0.5;entryDx=0;entryDy=0;" edge="1" parent="1" source="PPONDHGBJ6GsKwcfjAT5-4" target="PPONDHGBJ6GsKwcfjAT5-5">
                    <mxGeometry relative="1" as="geometry"/>
                </mxCell>
                <mxCell id="PPONDHGBJ6GsKwcfjAT5-4" value="Preprocessing" style="rounded=0;whiteSpace=wrap;html=1;" parent="1" vertex="1">
                    <mxGeometry x="360" y="220" width="120" height="40" as="geometry"/>
                </mxCell>
                <mxCell id="22" style="edgeStyle=none;html=1;entryX=0;entryY=0.5;entryDx=0;entryDy=0;" edge="1" parent="1" source="PPONDHGBJ6GsKwcfjAT5-5" target="PPONDHGBJ6GsKwcfjAT5-6">
                    <mxGeometry relative="1" as="geometry"/>
                </mxCell>
                <mxCell id="PPONDHGBJ6GsKwcfjAT5-5" value="Pretraining" style="rounded=0;whiteSpace=wrap;html=1;" parent="1" vertex="1">
                    <mxGeometry x="640" y="220" width="120" height="40" as="geometry"/>
                </mxCell>
                <mxCell id="23" style="edgeStyle=none;html=1;entryX=0;entryY=0.5;entryDx=0;entryDy=0;" edge="1" parent="1" source="PPONDHGBJ6GsKwcfjAT5-6" target="PPONDHGBJ6GsKwcfjAT5-7">
                    <mxGeometry relative="1" as="geometry"/>
                </mxCell>
                <mxCell id="PPONDHGBJ6GsKwcfjAT5-6" value="Posttraining" style="rounded=0;whiteSpace=wrap;html=1;" parent="1" vertex="1">
                    <mxGeometry x="920" y="220" width="120" height="40" as="geometry"/>
                </mxCell>
                <mxCell id="PPONDHGBJ6GsKwcfjAT5-7" value="Optimization" style="rounded=0;whiteSpace=wrap;html=1;" parent="1" vertex="1">
                    <mxGeometry x="1080" y="220" width="120" height="40" as="geometry"/>
                </mxCell>
                <mxCell id="PPONDHGBJ6GsKwcfjAT5-8" value="arkts-multipl-t-syn" style="rounded=0;whiteSpace=wrap;html=1;" parent="1" vertex="1">
                    <mxGeometry x="200" y="320" width="120" height="40" as="geometry"/>
                </mxCell>
                <mxCell id="PPONDHGBJ6GsKwcfjAT5-9" value="TRL + Unsloth" style="rounded=0;whiteSpace=wrap;html=1;" parent="1" vertex="1">
                    <mxGeometry x="640" y="360" width="120" height="40" as="geometry"/>
                </mxCell>
                <mxCell id="PPONDHGBJ6GsKwcfjAT5-12" value="Direct Preference Optimization (DPO)" style="rounded=0;whiteSpace=wrap;html=1;" parent="1" vertex="1">
                    <mxGeometry x="760" y="460" width="120" height="40" as="geometry"/>
                </mxCell>
                <UserObject label="https://sebastianraschka.com/blog/2024/new-llm-pre-training-and-post-training.html&#10;https://colab.research.google.com/drive/1Kose-ucXO1IBaZq5BvbwWieuubP7hxvQ?usp=sharing#scrollTo=yqxqAZ7KJ4oL&#10;https://github.com/modelscope/data-juicer/tree/main/tools/preprocess&#10;&#10;Eval:&#10;https://github.com/huggingface/lighteval (not sure how it can eval code competion)&#10;https://github.com/MCEVAL/McEval&#10;&#10;Dataset:&#10;https://huggingface.co/datasets/Multilingual-Multimodal-NLP/McEval/viewer/completion/test?q=Typescript&#10;&#10;PPO/ DPO&#10;https://iclr-blog-track.github.io/2022/03/25/ppo-implementation-details/&#10;https://plainenglish.io/community/direct-preference-optimization-dpo-a-simplified-approach-to-fine-tuning-large-language-models&#10;&#10;&#10;FT vs RAG:&#10;https://arxiv.org/pdf/2312.05934#cite.wang2020k&#10;&#10;Survey&#10;https://arxiv.org/pdf/2406.00515Â &#10;&#10;" link="https://sebastianraschka.com/blog/2024/new-llm-pre-training-and-post-training.html" id="PPONDHGBJ6GsKwcfjAT5-13">
                    <mxCell style="text;whiteSpace=wrap;fontSize=8;" parent="1" vertex="1">
                        <mxGeometry x="200" width="470" height="190" as="geometry"/>
                    </mxCell>
                </UserObject>
                <mxCell id="2" value="LotusTrace" style="rounded=0;whiteSpace=wrap;html=1;" parent="1" vertex="1">
                    <mxGeometry x="200" y="390" width="280" height="40" as="geometry"/>
                </mxCell>
                <mxCell id="3" value="Data Juicer" style="rounded=0;whiteSpace=wrap;html=1;" parent="1" vertex="1">
                    <mxGeometry x="360" y="280" width="120" height="40" as="geometry"/>
                </mxCell>
                <mxCell id="4" value="llamafactory" style="rounded=0;whiteSpace=wrap;html=1;" parent="1" vertex="1">
                    <mxGeometry x="640" y="320" width="120" height="40" as="geometry"/>
                </mxCell>
                <mxCell id="5" value="Proximal Policy Optimization (PPO)" style="rounded=0;whiteSpace=wrap;html=1;" parent="1" vertex="1">
                    <mxGeometry x="760" y="500" width="120" height="40" as="geometry"/>
                </mxCell>
                <mxCell id="9" value="Continual Pretraining (CPT) Pipeline" style="text;strokeColor=none;fillColor=none;html=1;fontSize=24;fontStyle=1;verticalAlign=middle;align=center;" parent="1" vertex="1">
                    <mxGeometry x="200" y="-40" width="420" height="40" as="geometry"/>
                </mxCell>
                <mxCell id="10" value="Direct Preference Optimization (DPO)" style="text;strokeColor=none;fillColor=none;html=1;fontSize=24;fontStyle=1;verticalAlign=middle;align=center;" vertex="1" parent="1">
                    <mxGeometry x="200" y="680" width="450" height="40" as="geometry"/>
                </mxCell>
                <UserObject label="https://silatus.com/blog/direct-preference-optimization-dpo-is-all-you-need/" link="https://sebastianraschka.com/blog/2024/new-llm-pre-training-and-post-training.html" id="11">
                    <mxCell style="text;whiteSpace=wrap;fontSize=8;" vertex="1" parent="1">
                        <mxGeometry x="200" y="720" width="470" height="40" as="geometry"/>
                    </mxCell>
                </UserObject>
                <mxCell id="12" value="Prompt" style="rounded=0;whiteSpace=wrap;html=1;" vertex="1" parent="1">
                    <mxGeometry x="200" y="760" width="120" height="20" as="geometry"/>
                </mxCell>
                <mxCell id="13" value="Rejected" style="rounded=0;whiteSpace=wrap;html=1;" vertex="1" parent="1">
                    <mxGeometry x="440" y="760" width="120" height="20" as="geometry"/>
                </mxCell>
                <mxCell id="14" value="Chosen" style="rounded=0;whiteSpace=wrap;html=1;" vertex="1" parent="1">
                    <mxGeometry x="320" y="760" width="120" height="20" as="geometry"/>
                </mxCell>
                <mxCell id="15" value="Unsupervised" style="rounded=0;whiteSpace=wrap;html=1;" vertex="1" parent="1">
                    <mxGeometry x="520" y="430" width="120" height="30" as="geometry"/>
                </mxCell>
                <mxCell id="16" value="Supervised (SFT)" style="rounded=0;whiteSpace=wrap;html=1;" vertex="1" parent="1">
                    <mxGeometry x="640" y="430" width="120" height="30" as="geometry"/>
                </mxCell>
                <mxCell id="17" value="RL" style="rounded=0;whiteSpace=wrap;html=1;" vertex="1" parent="1">
                    <mxGeometry x="760" y="430" width="120" height="30" as="geometry"/>
                </mxCell>
                <mxCell id="18" value="Instruction Tuning" style="rounded=0;whiteSpace=wrap;html=1;" vertex="1" parent="1">
                    <mxGeometry x="640" y="460" width="120" height="40" as="geometry"/>
                </mxCell>
                <mxCell id="19" value="CPT" style="rounded=0;whiteSpace=wrap;html=1;" vertex="1" parent="1">
                    <mxGeometry x="520" y="460" width="120" height="40" as="geometry"/>
                </mxCell>
                <mxCell id="24" value="Quantizer" style="rounded=0;whiteSpace=wrap;html=1;" vertex="1" parent="1">
                    <mxGeometry x="1080" y="280" width="120" height="40" as="geometry"/>
                </mxCell>
                <UserObject label="https://arxiv.org/pdf/2406.00515" link="https://arxiv.org/pdf/2406.00515" id="25">
                    <mxCell style="text;whiteSpace=wrap;html=1;" vertex="1" parent="1">
                        <mxGeometry x="510" y="540" width="200" height="40" as="geometry"/>
                    </mxCell>
                </UserObject>
                <mxCell id="28" value="1" style="ellipse;whiteSpace=wrap;html=1;aspect=fixed;fillColor=#e51400;strokeColor=#B20000;fontColor=#ffffff;fontSize=18;" vertex="1" parent="1">
                    <mxGeometry x="325" y="260" width="30" height="30" as="geometry"/>
                </mxCell>
                <mxCell id="29" value="2" style="ellipse;whiteSpace=wrap;html=1;aspect=fixed;fillColor=#e51400;strokeColor=#B20000;fontColor=#ffffff;fontSize=18;" vertex="1" parent="1">
                    <mxGeometry x="565" y="505" width="30" height="30" as="geometry"/>
                </mxCell>
                <mxCell id="31" value="3" style="ellipse;whiteSpace=wrap;html=1;aspect=fixed;fillColor=#e51400;strokeColor=#B20000;fontColor=#ffffff;fontSize=18;" vertex="1" parent="1">
                    <mxGeometry x="685" y="505" width="30" height="30" as="geometry"/>
                </mxCell>
                <mxCell id="32" value="4" style="ellipse;whiteSpace=wrap;html=1;aspect=fixed;fillColor=#e51400;strokeColor=#B20000;fontColor=#ffffff;fontSize=18;" vertex="1" parent="1">
                    <mxGeometry x="805" y="545" width="30" height="30" as="geometry"/>
                </mxCell>
                <mxCell id="34" value="" style="shape=image;verticalLabelPosition=bottom;labelBackgroundColor=default;verticalAlign=top;aspect=fixed;imageAspect=0;image=data:image/png,iVBORw0KGgoAAAANSUhEUgAABcIAAAKrCAYAAADS0v7IAAAAAXNSR0IArs4c6QAAAARnQU1BAACxjwv8YQUAAAAJcEhZcwAADsMAAA7DAcdvqGQAAP+lSURBVHhe7N0HYBTFGgfwL41UQgKEDgooWCiCPBQURRRBQBGkqAiiIKLYwIKNKgpW7AWlCKKCig0BG6KgWFA6ggjSW4CQ3pO3/7mdsDkuySW5XK78f759O7u3d7e33M1svp39JiDfIEREREREREREREREPirQnBMRERERERERERER+SQGwomIiIiIiIiIiIjIpzEQTkREREREREREREQ+jYFwIiIiIiIiIiIiIvJpDIQTERERERERERERkU9jIJyIiIiIiIiIiIiIfBoD4URERERERERERETk0xgIJyIiIiIiIiIiIiKfxkA4EREREREREREREfk0BsKJiIiIiIiIiIiIyKcxEE5EREREREREREREPo2BcCIiIiIiIiIiIiLyaQyEExEREREREREREZFPYyCciIiIiIiIiIiIiHwaA+FERERERERERERE5NMYCCciIiIiIiIiIiIin8ZAOBERERERERERERH5NAbCiYiIiIiIiIiIiMinMRBORERERERERERERD6NgXAiIiIiIiIiIiIi8mkMhBMRERERERERERGRT2MgnIiIiIiIiIiIiIh8GgPhREREREREREREROTTGAgnIiIiIiIiIiIiIp/GQDgRERERERERERER+TQGwomIiIiIiIiIiIjIpzEQTkREREREREREREQ+jYFwIiIiIiIiIiIiIvJpDIQTERERERERERERkU9jIJyIiIiIiIiIiIiIfBoD4URERERERERERETk0xgIJyIiIiIiIiIiIiKfxkA4EREREREREREREfk0BsKJiIiIiIiIiIiIyKcxEE5EREREREREREREPo2BcCIiIiIiIiIiIiLyaQyEExEREREREREREZFPYyCciIiIiIiIiIiIiHwaA+FERERERERERERE5NMYCCciIiIiIiIiIiIin8ZAOBERERERERERERH5NAbCiYiIiIiIiIiIiMinMRBORERERERERERERD6NgXAiIiIiIiIiIiIi8mkMhBMRERERERERERGRT2MgnIiIiIiIiIiIiIh8GgPhREREREREREREROTTGAgnIiIiIiIiIiIiIp/GQDgRERERERERERER+TQGwomIiIiIiIiIiIjIpzEQTkREREREREREREQ+LSDfYJaJiIiIiIiIyB/k5Up+bo4xz5H8nGwRVc61LaNMvisgQAKCQkSCgkUCg4wp2Fg2ysa6gGBjPRGRj2IgnIiIiIiIiMjX5edJfmaa5Gel2+bGRGQvILiKBIRGSECVcDUXY5mIyFcwEE5ERERERETko/KzMyU/PcmYklWZyGkBARIYFiViTIER1dQyEZE3YyCciIiIiIiIyMfkZ6ZKXmqiCoIL/+ynclI9xCOibQFxpFMhIvJCDIQTERERERER+Yj8rAzJS0uU/LQkle+byJUCwiIlINwMiLOHOBF5GQbCiYiIiIiIiHxAXlqS5CUetg18SVSBkD88MLYeB9ckIq/CQDgRERERERGRN8vNlrzk45KXctxcQeQGIWESWLW6rXc4EZEXCDTnRERERERERORl8jPTJPfEYY8Mgoc0PKfI6eEnnzO3Kju8RqPzLy14zRvvHCPHTySaj1KFy86QvMQjvABDRF6DPcLLKS8vT004jHquJ6LiBAYGSoCZU02Xg4KCCtYREZUH2ycqK7ZPRETeIz89WfKSj0l+Vrq5xvMs/HKpDLrzfnNJpH2bVvLl3Lekekz5ehEj6P3Rl8uk+RlNZPqkR6THoNvU+ilj75Oxd41QZXKfwKo1JCAqVgKCfDtVCs+xqax4ju0ZGAgvJRyunJwcyc3NVRMqPiJXQkVonVgpEpEz2D5RRWP7RETkWfJzsiT3yC6RvFxzjedCb23t/pG3yrTHHjCXymbN+k3SodcAVUZgfd4rz8r53fqo5W8XzJF2rVuoMrlXYES0BFavby75Bp5jU0XjObZ7MTWKk1D5ZWZmSmpqqmRkZEh2djYrQKoQaFyzsrIkPT1dTfiuEREVhe0TuQvbJyIiz4F0KHnHD3hFELwifLx4mVmyaXJaQ0nYukZNDIJXHjVYa1K8ueTdeI5N7sJzbPdiILwE+ELqyg9fTFSGRO6C7x8a3bS0NFUZ8vtHRBrbJ6pMbJ+IiCoRBsZMOe7R6VCchRzfOr83phaX9SqU9/uia64/Jec31j3/5ixzSeT3tRvUtt/+9LO5xpaOBa+F9Xgtaz5y+/fE68GMeQsk9qx26nkaep4j5Qq2w2OOcpBbXwsTXt/6HLyuvZ279xZsgwn7+PSrM8xHbfA+eD+8BrbB9tgfT4dBW/NTT5hL3ofn2FSZeI5d8RgILwa+dLgaw8qPKpuuDPF95FVoImL7RJ6C7RMRkZsZ7b4KNKYnmyu8G1KkDB9kS3EC+w8ekn69ustzEx9Wywhy3/XoJFXWfv7iQ5VeRUNqlOy9W6TrJRepZQSekZM8KSlZDm9cLTf2vVoFznUw3P49AUH0mJhoSUlNk23/7lTrEHTuOnCoemz14oWycMZLKif51UNuV49reA+rPfsPyJL5b6vc5Xi9Ucb+I/Ct4XWRxgWvi+3mv/68HDwSL48//WJB0BxB8Ev6DFLv9/BdI9R7rP5zrdof+0C8x8nPs+Wtz0gxV3gPnmOTp+A5dsVhINwBVHj4wmFi5UeeRFeGaKCJyP+wfSJPxfaJiMg98jA4Zspxc8k3VKsaZZZEzml2hkptElst2lwjsnT5T2apZAg4j33yWVUedcsgNSDn5Z06qGUEw3UQ2fqee/cflKanNZIBV1+lguoIYMPQ+x5WgWwE2LFPOtCO4Dx6nGv2g37ecv11am59j48s2987bop6XbwPXvOKTh0L3hPBeHhs2nQVkI+KjFADf+I9cGzwPDzm6ZC/Pi/hkNek7uE5NnkqnmO7HgPhdnClhV8y8mSoCHGrFq5SE5H/YPtEno7tExFRxcrPyvCZ/MulgeCvsxBw1tu3bXWumlt9t/IXs3RScmqqyjEO6G2+6YfFqte27hne6pzmam71w8+/mSXnJCQmqTleF4F00IFyBLnxnujVjmA8fPjZYjVH8Nveyt/WmCXPlm+m8PF0PMcmT8dzbNdiINxCXwXEiMBEngzfVVaERP6D7RN5C7ZPREQVJz89SSSH9Wtxflz9h1mSghzcmGt/bdhslk5yFGz+3hIwR09ynctb27Blq1kqHevrFgXBch3M1/nPMekAug7Qe4O81ESPzmXPc2zyFjzHdh0Gwk36KiCutBB5C1SEvHJN5NvYPpE3YvtERORa+ZmpkufFAxC6S2LyydzpyCOOXtbWCfnBnaF7cIPOQW6d0HO8LKyvW5SExMI5wO3fG5PXyM2W/DTPzGnOc2zyRjzHLj8Gwg24soIvEq8CkjfCFUFWhES+ie0TeTO2T0RErpOfliTekm+ZnJOY7H2DSZaF6hXuYQNn8hybvBnPscsnwKgA/H4kAHyJcFWlKNl5Ium5gZKZG2AcMWMicqNAyZfQoDwJDxIJCnD8cw0KCpIqVapIcHCwuYaIfEFJ7VOG0S5l5gVKVh7bJnI/tEkRQflSJTBPAov4CrJ9IiIqv/zsTMk9/B9KthVeyJpWBD21rT2zH37yOZV+BND7Gr2tv/3p50IpTex7QTt6Dtzx8ER5Z/5CVbaut1fU8zUMhjnozvvNpVPf35718y2Z/7YaBPOia64vSGeiP7P95zq8cfUpg21iQM/aLW0DfIJ+PW8WEBohQXGnmUuVjzEg8mSMAVUsvw+E4wogbodxdBhy8wMkPjNYjmcZ3z6iSobKsFZYjlSv4rgnSEhIiISFhZlLROTtimufEPg+mBEiqTm8sYsqX4hxgl4vPEsigx2fUrJ9IiIqn7wThyQvJcFc8k7uCoQjv3aHXgNUGbat+rpgIEy8JiCoXFIgHGLPaleQq/u1pybIiMEDVRmB6rffWyBj7xqhlsHZQDg0Ov9SOXjENuip/bFAAB4DZuKz6/3tf3V3ef/1F1QZsO/W53iDgIBACYxrJAFVws01lYcxIPIWjAFVDL//CxqVoKMKMM+oAA9lhLACJI+RJ/o76fiKH77LmIjINxTVPqF3yr70KgyCk8fINs6ZDmSESkoR30m2T0RE5ZCfJ/mZnjvYoDMQ3LVa+dsaFUzWrClCdNk+l7Z1e7B/jn68XesWKnCsXTP0DvXYzt171UCZumd1Uc+3evqxB82SyNgnn1VBdmz3zGtvFwqC2z9X77v9e2gzpz9llkTemmcL+gN6szdpZAvaT37oXomKjFDlj75cJjPmLVDlp1+dISNusgXkvUm+B32PizrHZgyIPA1jQBXDr3uE4wuTnu64Mk7JCZA9aaHmEpHnwFXBM6tmObxFBrfFhIdX/lV2Iiqf4tqn+KwQic/gCTp5nojgPDk9wvFI9myfiIjKBrmVc4/uNZe8j7WntD30hgbdM7skuld4Ua9pTSGCXtPvL/pS9byuWytObux7dUEvamtvcCtH6U8QxJ/8wmuy7d+dKjB9VZdL5NWnJhRKZ1LcZ7Sy9v5G8Hv0hKnqdQH7jeA3AvkaAu/jn3mpUE92+228SUB4VQmq0cBcqhyMAZE3YgzItfw6EI4KsKirJ4cycDsMc+2QZzotAreg55lLheHWGNwiQ0Teq7j26b/UKqpXOJGnCQnMl6ZRWepk3RG2T0REpZeXGC95yUfNJSLvFRAULIFxp0lAcBVzjfsxBkTeijEg1/Hbv6Tz8vKKrAAhO49BBvJc2XlFD9jB0YOJvFtJ7ZMatIfIA6FtynV8fq6wfSIiKr38LFuOaiJvl5+bI/mZlfd9ZgyIvBljQK7jt7/0kr4oxfwdR+TR0MBjIiLvVHL7xEA4eSe2T0REpZSX6/X5wYkKyUw1C+7HGBD5Kp5jl47fBsJzcx2Pukrk7ZDtiN9vIu/F3y/5KrZPRESlk5+dgf+3LRD5gPxKDNbxHIR8Fc+xS8cvA+H4gvBLQr6M328i78T2iXwdv99ERM5DKgkin5JXOd9pnmOTr+P323l+GQjnLQPk63Dblx+Pg0vktdg+ka9j+0REVAp5DGyQb6msizs8xyZfx3Ns5/ltj/DyGnb1xXJhgyoOp15tTzO38g6vPvmI2u9F82aYa5yjj8H+3TvNNa5V3DHG5A762GBC2ZuwEiTyPhVxJd9RXept7VRxytqGlYYntEe//fhtwfthf7wZ2yciIuewRzj5HOS9r4Re4b7aW7akc9SKitU4gr8vKuN9i2I9d/alv32Kw3Ns5/htjvDymvnlKnlp/lfmksgnP2+VX/dlyblt2svRIwcr/MfvyqDswX271fzAnv/U3FmH9+9V8327dqi5q9kf44emvqqOsV6HY1yW41Ca59z12FT1b+qNWAkSETiqSxf/Zav3XQEnmZjcyVqPl7UNK42Kao9Kc+wuuLSr3HTH/eaSd2P7RETknAAGwsnXGOcAAUzh4DL256g4P9VxKbjuorPU3B3e+vQHs+QZfOnc2Vk8x3YOU6O42ORX55olkU/fe9ssuRZ6va39daW5VH5PvvG+qiwR9C0NBFLwPFQw7mSt0N574/lSBWBwcQLP8Qe8/YvI+3jj7/aJ0cPNknvY1+NlbcNcoTztEbj72HkKtk9ERM5iUIN8T2X0CPe3c48RD0wwS7b4EfkHnmM7xy8D4d58lQR/ZD/zyF3mkv/qc9NtZknkiw9nm6WSufOKaGXj1UAi7+Ntv1vcjom7oNzJ0+rxsrZHlXHsPAXbJyIi5zA1CpFr8NyD/AG/585hINzFxt81xCzZ0mqAzkuEybqse47hdmq97rE7blTrHMH29w7qqcqb1/6utsfVPazXz8cf1tZlwDZ62boerO+tb+vGPuh11uda8ypZc1F9tXBuoW2sr2l/9bGoHFb6WDir/mlNzJLI+t9+NkuF81Jhst6qjmUNZX2s0bvQ+hxMRe1PcdsU997WfxNM1n9n6/Eq7t+/tHg1kMj7uPvkxZn6Xq+zX4/6HG0RoG3Sj1nredR9evmxkTcUeh1r3Wt9XbCvM3V9irKG8sBLW56yDdjX69a61ZnPXBplaY+KOnZQ3POsrMfZfhvrZ8SEba2sz8WE46UVtd6V2D4RERGRO/lbgFDfdYgUKX0Hj1BlwDmjPs+znh/bn5dbt7PGdKzrMRUVN/ntp+8KttHnqdZzXOu5vj5P1cuYrOzP6zFZ39e63rrsaN+s5/7258e+gOfYzmEg3EXQQw0/Jvxhi8oGt2lr1pxN2Ma6jMoHt1Mj3yjyjH//5cen/EGrNTi9acEt2Po9UKlZb83G+894blKhXEi6Bzm2v/zqfqqsKz1HObBxm3nNWnVVGc/F87CMnmu6EkQuKq1m7bpq/0H3btPLs6Y/qeaAigb7h33Trwk4HmVJr6Kfr+G44f3x+jiWgGOLihOTfe4sfE7QFy/wuN5vR7er47XwPP3aCF7oIEFx7w14PRx7PL+s//6lFRAQYJaIyFu4+yS9pPoedRSWsR6TlTUVGOo1nXfc2j6gntS3ZtZteHqhtgkBZF3nWuGkFc/TdSbo+tS+Hl/w48ZT2jBshzZZ7zeeg7pVt3vOtHGlpV9PK6lNKOrYlfQ8DW0pjqved2yj9x3HD58Xx0U/ju3145hjGa+Px/Xxw3vgHAXbYz2Of0X1vmf7RERERO7kL4FwHeTV55PW8/LiYg/W83I8F/SyjulgW/18fU6O2JMj6CxpPZcFaw5xxEdwvgk4L8U+W89LrTGRkuI11r8P7ONt9vRFAbyO9dj4Cp5jO4eDZbqI/oMSU3E/KGyHoC+2wxyVD1xwyRUFvcqWfWIL0Nqz9jorCv6AxfsjwK0rFr1fZaErGmfh/YvK06oH16zXqLGa167fUM3/WLVczctLf2ZH71/cscPx0v8exdEBHLyWrqB1Hvji3hvwWXUgBu+jg/Cl+fcnIqpIjur7ug1OUyfDuseydZBNZ9okvKZu84qqH+3pE+rzO3ZWczwXkzPvB7pebn3BRWqOi8iA+tY+oFzaNs5ZJbUJRX2Wkp6noQ3SbVb362wBfvzBAfp4F3UuUt9sgxHkxvHAdtgf++OGf3so68UBIiIiInIvfd6Mc1wEoBEY1j2jnY09FBXT0QFtPL+k801rpw+wPwe3H1izuHNyZ+M1YB9vs9KdPvCYtZc8+R8Gwt3M+sevtTLQPcoBQQcETLGsJ+tt08XRwWVH8Bq68ju0b4+au5PetwN7/lNzHRj/38Vd1Lw0cOz0lUr9R7uGP9qtvdj27dphloqHY657z+vXLq2i3huVNwIXOP7490RjVNy/PxGRJ8BJMC4Col5CHWXtneEMHXQtDd02lNXBfSeD9facbQ9KoyLao7I+z0qf7Ot9020v/ijQPWXwHvq2UH3cdDul/9jRzyMiIiIi74BALwLagE4m5Y09WJ9fWZyJ1xTV2QTb63NrRylTyL8wEF6JrD9S/FGKK1N6Qo9h67K1F15p6aD6uOnvFKRGqQwIBuP99ZVJVEb43M5c2bOHnFPaNdffoub6j37rbTjOQMABz0PvN2d7B9oH8Z15b30lE3Dbv5X9vz8RkafQvZRxMQ/1N+rMstJ3BBVHXzT985cVau5Kune4K7myPSrL83QAu82FndQccOEbJ/v4d9N/BFnpnjK4yIHbUXGeoHuA499Zt0WYSuqdTkRERESeRweLEbsoLvbkDOvzree+7lCWeI09nA/rc2v7WAz5HwbCKxn+4ARrbiVnk/ajQijpapbOFQr4w7cyeoJr2Be8v7XSLUsQHIECfSUQf8Tr19C5oxAMKKn3HF5D92zUr4WgdnE939b+ulLN8Vw0KqhMnX1v/Jvqfytr5V2ef38iooqGelLXlfa3ONpDMLW0HAW7ew6w1adou3S9iddG3Wtlrcet7nx4iprr9k7XybgQW1QvkbJyRXsE+tg5+zwErzU9QGefm25TcxwTtFG6fdF/BGk4prqdQZBbB8r1hV28tj7uOM8oz4UPIiIiInI/63n5raMfU/Pyxh50p0p97gvuiF04G68pCf4O0MFwBNbt/7Yg/xGQ72/D5xqSk5PNUtF2p1WR1JyirxPgB2/9QxRQMejcz1b4kWmofOzzKNm/Fn6cxf2xrl9Pvx/+YLVe1cIf49YeXNb3x3N0YBzbgb79GXB18IsPZxdsA9hn+/3DH+v2n1+z317vp6NjBkUdt6K2B/zhbt9LHn/868+CfcCVTx0A0Fc69Wtan299H+vxwWvg3wqPIwD0+rTHT3lMK+m90RAhKKPfB8FwnZfK/nOW9O8P9cKyJaZKrrnkWJUqVSQ0NNRcIiJv4Ez7tCUpzCw5x1FdqutA1E3F1fe9bxwmKcmJBdvY19fWuk/XXfbvp+tfDb2Vdf1ofT/ra1tfFxzVmfgMyI9t34YhGI0TW2tqEetrl/SZHdXBjo6hVtb2yNGxK+l5eFz3qrf+EWI9xvbnBNZ2DccHrO28df8dPddR+1ycM6MyJSSw+FNLtk9ERM7Jjd8t+Zlp5hKRbwiKayQBoZHmknu4IgbkiYo7RwV9bqzZb6/PQe3PnXEeat1OnxMW9XywnuPj/BKKW8ZdoNbXsn9Pve/W97Se12J7xGSKirc5Oq/FGETWc2j74+PJGANyHQbCi+CNlaCns6+IrLypAvIErASJfFNFBMKJ3ImBcCIi12EgnHwRA+FEpccYkOvwV05u88To4apXH3qu6QlXEKEi8rYSERERERERERERAQPh5DbITYXbUHDrip5w+42j29CJiIiIiIiIPNW3P/0sN945Ri665npzDREReTqmRinC3rQqkszbYshD8bYYIt/kTPu0NSlU8iTAXCLyLEyNQkTkOkyN4pyQhueYJedk791ilspuzfpNMvODj+Wd+QulfZtW8vMXH5qPUEk8NTUKY0DkyRgDch3+yotQJcjvrg+QFwnl95PIb4UHmwUiD1MlME+CSwiCExERVYQpY+9TAW49adZ12MZV2rVuIW9Mm2gukS9gDIg8GWNArsNAeBGignLMEpFnCQrIZyVI5McigorvCUBUWaoYZ5W8V4GIiNyt/9XdZexdI8ylomEbbEvkCGNA5KkYA3ItBsKLEBmcLzEhDDaQ56kblm38cFkJEvmrGlVyJJS9bsnDoF1C+0RERORunTtcYJZKdu1VXWXn7r3mEtFJjAGRp2IMyLUYCC9GbePLVis0R0J4lMgDRBkNc4PwLIkOyTPXEJE/CgwQqW/UBdWr5LL3LXmEaOOPxkaR2SXmBiciIqoIIwYPNEslG3D1VRJTLVrueHiixJ7VTuUXxxzLx08kmluJKmMdHseEATGdGRTz4SefK3iOnsh7MAZEnoQxoIrBwTKdkJsfIOm5Ijl5rA3J/QICbHlXw4LySxX04kAJRN6ntO1TtnFOlJ4bKHlGO0XkbgFiu00T7VNpsH0iInIOB8ssOx2AtuYL13oMuk1W/7lWvl0wR+X6vvHOMfLRl8vk/pG3yrTHHlDbIAi+e+9+ee+159TyY9Omq4Ex7V8P72M/WGaLy3qp+fRJj0jXSy5SZTrJUwfLtGIMiCoTY0AVi4FwIh/FSpDI+7B9In/A9omIyDkMhJddcYFw++A1en/Xbtmh0Dr0En/r2SdUD3INAe5NPyw2l2zsX2vGvAWyYvVv8v7rL6hlOpU3BMKJvBHPsZ3Dy1tERERERERE5Bfq1oqTVuecZS6JVI+pZpZOqhoZKZNfeK1QupTB111jlhxDz/Kde/YyCE5E5MEYCCciIiIiIiIiv7Dnzx/ljWkTVRk9uHUqE6vH77tTtv27U5peeLnK+42A+Ni7RpiPFpaYnKLSrWz4+5+C1CpEROSZGAgnIiIiIiIiIr/x9KszVPoTpDGZ8+I0c+1JGIBzyfy3Vc/w59+cpQLiC79caj5aWLWqURJTraoKnCO3OBEReS4GwomIiIiIiIjILyCFybRXZ6jBMpHGBANmOoKBLtF7/LWnJqjlQXfeX2Qw/FVjm+ZnNFEDaha1DRERVT4GwomIiIiIiIjI5yEVykdfLpOH7xpRZADcHnqHI2gOL739rprbQ55x9CyPioyQ2x8cJ2vWbzIfISIiTxKQbzDLfoMjBleM1NRUWbtunazbtFH27j8gCQkJkpRiHOu8PMnNzTO+bQESGBgoISEhUjUqSmpUry7ntWghrYypQYMGanTbAGMbPVH5cMRgIu/D9sn1srOzZcuWLbJ2w3o1gFXC8eOSkHjCWJ8j+fl5xpQvgWifgoIlPDxcqkVXlfr16ht/HLeWZmeeKXFxcartwgRsn8qP7RMRkXNy43dLfmaauUSlEdLwHDXP3rtFzTXk+0aqkylj7yvI+Y3837VbdpD2bVrJz198qNYh5zdSo1hddM31aq63AbyP9XnoDY6e4+gd/tOn8x0OxOnvguIaSUBopLnkHjzHdj2eY3senmM7h4FwKhN8bZKSkmTp0qXy448/yt/btsn+AwckPT1NsjKzJDc3V/KNKceYjI1tTzIqNlRuQUFBah6AoDh+qGFhEmlUjAiGd770UrmkUydp0aKFREZGqkpRbctKsdRYCRJ5H7ZP5ZeSkiLffvut/PTTT7Jx82bZv3+/pKSmSlZWluQYJ+y4OIu2SZ3+WNonfSKOtikoONjWPhkTLtw2P+ss6WK0Tx06dJBmzZqpC7rWE3cqHbZPRETOYSC8bJD/+/GnX1RlpDVBj27t259+VkFu9Nx+69kn5MSJJPls2XdqvV4HCGb3v7q7TBk7Wpqc1rDgefNff14GXH2V2ga9vjv0GqDK21Z9rbYDBMx/X7tBBcO/mPNGwXqyYSDcO/Ec2/PxHNs5DIRTqeUZFdzWrVvl9ddfl2+MijDxBK76ZRcOepcSAt2oFMOMH+3ZZ58tXbp0kUGDBkmdOnVUZYjgOZUOK0Ei78P2qexwOrN9+3aZMWOGfP3NN3LkyBHJNk7M1YXZcpzqBBrtT7DRPuFkvVWrVtKtWzfp37+/REdHq/Vsn0qP7RMRkXMYCC893RPcnrVnOAa0RC5vlcZk8PUy7bEHVPB6yz//qpQp6Cne6PxLjbbeNgAm1K0VJ89NfLggCK57llvdP/JWNXe0Hu9BNgyEexeeY3sPnmM7h4FwKrXDhw/LxIkT5eOPP5bMzExzrWvVrFlTbrvtNhk2bJhEGRUjftCoDMl5rASJvA/bp7LDsXv88cflww8/lPT0dHOta+GEvHbt2jJ16lS5+OKLVfuEi7Vsn0qH7RMRkXMYCCdfxEC4d0FP8Mcee4zn2F6A59jO4f0GVGrr1q2T+fPnV1gQHI4ePSobN26UQ4cOyfHjxyUjI0NdcSQiInJk7969Mnv27Ao7QQe0QwcOHJBNmzapi8Jon9AWsn0iIiIiIl+EFCg8xyZfwkA4lRpuIkB+p3ZdLpeomBhVdpXQiAip3eg0dZsM0qKgssUgnKgE/fDmBSIiKgWk2Tqv0yUSXb26akdcBa8bVa2a1KhbT5WbNm2q2qe0tDSVF5HtExERERH5IhX/4Tk2+RAGwqlMMMDBrZOmyjUjR0nrSzpL4xYtpVbDRhJRNVpCQkMlGLexILc3cjsZEypLTGrZfCwYt22EhUlMXC2p27ipNGt7vnTs1Vtue/IZVcGi0sMVQOQkB1aCRERUHLQzNzz0qPS7935p07mLNG3V2mhfmkhUTKxUQdtktDuqbTLbJ9026fZJt10hVUIlPKqq1KhXTxo2P0vOvrCDdB00RPrfd796H2v7xLaJiIiIiHwZz7HJlzBHOJXasmXL5KYhN8u767dKXn6epCYnyuHdeyT+wD45vGu3HDu0X9KSkiQzPV3SU1MlN9s2inBAQKCEhBoVpFH5hYaFS2hkhLryF1e/gcTWri216jeU+k3PUO9xz2UXSZ+ePdRgCdWqVVP5ojBnjijnMT8Ukfdh+1R2W7ZskYs6dZLXf/pNomJjJSM9zWib0CYdkCN79sjRgwck6fhxycpIl4yUZMnOtLVNeXm56qRcnZyHhUloeIRxUl9NatatL9Xr1pXYWrWlnnGij/nuv7fIY317yRtvvCFNmhjrjPeJi4srGNSHnMP2iYjIOcwRTr6IOcK9y9atW6XDRRfxHNsL8BzbOQyEU6npQPjsdVslX/IkLzdXUhNPqKt/EVFVza3K594uF0vfXj0LBcJZCZYOK0Ei78P2qex0IPyVFb9KdI3qkp+LC7VJkp+XJ1WNk2lXwEn649ddLW+99ZY0btxYYmJipFatWlK1alW2T6XA9omIyDkMhJMvYiDcu+hAOM+xPR/PsZ3D1ChUJrh+kpdnTNkiqxd/JeP69Zbnbh8meTkBLpl4EwwREZVFvtk2/bt+g0y+sZ/c3/0yOXbgiMO2prST5NtOm5DD0DonIiIiIvJlPMcmX8FAOJVdboDk5wdIdmam7daXXORxsq0r7xTASDgREZVBfp6tHcnNzlHtE+Tl5p/SzpR1IiIiIiLyNzzHJl/BQDiVSX5erqz98XsJMP5rd0UPGfHkCzJo7AS1XN7/FGOWkJBgKxMRETkBt2huXPWj6kVy+jktZcSUF+TOp19RuQet7UxZ/zPO0o3/5cuBAwds7+d/2eWIiIiIyM/wHJt8CQPhVCbIC778ow/kj++/luysbDmn/UXSpMV5KqVJWacc4zUP7t4pn735sqQmJqr8RoBKkBUhERGVBG3FqsWfycrPP5GUxCQ547x20vKizhIQGOSw3XF2ysrMlO3r/5JvP5hrLIlERESoOdsmIiIi39Vj0G0Se1Y72bl7r7nGNSrqdYkqCs+xyZcwEE5lEhgULJf0GSi/f/OVzJ78iMx/dor8bFSMR/btk+TjJyQ1KUUyUtIlKz1LsjKyJTsTt8/kqHJmWqakG49hmxPxx+S/zZvkp0UfyXtTJ8iC6U/L8cOHjIrPVgmiArRORERERQkICJSLevWVzb/+LHOfGi/vPjVBvl/4vuzd/o8kHj0uqYnJkp6cJpnpmYXapuzMbNVeZaRmGI+nSsqJJDl24KBsXr1als2dKTPGPSBL574tqcnJqicMBm/WbVJeXp6aExER+bOHn3xOQhqeU+x00TXXyx0PT5Rvf/rZfBYReQOeY5MvCTC+ZH4XXfS2EYPxT3T06FH566+/ZP3fW+TwkXg5duyYpGdmSn5uruQb/wUalQaC0xHh4RIbGyONTztdLmjbVpo2bapG2g0MDFQVC6byWrZsmdw0eIi8tXq7/Ldpnfz952o5fuiAJB6PNyq6DKlWs7ZUjYmViKhoiagaJUEhVSTI2Dfjg0hOjlERGvudkZYqmakpcmTfXqOyTJXQiAiJrlFLGp15trS55AoZf8NVct01PaVfv35SrVo1qV27tpqHhISYe1F6qampsnbdOlm3aaPs3X9ApV5JSjG+C0YFm5trVLI4hsZxwntUjYqSGtWry3ktWkgrY2rQoIEafVcfQ1ccx4rGEYOJvI+3tU+eVK9u2bJFLu7USZ5f+rskHz8qm35fJccP7JOkhKOSZuxTZHSMVKsRJ+FRVY1ytIRUCVVtU2BQkLGvxol6VpZxop5mtE9pknziuGrX0P6GV42W6rXqyhmt2hptWrRMG95f3nzzTTn99NON9jZW4uLiVPtUnhHt2T4REZEjufG7JT8zzVzyDujtjEB38zOayBdz3pAmpzVU69es3yQfL14mb837UFJS06TrJRfJe689J9VjqqnHfRUuEEx77AFziSAorpEEhEaaS+7hbefY4Cnnh1u3bpWOF13Ec+xyHEN34Tm2cxgI90A68P3VV1/Jjz/+KNu2b5dDR45IRka6ZGdmqbQkuTk5kod/Ov3PZ/6AUdngBxocEmz8AMIk1Pgh1KpVSzp06CBdOneWdu3aqUolyNyuLD9mFQgfcrO8uWqbWs7NyZZMVbGlypG9u+TArh2SePSIpJxIkOSEY0bFl6G2gwBjH8PCI42KrppExcRK7dOaSr3GTSU6tqaERURKmFH5GHslD/S6UPr26qEC4TExMQWBcGcrQRzDpKQkWbp0qTqGf2/bJvsPHJB0Yz+zjGOYiwsIxoR0LNZjiONRcGxQIaIiCQuTyPBwVRF2vvRSuaRTJ2lhVIyRkZHqmJf1OFY0VoJE3seT2ydPr1d1IPy5r36T6Oo1VVuJtinLaDuPHdpvtE3/SsKhQ5KSZLRNxkl8RnqqyneoBRsn7RGRVVX7FBNXW+o2OUPi6jVSJ/ShEVHGPofL3n+2yMRBV8kbbxh/2DdpotpTtLG44Mz2yXlsn4iInOONgXAEwREMb9+mlfz8xYfm2pMQEO86cGhBMHzJ/LfNR3wPjsXE515xeBz8GQPhp/Lk80MdCOc5Ns+xfQUD4R4G/xwbN26UV199Vb759ltJSzN+tFm24HdZ4MeJ4DgC4g0bNpRLjR/x0KFDVU9x/Ej0j7g0dCD89Z9sgfCS5QtuazGqClWxOOOhay6UPj2vkv79+6tAeJ06ddRtMs5UgngvVNavv/66OoaJJ05IdnZ24QqvlHCMgoz3DjMqlbPPPlu6dOkigwYNUvuFq4eoOD0NK0Ei7+Op7ZM31Ks6EP7s4t+kamxNc23x8vPzjBP1fKOdRNtUclu4d/sWmTSouzpJRzta2pN0tk82bJ+IiJzji4FwQDC8Q68BqvzaUxNkxOCBquxLdMD/nGZnMBBuh4Hwwjz9/FAHwnmOzXNsX8Ec4R7m+PHj8uKLL8qiRYvk+LFjkpGeXuYgOCCwjt7jCKhv27ZNPvjgA5k2bZokJiZKRkaG7apYWSoGPAUX+Yxp25+/ytRh18rMiaML1hWeAowvWpBR/RlfN4ePO5jKVlcp8fHx8sorr8iCBQvk0MGDkm4cwxzjGJS1AgQcoxyjIk1JSZE//vhDZs6cqY4lrjhmZmbaXp+IyEd5U72ajybTaEcO/bdDXrxnsEwe3EPSEpNObWeMKSA/UAIDjJNYo51y9LjDqRzYPhEREYm0a91C9QaHl2fNU3MrpBNpdP6lKq845k+/OsN8xAbBduvjN945Rj3HCgNRYj0GpcR2LS7rJQu/XGo+ajNj3gKVtxzPReAar4XtUcbzkc8cy9rxE4lqX7Ad9gGvp/cDr4PnAdbrXu+/r92gHscEjl7Xnv3nxzLeW7N/Dfv9sG5Lng9pb73h/JDn2DzH9hUMhHsYBKs//vhj1Qu8IuBKKHqcHz582JZn3KggcPWs9BBgRxBd5MCOf+Tgrn9l77bNatkVk3oHXSildevWyfz581XlVFGQugbH8dChQ+rihb6oQETki7ypXs3LzVPtSMKRQ7Lnn82yf8dWSU06UaiNKc8EbJ+IiIjK59ruV6j5tn93qsCuhuD1hi3bZN33X8jhjaulYf268vjTLxYEw7HtgBH3yszpT0n23i1qvuq3P9VjGgLS53frI63POUsStq5Rr5OUlCyD7ry/IBiO+WfLvlOB6sTkFLl33BT1XgheL/52ucx4b4F8+NlitQx432dee1umGftx8Ei8LFryrbz09rtyY9+rVT50vA6C3whCD7j6KvW+gJ7x2E9MeMz+de0hYL/4uxWyYtF76jmjbhkkz785Sy7pM0g93/41EMz/a8NmdRz6X91d7Qf2k7zH5s2bveL8kOfYPMf2FQyEexj88JHKpPXFnVTOJNyO4QrBISFSvU5dCQ0PV3mN0EM8NTVVVRRlCYTn5eXKn8uXqKuC/7viWrlm+INy7e1j1bIrJkDlUhY4hkjB0q7L5RIVE+N0OhZnYFDP2o1OU/9GuCUGFxL0cSxrpU1E5Om8pV5Fe7b2p29UO9L47LbS945HZeA9E6V6rYantDNlmXRvlb1795apzmf7REREZNP4tAZmSWTH7j1qjl7WS5f/VDCIJqYv576lHkMAGj76cqnUr1unoEc55s9NfFiVNQS1kZJk7F0j1DJeBwFrOHEiSc0RrB59+1BVRlAZ74MUJshZPvGBe9QAl3gNDYN+Yt1VXS5Ry4lJSWp7rNv0w2IVDEdgurggNPbD/nWt0PMbFwasg4ziMyDAjfV4bfvXiImJVss4Du+//oJat/I3WxCevIM3nB/yHJvn2L7Edd8OcpkqoaEybPJUueqW4XJux4vltLPPlRp160uY8QMMrlJFBbWDMAXbRuLVE5bxGKYQ4zUwGGWtho2kSYuWcv4VV8qgsY9Jo+ZnqfdARYarV2X94eIWkZmT7pXFc16SkJBQuazPEGl5YReVB6o80/HDB+S5uwdI4rEjEhYWZr6brWIrDQxwcOukqXLNyFHS+pLO0tg4BjgWGI0Yx0YfJxwz63FUy+ZjONYYJCEmrpbUbdxUmrU9Xzr26i23PfmMRFevrvYJx1BfSGAlSES+zBvqVaQS++D5x2XBS5PUczt0u04uvXaw8ULG/xy0OaWZNv6yXN6ZfI96H4xZAXiP0u4j2yciIiLHpr81Rzqc30YFezWUoyIjVJAZgfLYatVUUBg9oTUEtWOr2dpm9AZHr+ib+/dRyxqCxehh7Sgf+e2Dry94Tx1gL0qj+vXU/Jbrr1NzbfyYUWqO3txl9f6iL1VAXQfBtSljR6v5W/NOzTWOz24Pn5+8i6efH/Icm+fYvoSDZXqYn3/+Wfr26y+z/tosefl5cuJYvMTv3SuH9+2VI7t3y/HDByU9OUXSU1MkKz1DcrIx+m2O+tEHh1SRKsaPNjQiUqrVrClx9etLjXrGVLuuNGzeXKqEhsm0WwdLftIJefbZZ6WacRJRu3ZtNRglkv07C4Nl3nDjjdJjyL3y3YIZ6nUbn9tWTmvWUhqe2UJq1GkgVWNrqJGBA4Mcv25OTpakpyTJsYPG59q/Ww7v3SG7tq6XLX+slNOat5L9O/+WwTcNKhgsEwMlOLufejDPd9dvVccwNTlRDu/eI/EH9snhXbvVyMZpyOuUnm4cx1TJNY4hAvsBAYFGBWkcxyqhRuUXLqHGCVeNuvWM49hAYo3jVKt+Q6nf1Hbl/Z7LLpI+PXuo/dPHEXNnRzR2Bw6UQOR9PLV98oZ6FYNldux4kXS94Xb5ddnHkp2ZIY3PaSONjHapUbMWUrNuI+MENk4ionAyHG4+qzAM7IMR8JNPHJWjB9A+7ZJDe/6V7et/kwO7tku905vJ3n83q4F4rCPa46Sd7ZPz2D4RETnHVwfLBL0doBc2AtDIc420I0XBwJr9ru6u0oQgGI73mPjA3YWC1+hVjVQi+jWLo/fh/pG3qkC5PeTbRlAZAXStuNfXecD19lh2dBwcvS4C+BhAtKjjhnzguBig39fRa4D9PngiDpZZ2A8//CD9B17vseeHGITywgs78Byb59g+g4FwD6MD4W+v2YR/HcnLyZHkhATzKlYVc6uye3r4zZKfmCDPP/+8GoEXt3bgx1vaQPhNg4fIi4s3y99/rZI1y7+UHZv/VPmhIqNjJCyyqoSFRxgVSYREVouVKkZlGBQUrMa/zMnKlIy0FElPS5ZsoyJEBZWWkqQq06oxNaT9FX2k9UVd5aUHb5Lrevc8pZLBD7skuhKcvW6r8Z556uplauIJdZUvIqqquVX53NvlYunbq/D+oZJmJUhE5eHpgXBPrlcRCL/44k7y5Ie/qIurf65YIts3/CaJxw5LWESUOjkPDY+UKsZJbmTVGHXROCg4RLVPuKiMdgjtUVZmumqnUMYF2/y8PHVy3r5rX4ky2rg3xt1W6CQ9Li7O6XaU7ZMN2yciIuf4ciAcPbpHPTpJlZHDGz2yEcQdPmiAvDFtolpflOMnEuWxadPlnfkL1TICwzqdircGwks6bvo5DISXjTcEwj31/BCBcHQ24Tk2z7F9BVOjeChcnsjLFvn0jdfk4au7y8evvCh5OQHlnlx32SNAAgKC5ZzzO8uQB5+Xx2d8LXc88Y607dRDwiOqSlpyourpvX3977Lx1+WyduUyWWdMW/74SXZvXS/HDu4zKsBkqXdac+na/3a5Z9o8Gff2N9L9hlFSt1Ezo9IMMt/HeKeAAAkMDFRzZ+H6Tl6eMRnHcPXir2Rcv97y3O3DHB6Tskx+d/WIiPyet9SrGKX+zJYd5Pq7n5BH31wi90//WDr1ukmq12ogWRkZknDkoPz39zrZ8vtPsuHnb+WvH5fIxtXL5Z/1v8rBXdsl8ehh1Tvk3Hadpd/IcfLwa1/Kfc9+IB27DVCvoaFNYvtERERUNhioEhD41WlJkALFmfzW2B7B8m2rvlZBYQSR0Uvc6vuVq82Se9WtFWeWymbLP/+aJceantbILJEv8YbzQ55jk69gINxT5Ro/tPwAyc7IVKlPcrOy1XJ5J1fKzzs5ZaSmSYOmLeSaWx6Se59+Xx59Y5lMmLlcnpi7Sp58b7U89f5vapry3i8y6d2VMv6d741tlsotj7wsnXsPVc/F17HgNW1vUVAJ6qlU9DHMzFS3vdhGOT71mJRlCmAtSET+yAvqVeMc2NI2pUq1GnXlygF3yO0T3zZOuBfLuLe/k8lGO4T26Mn5v6q26cn5q4326meZOHuFPD7jW3lg+iLjBH28tOvcW2Lj6tv2Ea9pt49lapuA7RMREfkxBK4xAVKbaMgPjpQnSBNib+fuvQXP0ZBLW/eQxvPw+OWdOqjHkG/bkadftQ266WropQ4XX3C+mpcWPoPOhe7o8ycmp6ggu33+cPIhHn5+yHNs8z3I6zEQ7oFycnJky++r0edaug+5TUZOfVG6DR6mlsvzn2LUMK4a3VaP8Lty8fsyYegl8uzd1xYa+bc8U3kvt+Xn5craH79Xn7vdFT1kxJMvyKCxE8wjUb7/FGOWkJBgKxMR+QFvqVd1O/LP2l9l8rDL5cF+rVUuQmsbU9ZJMJUT2yciIvJnCPIOGHGvKve/unuh9CLXdr9CzbsOHFoo6I0g8+C7H5TzW7VQqUnsA8Wjbx9qlmwBZQSMkWv8xjvHmGttsIzBNu0hyFxaCYlJZsnm4y+Xqbn9IJpWCOYXB4N2wgtvzVJzDc9DoP/x++4015Cv8YbzQ30+zHNs8nYMhHug3Jxs+eaDubJx9UoJCqkirTp1kep16qvYcFmnhKNHZMUnC+Tgrv8K0o4gGF7WgLjxTHX7C148Krq61Kx7mtSo0+jkG5Z3MuiReMsCOaGWf/SB/PH915KdlS3ntL9ImrQ4z+FbOTvlGK95cPdO+ezNlyU1MbEgX3l5jiMRkbfwhnoVz8CdVCggV2HNuqdLjVoNJRR5KPWblmPSu4TR4suK7RMREfmy6W/NMUuFIXiNIDaC3Oj1jLzc77/+gvmozYjBA1VwHI8jX3aLy3qpXNi1W3aQm/v3KUihgtdY+OVSVUaQHO/Z/IwmBUH1mdOfUvOPvlymBuDEa2CwScB7aDp9ylff/nBKkBqvu3f/QVVGPnN7k194rSBYj/nYJ59V+c2tgX0E5JHHG/t6x8O2vOfFve5Do25TnwP7rXuuY7+uGXqHel2979bX0McBrBcIHPUqJ8/l6eeH2Jrn2DzH9hVBEw1m2W9kZWWZJc+zd+9eWbjwI+l56x2yesnnsua7ZbJ76xbJNCodDD6JH3dOdq4xxwAAespX63ON9fjBZ2ViQMo0SYyPl61//CY/f7lIVn3xiSQdPyrx+/ZKtaqR0rVrV5VEPzIyUsLDMZjlyZzcJTl8+LB88/U3kpWdI03Obid1Gp4hLdtfIW06XiUhVcJOrT1KOWWlp8mqpe9Jjdhoad++vYSFhUlUVJTaX+SJKsm///4riz79TPrdM1Z+/2ax/Ln8a/l3wzpJPpGgBnPIy8kzjmGO5KnjmG9UtvoY5klujnF8s3IkO9M4jsYxT0tKloO7dsrGVT/KT59+aLzWN+pY79u+Tdqd31bOOeecguOIeWmOY0XDvnjSwA1EVDJPbZ+8oV7FIEifGfuYnpGh8hfGVK+j2qYLLr9OqsbEOWxvSjsdO7RXfv/+Ezn77LOladOmqv3U+8n2yXlsn4iInJOflijGH3nmkmdDkPuqQcMLAsr7Dx2WJ6a/VjDNfP8jFeS6vFNH+eCNF6T/1Vep7exd17ObpKWny8a/t8nBw0eMvwMj5eUpj8uQ/teqx79b+Ytq62d/+ImMe/pFee6NmXJ+q3Plo7dflnDj70ZAHu0O7c6TNRs2y669+yXROEdAb+s3nrYNzgkIjn+82NaLG4H3V2e9p56D5yKw3eaK3mo9LPn+R7VPV1zSUb3/6jVrpctFF8irM9+Th6Y8K8tX/ap6gr84+VG1vVa/Xh35ZsUq+fGX3+X2Ider/S7qdQH7f/21PWX3vv0yZ8Ei9fk+Wfy1OiazX5ymtrHft0VffSNfr1gp23fukmFjTr4/jrf1tT1JYGQ1CQi2BRTdxZNjQLt27ZKPPv7EY88PU1JS5NNFn/Icm+fYPiMg3w8vY3jyiME///yz9Lmun7y+cov88+dvsm3dH3LiyEE5cSxekCIpJq6ORFWLlciq0RIaEWF8yUMk0PiyI494tlG5Z6alqZF4E4/Gy3HjecEhVaRqbA2pe/oZ0vrizjJ36uMSZJxQPfvss1K1alWpU6eOGpHXmZF4tXSjQZ02bZq89NJL0vmaYdLpqpuM94hTgfqywtcwMz1VDu/dLvNeul9SThyRW2+5RXr27CkxMTFqRF6MzOvMj1qNGDx4iLy1erv8t2md/P3najl+6IAkHo83KrcMqVaztlFhx6rRjSOqRqle9xjRGJchc3KMyk9dSEiVzNQUObJvr9ovHOvoGrWk0ZlnS5tLrpDxN1wl113TU/r161cwYrCzIxq7C65WomImIu/hqe2TN9Sr+APn+eefV9N5F/WSKweMkujYWsaJdJRxtmPe0lgGuDspNemYbPnrR/l8zlQxWlyZPHmyNG/eXKpXry61atVS7SnbJ+exfSIick5u/G7Jz7QFPMkzIOD//JuzCnKTU+kFxTWSAPQkdiNPjgH98MMP0n/AQI89P+Q5Ns+xfQ0D4R5GBcL79ZfXf9yilnOMSicjPU3SU5LkwH/b5dCe/yTp2FFJTjhmVBonJC83R20HwVVC1Q87MjpGatSpLw2aNZcatetLWGSUhBvrcXXo+VGDJCA1QZ555hn1o61bt26pf7y4kp+YmCjLly+XUaNGSU5uvoRHVpXa9ZrI+ZdcK03P/Z/UrH2aBAUX/5q5udmyY8sa+WfDKmP6RY4e2i1pKYnSqlVLGTx4sJx55pnqh4z9Q8A+Ojraqf1UleCQm+XNVdvUMlLNZBrHEBXbkb275MCuHZJ49IiknEhQxzE7K0NtBwGBgRIWHmlUjtUkyqgoa5/WVOo1bmpU9DUlLCJSwqKiVI6oB3pdKH179VCVYGkD9e7CSpDI+3h0INzD61WcTCclJcnKlSvlvvvuk4QTicb7VpVq1WtJ207XSLOWHaROwzMlNKykP7zyJfHYYdm++TfVPu38e40knzgmmRkp6m6q/v37q31DHYsLyThJR/vk9Ek62ye2T0RETmIg3PMwEF5+DIQXpgLhA6/32PNDhAwR/+E5Ns+xfQUD4R5GB8Jf/cEWCC8J/vnyjT/+A4Nwu0jJV+Om332TSMox1SMcP9qyBMIRbMCAm/Hx8bJmzRpZvHixbNu2TRISTkhSSqpkZ+dIcEioREbHSrWYWhISGmZUDiFGtZcvOVmZkp6WLKlJCZKanKCC4eFhuK0kQqoblV3nzp3lggsuUKlQcAsMfsioZGrWrKkqQSyXRFeCr/9kqwRLlq8+Eyo3VILOeOiaC6VPz6tUZY3904F6VoJEVB6eHgj35HoV7WFGRoYcO3ZM1q9fL0uWLJFNmzap5aTkVMnKypaAoGAJjzBO3GNrqxPboOAqxhSsLjpnZaUb7dIJSTPapoz0FAkKDJAwo32KMtqn+vXrS7du3eSss85S6bp0+4TeKjVq1FC9VUpzoZbtE9snIiJnMBDueZDr+535CxkILwcGwgvTgXBPPT/kObYNz7F9h3P/4uReuDSBcSKN6fevv5DxAy+XHxfNL1hnnQLyAyQwIMgoB5zymMPJBQICAtSPHcFq5Ee644471C0sjzzysNw96g656caB0u2KS+XcMxtKZLBx4pZ+SDJP7JKsE7slOOe4xEUHSatzmkj3K7vIiOG3yuj77pVHH3lExo8fr64E6qtqmFAZRkREqB9zqXIvWY7htj9/lanDrpWZE0cXPhYFk3EMJcioAo2fg8PHHUx+d/mIiPyeh9er1rapWbNmcssttwiGQUHbMvq+e+SWoYPl6h5Xyv/anCM1owMkKPuY5CTvlbSj/0p++kGJDEqTJg2qS8cL2kj/666VUXeOlAcfuF/GjRsnDz74oLRp00a1Rzr3Hton5C/ECaczuQsLsH0iIiLyShikEgNrwl8bNqs5kUt48Pkhz7HNiefYPoM9wj2MLUd4f3n5203qytT7z42TVYsXyIXd+siQR542tyq76ffeJAGp5esRDvjaZGdnq2OJW9HT0tJU7ihMuLKGCds48/VCxYoJdOWHCRUfrrBh/xAIxz7q7YqjrgYOHiKvfP+3yp++4pO58ulbz0j1WvVkwnvfmFuVz9hrL5Rre3aXAQMG8GogEbmMR/cI94J6FW1OTk6OOo6YUlPRS8XWNiGtF9omvV1p2idM1vYJdSv2DRPKWMf2yXlsn4iInMMe4Z4Dg1T2GHSbuWTTvk0r+fmLD80lchZ7hBemc4R78vkhz7F5ju1LSnF5hdwFA19uXP2j5OeK9Bx6n/S8+R658oaRarm8E65iYbDL8kJlhMA0fvjI3YSAOnIkxcXFqXxOCF7jNhZMGE0XV/gw4coeJr2Mq4qYsB2eg1tg8Bp4LbwmbofBds4GwbW8vFz5c/kS9Zn/d8W1cs3wB+Xa28eecjzKOsHx48dtBSIiP+AN9SraCZyMom1CW4J2BCepaKfQvuCkVbc7aJuKap+wXrdNmPA8tEd4Hd0+4fWwvbMn6BrbJyIiIu+DNCjZe7cUmhgEJ1fx9PNDnmPb3oPn2L6BgXAPhFFt33p8pKz4dJ5ERlWTq24aJbXqny75ecgHXrYJgwTMnfaQ7Ni0ptAVK2eu1hVFV4a4dQWVGQLgyOWNCZUj5qjUUJHhMVRymOsy1mPS26Hy02VdkeJqFm6HKU0FCDnZ2TJz0r2yeM5LEhISKpf1GSItL+zi8NiUZjp++IA8d/cASTx2RH1urTzHkYjIG3hLvYr2Aj1L0H6gHcFFVrQrum2ytjXWNkmXMaFtwuPW52GO9Xg9nMjr2zXZPhERERFReXjD+SHPsXmO7SuYGsXDIDXK1df0lsv7D5fvP3pbqtWoLU1btJPTm7eS+k3Pluq160tUteoSHhllbH1qxZCfn6tGxz1x9LDE798lh/bskH07/5aNvyw3nlNVDU5wesP68swzz6iKBlfdUCGhsikvnQ7FmhrFOgf9dUOlpiddyWGuJ/1YWeC2mBtuvFF6DLlXvlswQ6qEhknjc9vKac1aSsMzW0iNOg2kamwNiTCOR2CQ45QwOTlZkp6SJMcO7pUj+3fL4b07ZNfW9bLlj5VymvFvsd84poNvGlQwUAIqfcxLm2KmIvG2GCLv46ntkzfXq47aI+tcT5p926TLbJ9ch+0TEZFzmBqFfBFToxSG1Ch9r7vO684PeY7Nc2xvxUC4h9E5wp9d9Kds+n2F/PHd57Jr23rVSzwyOlYFs0PDIyQsIkotBxs/uqCgYMnJzZHsjHRJS06UTONkKT0lWdKMH3GGMQUZP4bWHa+U9pf3lk/fniaheWkVEgi3Z//Vsl+2VnJlrfAc0fmhXly8Wf7+a5WsWf6l7Nj8p6QmnTCOWYyEGccwzDiGoWERElnN+Oyh4eoYYu9ysjIlIy1F0tOS1fFMNY4njiOOf9WYGtL+ij7S+qKu8tKDN8l1vXuqSlAfR8wr4jiWFStBIu/jyYFwX6pX2T5VLrZPRETOYSCcfBED4YXpHOG+cH7Ic+zKxXNs5zAQ7mF0IHz6FydHoc5MT5Vt61bLljU/yr5/t6gfKH6sOTnZkm9ebQsICJTAoEAJCg6R4OAqEhVTXc5seYE0Pfd8Y2onVYwfPbwy9iYJyDiuBstEfifkYPK0q1jlZasEb5aXvtpqrhHJNo7Xnu0bZdOvy+W/reuMCvG4sS5LcrIxuGeuOo4QGBhkVIjGFFJFgo2pbqMzpfE5beWMFu2kQdNz1ACm8NiNHeTaXt1VJYjjpwdK4NVAIioPzw6Es14tLx5HG7ZPRETOYSCcfBED4YXZAuHX8zy7HHiObcNzbOcwEO5hdCD8hc9OBsITE45KVHSM8eMs/2i0rzxykwSagXBcvUIgHHNfDDS8+OXJSjAlMUGqhIcbFcPJnE7l8dhNHaSPUQlyxGAiciVPD4T7e71aXjyONmyfiIicw0C4+9w/aZqs37xVhvTvbUx9zLVUERgIL0wHwnmeXXY8x7bhObZzbJc2yOPokWk/en2yjDN+cB++PK7QiLVlndS9H35Cf+aVi9+XCUMvkWfvvrbQsSjP5E/HkYhI03Ug69Xy0Z+Zx5GIiMgz/Lj6dzXt2nvAXEPkXvpcjueHZac/L48hFYeBcE+Uny/ZmZnqhxYbV1dq1mkkcXVPt/3wyjth5gc3AeQb/2VlZKjPHBVdXWrWPU1qGMex4DiUdzJgEAgiIn/BetU1eByJiIiIyIrnh+XHY0jOYiDcw0RFRUm1atGy+puFkm/8xi7rPUxGTZ4rl/a6WS2XZ8rJyjbeIUDS09Ntb+ajqlatKjViY2X5p+9IXm6etL6wm4wcP1NuuucZh8eltFNmWppgVOOjR4+a7+iZ/DDrERFVENarrsHjaMP2iYiIiMiG54flx2Now3Ns5wRNNJhlv5GTk+OxXxDkGjp08KDMf2e6BAYFS2yNehJVraaEhIQa32pjgzJMGFgz/sAuWfD6o/LvptXS5rzzpEOHDhIWFqYqDMwxOICviIuLk8TEEzLv7emSkZYqNWufJhFVYyUsoqrD4+PMlJ+Xr0YS3r9js7w+6WZJSz4mXS67TJo1a6aOX2RkpJqjcvQUyPvuS/+uRP7AU9sn1quuweNow/aJiMg5+WmJIrnozEQVbcZ7C+Rw/FG5tEN7NVHFCYysJgHBVcwl9/DkGFBsbCzPD8uJ59g2PMd2jl8OlpmamuqxtzRgvxISEuTTTz+VMWPGSGhYhIRHRsvpzdpKm4t6SuOz2kq16nUkICDAfIYjeRK/f5dsXb9Ktqz9Ufb9t1lSkxKkVlwNGTZsmLRr1079QJDYH4NlIvjuS4Nl5ubmGpVgoixfvlxGjRolObn5xjGsKrXrNZHzL7lWmp77P1UxBgUX/5lzjZPOHVvWyD8bVhnTL3L00G5JS0mUVq1ayuDBg+XMM89UgxFgsFE9UIInHUdUyr7070rkDzy1fWK96ho8jjZsn4iInMPBMt2nXfe+arDMcaNHyfgxo8y1VBEqY7BMT48BnThxgufZ5cBzbBueYzvHLwPhSA2CK4KeCP8c2L/Dhw/Lr7/+Kl988YXs3LlTEhJOSEpquuQZ/1pVQsMlOjZO5T0KDqkiQUEhkpOdJVlZ6SrgnZp8XDLSU6VKSLBERBjbVo2Stm3bSteuXaVGjRrqChFGtkUAHFfO8CPGj9lXoCHJzMyU+Ph4WbNmjSxevFi2bdumjmFSSqpkZ+cYxy1UIqNjpVpMLQkJDTOOR4ggpxR6z6enJZvHMUFVhOFhxraREVI9NlY6d+4sF1xwgUphgyt/OG44jjVr1lSVoCcdx/DwcJ8ZBZrIX3hq+8R61TV4HG3YPhEROYeBcPdhINx9KiMQ7skxIJ4flh+PoQ3PsZ3jl4HwjIwM44fgubeYZWVlSVJSkhw5ckRSUlKMH2+C7N27VwXHMWH5+PHjahtU5rj6hS87foBIdYLAdq1atdQVKgS+McePFr3IMeHHix9I9erV1W04uKXDl34s+ErjuCQnJ6tjiDmO1YEDB9SEdTiGesLxxjEEHENcRUOFhuNYv359VcFhwjENDQ0tdBwjIozK0TyOKHvSbSietj9EVDJPbZ9Yr7oGj6MN2yciIucwEO4+DIS7T2UEwj05BsTzw/LjMbThObZz/DIQji89rhZ5KvyTYB/xw8WEq5dYRsWNHyse11Nx9I8V8INFsBsTbpXAjxxXsfCDx7Lezlfg2OB46QowLS1NHUNMuFqIyZljCNbjiEpFH0dUmLqyROXoacdRX/wgIu/hye0T61XX4HFk+0RE5CwGwt2HgXD3qYxAuCefYwPPD8uPx5Dn2M7yy0A4gsn4UXgy/SPWFTaC4foqJq50OQqI67n+0SL4ref4geKHih8ugt+4UoR1+FH76g8FxwPHSh9DHD9MWLYeQ10h6ueAPibWY4gJx896HDGhrLfzFKik0eufiLyLp7dP/lyvupI/H0e2T0REzmMg3H0YCHefygiEe/o5Nvjz+aGr+PMx5Dm28/wyEA6oBPEj8GT4p8E+6gk/XgTCUcaPGD9elLGd9Z9R/2gR5NZzBL31hGX9mC9WflY4Lvo4YdIXF+yPobUi1HB89PHDccKx01cBsQ5l/ZinHUdUzthfIvI+nt4++Wu96mpsn4iIqCQMhLsPA+HuUxmBcPCWGJA/nh+6Es+xqSR+GwjH1SH8GLwB/on0j1n/WO3nmDT8IPUPWP9A7Zcx+RvrMXN0HEEfR+tx0sdNH0PrcfRE2C/0+Md+EpH38ab2yV/q1YrmL8cR+8X2iYjIeQyEuw8D4e5TWYFwbzrHBn85P6xI/nIMsV88x3ae3wbCcSUI6Ua8lf0/m3XZ+uP01B+qJ3D01feF44irlLwlhsh7eXP75Kv1qruxfSIiImAg3H0YCHefygqE+1oMCHieXTo8xybw28sF+pYGb4UfpXVydKUKExXNepz05AvHEftORN7Lm9sna72pJ1+oV93Nepz05AvHEftOREREVBl8LQaEyRfOD93Jeoz05AvHEPtOzvPro8X8OeRr0LgjfxUReTe2T+Rr8Icn2yciIiKqTDzHJl/Dc+zS8/tAOAKHRL4ClaC3Xb0kolOxfSJfg+802yciIiKqTDzHJl/Dc+zS8/v+8/jSEPkCBMH5fSbyHfw9k6/AH5z8o5OIiIg8Ac+xyVfwHLts/D4Qji8NK0LyBfge80ogke9g+0S+At9ltk9ERETkCXiOTb6C59hlw4zqBuTTYUVI3iwsLIzfYSIfxPaJvB3bJyIiIvI0PMcmb8dz7LJjINyAEVbxBfLmEYTJf4WGhrICJPJRbJ/Im7F9IiIiIk/Ec2zyZjzHLh8Gwk2oAHFFhbcVkDfB95YjBBP5NrZP5I3YPhEREZEn4zk2eSOeY5cfA+EWuCqIihBfLCJPhyuA4eHh5hIR+TK2T+RN2D4RERGRN+A5NnkTnmO7BgPhdpBsHrcZYE7kiXDFGt9RXr0m8i9sn8jTsX0iIiIib8NzbPJ0PMd2LQbCHdC3yDDnDnkiVIC8FYbIP7F9Ik/G9omIiIi8Ec+xyZPxHNu1GAgvAq6yoCLEbQe8MkiVDbdsoeKLjIxk40zk59g+kSdh+0RERES+gOfY5El4jl1xGAgvASpAVISoEFkZkruhMUblh+8frgKiMiQiArZPVJnYPhERkTfLycmV3fv2F0xhRlsGicnJhdaT/+E5NlUmnmNXvIB8g1mmEuBQ5ebmFpqIXA0VHW7N0hMrPiIqCdsncge2T0RE7pUbv1vyM9PMJXIlBMJbXNZTduzaY645Ve9ul8vH77xiLpGrBMU1koDQSHPJs/Ecm9yB59juxUB4OaASzMnJUZWjnvLy8tScyBmo4HDFzzrHVWeUiYjKiu0TlRfbJyKiysdAeMWa+9GnMmzMY+bSqdYsWyStzz3LXCJX8aZAuD2eY1N58Ry78jEQTkRERERERORhGAivWAePxMsNI0fLz3/8Za456a5bb5Lpkx41l8iVvDkQTkTej/3tiYiIiIiIiMiv1K0VJ/16dTeXTqoTV9PheiIi8n4MhBMRERERERGR3+l3dXe5uP355pLNdb26yUX/a2suERGRL2EgnIiIiIiIiIj8Dnp/97/6ZO/v2jVryHU9u5lLRETkaxgIJyIiIiIiIiK/dF2v7nLJhf8rKHe6oJ0qExGR7+FgmR4mMytLDsUflQOHj8pBY37s+AnzEapsgYEBUrd2nNSNq6nyydWJq2E+QkRERERE5FocLNN95n70qQwb85isWbZIWp97lrmWKgIHyySiysRAuAf48bc/ZcmKVfLV8pWybecucy15uqCgQLm4XRvp0fli6dmlkzRvcrr5CBGRZ8jJzpWcnDzJy2VTT2UTHBIowcFBEhgUYK4hIiJ38dRAeK4ESk5AkGQFBJtrvF9OTq5Mnvq0TB73qLnG+wVJngTn50qV/BxzjWdgINwBhOXSjN96erqtTJ4tIkIkLAxBIXMFeRMGwivJ/sNHZNobs+Wzb5bLofhj5trCEGiNi401l6iy5eTmytGEonvotzqrmQztd7XcffMN5hoiIvdAS56emiUpSVmSkZatgt8IghO5SkBAgAqKh1QJkvDIEKlaLVSqhPpOAISIyBN5QiAcwe7EoEhJDo6UjMAqKgCOQDh5FwTDERQPz8uU2OxkicxLN/4VKycU5PeB8Jwckf37RQ4fFjlxQiQjQyQz03yQvEpIiC0gHhUlUr++SN26tmXyaAyEu1lGZpZMe2OWTHtzluTm5plrRc44raF0u6SDdPpfG6lTs4YapKN2zermo+QpsrKz5fDRY3LwyDH57Lsf5djxBPl65WpJSkk1txA5q2ljefiOW2RQ7x7mGiKiipGZniMJx9IkJSmTvb7J7RAUj44Jk2o1wiU4mEERIiJXq6xAeJ4EyNHgapIQEi1pgaHmWvIl6C1eLSdVqmcnStW8dHOte/htIBzB7x07RI4eNX7c7LDis2rWFGnYUKRxY/YY91AMhLvRnI+/kMeee1WOHDuulsPDQqV96xYy+b6R0rL5GWodeafvf/ldPln2vXy4+Btzjai0KS9NeFD1FCciciUEvpNOZEhKInuPUOVDQLxqTJhEx7CXOBGRK7k7EJ4ZECIJIVUlIThaMowy+YfqOSkSm5Mk0bknO3dVJL8KhGdni+zZI7J3r0h8vLmS/EKNGraAeKNGIqG8oOhJGAh3k/HTX5epr88yl0RG3thPxgwbJDVjY8w15At+W7dJXpj1nny76je1HBkeLrOfmyR9ruyilomIygMtdvzBZEk8ns70geRx0Cs8rm6UCooTEVH5uTMQnhIULntCa6tgOPmfAMmXGjlJUi/zqOotXpH8JhCOlCe//soAuL+LiRH53/9sc/IIDIRXMOSVHvrAOFlg9hS+pH1beWbsPdKs8WlqmXzTlNdmysyFn0licopafnrsvTJm+GBVJiIqi7TULEmIT5fUZPYCJ8+FXOKxceFSPS5SAgM5wCYRUXm4IxCONCjxVWLlcHCs5AYwzZW/i8lNlVpZxyUyL8Nc43p+EQjfvVtk2zaRxERzBfk15BBv3lykSRNzBVUmBsIrWJcbR8jKP/5S5SF9e8mLj9+vyuT7tu7YJSPHPSUbtm5Xy4+OGiaT7rtDlYmISiM5MVOOx6eqnOBE3qBadQTDI1TaFCIiKpuKDoRnBYTIkSoxEh/Mnop0UmRuhtTKSZCYHFunLlfz+UA4AuCYOAAmWWFgTQTDMQXyomNl4tGvQMMfnlwQBB9/920MgvuZs5qeLstmvyq9r7hULT/12kx595MvVJmIyFnIB370UAqD4ORVkL7n2OFUyc2p2NuriYiobHIlUA5XiWUQnE6RGhQmB4OrS1KQHw5oWV4IgG/YwCA4nQr54jdtEtm61VxBlYWB8ApiDXqOvX2o3HfLjapM/iUstIrMfmaidPpfG7VsvThCRFSS9NRsSYhPk+wsjixP3gcDuh43vr9EROR5jlSJlaPB1cwlosIygkLVdyQtkIP8OU2nQyEqzj//iOzcaS5QZWAgvAJ8vPQ7mfDiG6o8oEdXGXv7zapM/uuNJx6RhnVrq/LQB8ZLUop7RuQmIu+VlZkjCUfTJD0t21xD5H3wHU44mm4uERGRJzgaUk3lBCcqTnJguMSHVJesgGBzDRXp0CGmQyHnoGc4viv795sryN0YCK8A096YpebtW58rb055VJXJv9WrFaeC4bDnwCGZ+vpMVSYiKgp60yItCpG3O3oomal9iIg8RG5AkBwIqSH5ARzQmEp2PDhK4kOYPqdESHfBgTHJWSkpImvXGhUy7/qtDAyEu9iMDz6R9X//o8qP3nGrmhNBx7at5d6hN6jyc2/Plf/28gogETmWlpolSccrbrR+InfCsOwnjrNXOBGRJzgQEquC4UTOSgyOkrQgpkgp0o4dIvHx5gKRk9KNc2N8d8jtGAh3oby8vILe4H27dZFL2rdVZSJtzLCbJCa6qipPNb8rRET2kk9kSA4HGSQfwjsciIgqX3JQhJwIjjaXiJyTGRAiCUH83jiEYObeveYCUSnt2WPrHU5uxUC4C73y7oey9+BhVR59KwfHpFNVjYyQMbcOUuXZH30u/+4yKj4iIgsEwJMSGDAk35Kfly8nmCuciKhSJQVHSg57g1MZxIdUUwFxsnP8OHuDU9klJNiC4eRWDIS70Fc/rFTz67p1kXPPbKrKRPbuGjJQoiLCVfmrH1apORGRlhCfJvnIJUHkYzDwawYHfyUiqhSZgVXkeJDtzlSi0sqXADkRwl7hp2BqCyovDLTKv/3cioFwFzly7Lj8sPoPVe52aUc1JypKt04d1FxfPCEiUoxzIAYKyVfhAk9GGgfNJCKqDCmB4ewNTuWSEhhmlkhBb96jR80FojI6dozfIzdjINxFlq442bP3yosvNEtEjl15iS0QjosnuIhCRAQYJBO9Zol8Fb7jRETkfilBDGJS+eBiSlogB80sgOBlbq65QFQODIS7FQPhLvLVclsg/IqL2kt0VKQqExVF9wgH60UUIvJv2VnedzKdmHhCnn1hslx8eStp3qq2tLmwidz34AjZuGmdLFn2uXrM1+3Zu0t9fnx2fGZ3wLG2Tt5ynDFgJgeCJSJyv5SgCLNEVDZ5AQFqwFUyoUc4kSvs3m0WyB0YCHeRPQcPqXnrs5upOVFxcLHk7DMaq/L+Qxxcg4hsvK03OILg1w/pJe8vnCPTnnhZtm04LCu+/kvq120g/W7sJqMfGmFu6dsWfDRX4uMPS1paqsyZ96a5tmLhWDdpfKa55F288YIPEZE3ywgMlayAYHOJqOyymV7nJKS0IHKFbN4R7E4MhLvIwcO2YGbtGtXVnKgk+rtyMJ63wRCRTa6X9ZSdMfNl2fnfdrlxwFC5uGNnta5atRh5cMx4mfnmArXsDwb2HyJxcbUlIiJShg4eaa6teFWjvHPQM2/7nhMReTsGL8lVcgJCzJKfQ0qUzExzgaicMjJsE7kFA+EugMGfdDCzTlxNNScqSd1atu/KwSPsEU5ENjnZ3hUg/OPP1Wq+/+A+NbdCYPyqbr3NJd/WqOHpsur7DbL2153So7t/fOby8LbvORGRt2MgnFyF3yUTgpbsxUuuxEC42zAQ7gIHjsSrYDjo4CZRSfRFkwPm3QRERN7aU3bp145zgffrc6NZEvW4Naf1gEFXyapfVhRah0lztP34yQ+oPNxYvqr3xSoPuT2ka0GOcr3dsJEDC21nfU1M2Ac8B6+PZeT41mXrhHVgv8+O9lP7YOG7BbnTse9F5UwvaZ9Bb6PfB+XklGTzUe+Sm8tAOBGRO+UweEkukh3IFDsKg5bkavxOuQ0D4S6QmppulkSqRUWZJaLi6UFVk1PT1JyIyNsChPXqNTRLIu/MeU0FfRH81dArHGlSAPOB/QarsobHpz8zw1wqzH777Tu2SdWoaNXrGj3NkZJlyPC+hQLGOmc5AvMjh98rv6/cJn+t+0Nth8cA66z27tutBrvUNm9ZL2+//oG0btnWXCMqF/fC+UtVWe8zUqF8+9VvDj8X4DUnTnlI6tWpr/J5X3lFL3ls4mjz0ZOc2WfQ22C/8Hq4yHDo8AHzUe+Sk8VAOBGRO+Xxz35ykUymRrExO0ISuQwD4W7DFpGIiMhDeNs59Zh7HlV5sTUMGIngr31AXEMg2150dDWzdCrr9pGRUQVB9WE336nmGJzyxVenqjI8/9IUFSDHPt0+/F6Vr/zMps3VdngMsM5q377d0rLFeXLPqLFq+dxzWqttnpv2hloGvKY1WL533y4Zdfv9KiUKOPpcCFpbIYD+0JgJ5tJJzuwzjiW2gT69r1dzvB6280aBQQFmiYiI3IEhO3KVoHwOeK0wEE6uFsKLTO7CQDgRERGVCQLBc99ZpHpMW+mAOFJ8WHs1lwd6VmsIXGtIVaJ9uWSRmjsKEP/x569mqTAdiEdgGT2tdY5vfDas06yB7c++/EhuGHCzueRYUlKimq/f+JdKl4LjgOfoYL7mzD5/t3yJmkPDBqeZJSIiIiIiIioNBsKJiIiozBCUXvr5Kpn4+DMqXYgVgtQTpjxkLlUcvA9SpKAXNSD4rHNpowy6R7U99AAvyhVdepglkXkfzFRzvM//zr9QlYszsP8Qs2Tbn87d2p6S99vZfUaqFCIiIiIiIiofBsKJiIio3NDbedX3G1RA3JouBT2prWlFKkpiUuGe5+jdbT+VFj6T/izo5Y7A9UeL3pP+fW9S64qDHuU4FhoC3sj7be3B7uw+62A5ERERERERlR0D4URERFQmSH1iD8HjFV//VShdijsC4RXl0k5XmCVRQfD9B/YWSs1SHBwL64UBBLQfHnePKhMREREREZF7MRBOREREZYLezY6C3Bjw8e47HjSXjOXowgNUuhpyebc8t3Bw2trzujz0wJyAfN7t23U0l5yDYDjyqFt7lmvO7rN9DnYiIiIiIiIqPQbCiYiIqMxuv+smhwNi6rQfrVu2LehBrQemtNKDSpYkOSXZLBXuYa4HtETw3Tq45cefvm+WbJ59YbJZKh3su859jh7d1/cvfpBMDe+3ZJltgE28xpMTp6uyNW2Ms/vc5dIr1Rw2b1lvlgofk+SUJLNEREREREREjjAQ7uGWL18u0dHRxU7t2rWToUOHyn///Wc+q+IkJCTItddeay5VnE8++UTq1q0rzZo1c8vnsrI/vuPGjTMfISIiexjQsWffS+SDhe8WBMTRs/mZFyapoO+4R6aqdXBVt95myRbExfavvPGsucbGUVAdDh0+IOMnP6DK78x+Vc3hvrseMUu2sg40Izc59gneeuelgsEr7V9/777dZqlog28YpuYIWiN4bc8ahLYGpx+bOLpgH/buswXvr+7RV801Z/Z5xLB7CoLxGLQTnwHb4ZhoCz6eV+ZgPxERUWVpXz2kyOmVCQ+bW1UcvMdvP3xrLnkO7JM7Pj8Rkb9hINzDdenSRZKSkmTChAnmGpvPPvtMrZ8+fbrs379fFi1aJK1bt5aZM2eaW1SMW265Rb1vRXvttdckNTVVDh06JLNmzTLXugc+HwLwRERUPKTs+H3lNpn2xMvy3fIl0r5Tc2neqrbKg43c2sgVbs2nrQeQROAXAfQxY2+Xa6/ubz5qg9dw5MymzeXss1rKxZe3UkFfvPfMNxcUen2UkYZE97KeOOUhlce844WXqvcG+9fHNiUFkHUA/7prb1RzKzwX+6Phcw0YdJUqoxf4vn27pc2FTeRNBLb7DZbJ459Tj2nO7DOC72+8NFf1rkdqFVx4ABwTrBs+dJQ6Fg+OGa/WExEReYvfj2fLkzPnm0s2Lc5vL9/tOCx3T5pmrqkYW9aukXmvPG8ueY6khOMy6U7bRXgiInKtgHyDWaYy+mfnbjm323Wq/PuiuXLG6Q1V2dXQO1lDIBxBckCP5ZdeekmVIyMjZcuWLRIbG6uWXUm/D3qgo6d6RUKP8LvuukuqVq0qX3/9tTRu3Nh8xD1wbNesWaPK9957rzzxxBOq7EovzflAJr08Q85q2lg2LvvIXEtE/uyfjUfMEgGCzO/MeU2VEfBdOH+pKpN3i60ZIXF1o8wlIiIqSm78bsnPTDOXyu5gSHU5VKWGueSZ0ANcG3z3/RUeBEew+ZpWTSUtNUVe+WSJXHBZV/ORyndr14tk05+/u+U4lFZQfq60SttpLpVNUFwjCQg9mSrOK8XHi6xwzXg0RErHjiL165sLVJHYI9wHXHbZZWZJVC/qtWvXmkuuYw22u8N1110nBw8elH/++cftQXAiIiIiIiLyTegJPrz7JSoI7kkQnL/7uh4qCE5ERBWDgXAfhR7NjvJco3czljHX/vrrL5X3G+uRlxv5xpELXMNj1iA4ekrr13WUwxzwmkgvgtfTOb6xDq+N9Xpb+/eCovbdfj2eiwnvgWXrZ9Lw2tZt8FmwH1Z6G+vruiP9CxERERERERUNebKtecMHXNBCretxdiO1jN7TCCDbmzr6DuncMFZNi2bPUMvIu43pzmu6yq7t28wtRQWf8Vp4Xbye9f10nm48H8uYA17Huh0msF9nn38cy/gM+nGUsW7ffztVcN66PdK2YBvsExERuQYD4T7g888/N0u21Cht2rRRAWr7PNdIN4JAL2zcuFHNERTu2bOn2n7FihUyf/58lW8cPbI1pGGxBpmRGgWBYkwITs+ePdt8xEYHmpOTk1UPdQTC8fqdO3eWEydOyG+//abeC/BeXbsWvg3N0b6D/fpNmzapHOkDBgxQy9gPa450BLjx2niPBx54QHbv3q3eG5/XGnzX2+jPNWTIEJV3nYiIKpf9IJRFDaRJREREvgmpQfrcPNxcEjlyYL9cfm0/Gf2UbcwN9J6edv9dqqwh8P3pu+/IdbfeLiv2JkjSiQS1DEiBgnVWSI2CXOV4r1nf/iynn1l4PJFvP10oUdHVVHn7pg1qjtexz20OyG1eFOwXgu74DNgOnwsBeayDhb9tUvnRNaRGwX5hn4iIyDUYCPdyCPwuXLhQlREEf/XVVwvyg+ugN/z8888quD1mzBi1XcuWLdX6ESNGqGA1Atpt27ZVc0CvbwTOnWGfjxzBbrzW8OHD1XshtcmUKVPUYwhE68c1pD+x76Vt3Xcr6/qrrrpKvbd13ZdffmmWRCZOnKheG/tw//33q23PPvts9XnxGOD4YRsYNGiQmuMYYDsiIqo8jgahxECXq35hPkYiIiJ/ooPQ0OSsc+ScNu0kOubk36C/fFt4DJEfFn9mlmyGjh4rV1xbeHDu4ljfb+0vK6VrnwFy830PSURklJzZopX5iPG3qWUftOjY6mapMPRaf3n8WFXu1u96tV3vIcPUa2IiIiL3YCDcS+lUJqNHj1ZB21tuuUV++eWXQj25rXSwGMFg5N5GqhMEn3UQWAfGrX766SezVDoxMTFqjgEm8V4IhCPIjIA0Br90BMFxV7CmNNEXCBwFtXFhAKyBc+YiJyLyHA+OGS/bNhw+Zbq4Y2dzCyIiIiI5Jdd3alKimiO1iE5l8tSs98s0IGakGRRH4Bo9yR+Z/oZaLq1Fc94u2E8daEdAH6+JqUHjJmodERFVLAbCvRTSlej0JEgZgsB2cYFcR4HuH374wSyJej6C5dbe1Tp9SmlZe3trw4YNKxj8EqlSdM/zioIgP3p+gzWnOcqgLwCghzoRERERERH5hl433myWRKVEQR5uR3nEndHM0gO8PP5c9aNZIiKiysRAuB+z9sK25v22BthdCXm50ZMd06hRo8y1FcO+h7n9Z8MEOlhORERERERE3q/vLSMKpUJBHu7rO55X5mC4K+he6kREVLkYCCe3QC/wCy64QAXX+/btW2QKFyIiIiIiIqLyQCoU6yCbRw8fPGVQzcqSwqA4EVGlYSDcj5133nlmyZY+pCIhl/mhQ4dUeciQIWpekdq0aWOWbIrq3d6sWTOzRERERERERL4C+bwffv41c0nk0N7dZsn92nTsZJZsA3ASEVHlYCDcj6FXNgaw1GbOnGmWbGlMnn/+eXOp/OwD0Xj9ioRBQa15yOfOnWuWbMaNG6fmV111lZrD2rVrzVLhQTetZSIif/bsC5OleavaTk8DBtnq2D17d8nFl7eSNhc2kSXLPlfrKlti4gkZNnKgueQenngciIiIfM3d1/WQff/tVGWkSdE9w/XAl65SNSbWLJ1UVPqVPkNHmCVbqpbffvjWXBK1r1vWVmzHNCIismEg3EvYB6Vffvlls1Q0awB37969ZqmwKVOmmCWRxx9/XA0yiSD1Cy+8IPfff7/5iMhll11mlmyvi+104Nw+qI00KPasAXcEnDEhL7lm/xpFBaIdlYt6fPz48QXvu2jRooL9xbG89dZbVXnMmDFSp04dVX7rrbfUfmC7/fv3q3Uwe/bsgsA5EZE/e3DMePl95Ta5uGNnc43Ntg2HCyY8PvHxZyQi4mS9v+CjuRIff1jS0lJlzrw3zbWVa8zY2yU5+WSb4Q6eeByIiIgq27efLjRLNugxbQ0oW1OJ6HLSCbu/Hy3bIx/3mOuvKQg2H9hj6wl+zU1D1RxanN/eLNlea+roO8ylwu93cO8es3Sqc9q0k5q165pLtn2wT7+i97NB4yYy+O6Tf18///BoFQDHc15/4nFpcHoTtd7acxz7sWj2DAbJ/dhD770nAQMGOD1d+Nhj5jMrhv3+VPT72ftm/Xq1D1Z6n9y9L+S9GAj3cOhJHR0dLZMmTTLX2Oj1RQVo0Rv6n3/+MZdsgWBrD2lt2LBhKtCLFCEYOLJnz54qjQkCxFZ47oQJE1RgGa/77rvvqudiP2655RZzK5vWrVuf0gMcAXc8FxMGssTrYcBMHaieN29eQTDcft91INrRehwDzDU8rj9n27Zt5auvvipYxufCQJ0I6jdu3FitQ8/xDz/8UAXlkboFeczh7LPPVuvuvfde+eyzz+SJJ55Q64mI/F21ajFyVrNzzaVT4fEbBtwsc99ZZK4RGdh/iMTF1VbB8aGDR5prKw96tq/6ZYW55D6edhyIiIgqW/vqIfLYsEHmks2mP3+XK5rWllcmPKymT999x3zE1pva0XOwvdULH34hn8+brbbdsWWTSpHStc8A81GRyTPmFQTDpz/6gPQeMkyVb+16kXoP7bvPPlLrivLc+4sKguHDu18il119rSpr2E8dkL970jS5c9wUtT3e46ZLzleB84eff1WiY6sXbKMH+vz64w/VHAF38k/P3HSTHJs1Sy4480xzjU3+woUF07+vvCIPXnON+UjFwv6MuOIKc8m9jqekyNDXXzeXTnr2iy/U/Lft21WgnKgkAfkGs0xl9M/O3XJuN9vgj78vmitnnN5QlYmK89KcD2TSyzPkrKaNZeOyj8y1ROSLcnJy1Dw4OFjNi/LPxiNmybMhkPzOnJM5N9ET3JHxkx+QyeOfM5c8g3XfW7dsKwvnL1Vlcp/YmhESVzfKXCIioqLkxu+W/Mw0c8mxnJxcNQ8ODlJzRw6GVJdDVWqYS0RlF5SfK63SbGlnyioorpEEhJ68c9DTZGRkSFhYmLlUhPh4kRXu61SBXs864AsIgNub+umn8vmaNfLrk0+aayqGdV8QoK/o99PQ4xvBbgT9EZDX9P64c18qRMeOIvXrmwtUkdgjnIiIqILt27dP3WkyZ86cgqC4r7rvwZM5MBEEt88rrvOGA3plWx/D9MHCd+Wq3herMvJpb9y0ztz6JOTXtm6D93AGcoJbA/jrN/5V8L6O9gXs11l7kuOzWB/DZ8eEHOBYxoUArajjYL8enwvr8Ln0dshnboV90J/f0WQ9xkRE5Nv2HzokLS7rKXM/+rQgKE5EZXf33Xeru97//fdfc413uL1rV7PkW9ATvNuTT6oguCMIiuPCgFcHwcmtGAgnIiKqYEgJhZNpnFQjPdMrr7yi0jH5GgRsf1z5nblkg7ziA/sNNpcKQ67x6c/MMJdO+nDuYjVHPu077h2iyhoC5aMfGiHJKUkqH3nvnv1UcNuZYPjMNxfI8KGjzCVbj3Cd27yofcF7FAW9yZs0Pnmr6rZ/tsikx5+Rq3v0VcsLPp6n9heKOg726w8dPiDdr7xGHn3QlpILwfoJUx5SZcBFAAT0d/63Xcbc86jaP6RbAcyxzF7uRET+40RisuzYtUeGjXlMuvQfIi+/M1f2H3J8pxYRlezo0aOq8wpSrWJssSVLlpiPeB4EiXXO7OpRUYWCwdZc3nrS22Ku1+nc2nit22fMkLNHjy702B87dqjHi2N9Pf08pCmxrsNkD689cPp0qXf77QXbYBn7AjsOH5aLxo0rlPIEvb+xHd5DP0dP9qlRsF/6tTHXn9/Kft/x+a3Pw/vo/SHfwEA4ERGRG61atUruueceGWCcWL366qty2DjB8wV79u5SA1BiIEh7VaOizdKpoqOrmSUb5BdHnnENwXDdKxzv8cwLtjEzBt8wTG3X4cJL1DKC4fY9p0vLfl/Aui+OVI2qapZEulx6pdre+nm/W37yj6eijoN1/ZlNm0vLFucV2hfrxYWnnj05Nsjtw+9V79eu7YVqGcfqw49sgXciIvI/q9eslfsnTZMb7hjDgDhROSUnJ6vxyHDOPnToUFm82NZRw5MsXL3aLJ0KucOjLClekNtbpxTRub6vbN1aljzyiAr0nnbnnfLln3/K4ocfVnnJ68bGql7YXSZNUgHp4jjKHY7X/vC++8ylUyFo3d547xNpabLp+efl96lT1Xp8JgS/oWnt2vL39OmFcqQjNYruAY79LAoC6giat2zUSG2POZax3sp+3/cdOyb9O3SQ6TffrJZxDO54+21VJt/AHOEuwBzhVBbO5ghft26dGuiTiLwXcg3++uuv5lJhZ5xxhjz22GNyk3EStvPv4+Zaz4be19YUI/bsc4Zbt7fPy400H+jhrOnnIsWHhp7c6LH91jsvyQsvP1VonfX56NHdo3tvVS6Kq/ZFQxoS9NoG9DZHD++i3qM06x3tCy4I9Luxm7nm5P5Zn6/3wZOVlCMcvbAwKDcRkb/Lz84QycszlxzLyMyU3/5yPEBc09MbyaP33C6XDbhZjkYUHkySqCyQI/ylkTeYS2UTGBZpvFDx4+bY27Vrl1mqeFu3bi3yzs1rr71WJkyYIOchl3Ml5whHIPm655+XO668siDAbe/Nb78tCOIisH3grbdUGZBu5PXhw1Ww2fr6CF4P7NhR9YTW6UieuuEGeaRPH1W2bmvNy+1oPfYR76NZc5vr10ewft2zz6r9QA9sDYHx/zVtqsrWfbHPEW59ztfGdgjAL/jlF7n+xRcLrbPuyxu33SYjLalkStp37GPy3LmqXGGYI9xtGAh3AQbCqSycDYSvMBpYpFIgIt/2wAMPyG1DHjSXPJs18Ao6SPviq1NVAFcHaLWiAsBQmuAztsP2RXEmCOyqfdEYCC+9kgLhEydOlEmTbD3/iYio/G4YNEjumf6OBJUwaDdRSRAIP79GCQNJ+rg6derI0vffl/OOHjXXVDz7QLiVfWDYXtUhQyQlI0OVdXAZPbzvfOcdFSQGpCjp/cwzkpyeLu+MHHlKINz6Hq4KhCNI/+C8eVI1PFxWTp58SiBcB7ChtIFwvCfe27rOui9Y1p8dSrvvFYKBcLdhINwFGAinsnA2EI6r3+gdR0TeKzExUV40eyXYK+hZct558s/GI+Zaz2YNvIIOyCI1Sc++l8iq7zeoZa2oADCUJvjsKOhcWq7aF82dgXDAIJpIgQJ6HQblRD5ysN8/T1RSIBwXgDEREfm7/LREyc/JNpccS0xOVmlQHLm0Q3sZN/pOaXZJdzlUpYa5lqjsKqtHuDshjaGjgTIRAB87dqyMHDlSwozfnTf0CAekAtEpVAZ06CALRo+WqZ9+Kk1q11YBb3s6SP7Ltm0FAfSKCIRbYbvxxmM62A3lCYRbg/+OAuFg3RcGwv0LA+EuwEA4lYWzgXAi8n5IcdSmTRtzyXYi3b9/f+nXr59ccoktxzV4eyAc7ntwhLz4bOFBJ10VfHYmEG7dxqqkIDV4QyAcg2VisFDAYJnX979ZXXxAcPyqbr1POfaeqKRAOBER2eTG75b8zDRzybH1m7dKu+62QZqhVs3q0rdHN7mu55XSueMFat3BkOoMhJNLIBDeKm2nuVQ2QXGNJCA00lzyPH369JHPPvvMXBLp2rWrOm/HFBNjjh0TH1/pgXBAr+qdhw8XGwhHb2/k4gad4gOBZR3AttLvg5zZ63fvrtAe4YDc5De89JLaDilZdDoTKE8g3NE6BsJJ42CZREREFazgpNmAHuBLly6Vl19+uVAQ3FdUZCD2rObnmiXjpP5Px4MDIYiMoLH9VJbe454IOdA/fv9riYurrfKlt+/UXA22OfHxZ7wiCE5ERK4VU+3koM29u10uS957R155clxBEJyISkeft6PjyvTp0+WLL76Q2267rdD5vKdAD297CI5bIRUK8oMDekmjN3jr005Ty1YINiMYjG3fGmHrdFGR0PO8xf33q4AzPoej3ulEFYGBcCIiIjdAAHzt2rXyqXHyiTQoVHr9+57s/YFe2Hv2nhw4CT2oMZVHtehT/8BBuhdPgv156LG7ZNoTLxcE+Zd+vkpuGGAb2Z6IiPwPAuBrli2Sj995RVqfe5a5lojKQgfA//vvP7nvvvskLMxzc6JXj4oq1DsawWX0ELd3d/fuZknkKeNvkeGXX24u2SA4rntc39Spk5pXNKRfOZiQoMrDunRRc1fRPcmLgl7f5L8YCPdgy5cvly5GhTBu3DiJjo4udmrWrJkKsvz116m3g7sT9rm0++Ho8+gJn784jp6jp+Ke62h7HMPi4DM5eh4mIqLinH766T4TAEcgdus/m80lm7feecksOZackmSWUE42SzZJSYlmyQavbx981tu0bHGeSv+h3X7XTWpbBMQ3b1nvVG7sDhee7IWPfcEAlB8sfFct4/XR01rDa0+Y8pC5ZGO/v9bPoz9nUZ+3NOsdHRfA/uz8b7vDoD0REfmf0xrU98gA+L7/dsrU0XfIgAtaSPvqIWrqcXYjefTWG+XbT20pBu6+roeal9dvP3xb8B56wrrycPSa1umVCQ+bW56qrM8t6nk4ZsWZM/1ph8+7tetF5hZUGlOnTvX4ALgjSDPSa9o0lfvb3gBLb+sGNWqoXuJWn69ZY5ZOSkwrPi2TvdjIU9PdJKSmmqVToSe4FfbfVfq0b2+WHBva2bPH06GKxUC4h7r33ntl0KBBanriiSdk9+7d0q5dO/NRm6SkJFlvVB59+/aVQ4cOqSB0z549KzUYjuBzy5YtpbNRscycOdNcWzx8DgyKFWmpOHEVFp8Nn6k4ZX0unjd79mxzyUYfw6IgjYH1fQDvjdciIvIHyGWNVBz2Pa+RogN5tB31yMZz9ECOgCAu8moDttf5rjW8PiYrbKNfG+k/kIsbAWu8FvJjL/hortw+/F71eEkQLEdu7YiISPX8jxa9V6g39RsvzS0Ihl8/pJdceXlPVdas+4LPgdfQ8DlxHBx93qKOg6P1eA1HxwWWfv25mve7sZvazjpd1fviEi9KEBERVTQEevue31w+ffcdiYquJnO+Xy2/H8+WJX/vkcuuvlbenmacT1Qvf7Bau+CyrvLdjlN7wZYHXhP7/PDztjE8NP1ed0+aZq45VVmfq5/X5+bh5hqbX75dKkkJx82lUy358OR5BNSsXVe9z6xvfzbXkDdDgPinv/82l2yQ91vD40iHctG4cbJ1/35pUquW+chJTWvXLuglPcRBasZqERFmSVRucLz+JWefba4pHBQvqmwNtmM99mviR4XHQrMGu5GvXPtz505ZY7yntae2NYhuvy/4vNhH++C5fs7Irl0LPu/zixcXmuM98LiVo89kH8S3fy/yXhws0wVcPVjm0KFDZdGiRWqABmuvZvQMf+mlk3/gWgOwCJL/888/qoyezWscXNFzJ72vuKVo2LBh5tri4bPq/cbnKSkIblXW5+J5fxuNSqpZyeGiwpw5c1TZHl4Xvb/Luo/2OFgmEdnzlsEyqfJgAE1HFxyskC/ck1OlcLBMIiLnODNYpjPcOVgmei9/95ntb5srru0vT816X5Xtobfypj9/V4FfV0FwXXvlkyUqsOwK1tcdfPf9xQbB7ZXlubhA8N6r0wtdKEBQve8tp+Zt3rJ2jbz3ygsFxxxKu4+l4Q+DZTrFTYNl2g+S6Yxjs2aplCn2EDy+4+23HT6OoHLvZ55RqUqQr/uN225TgeBO48erdWfVry9z77pLPlq9+pT90YNLAt7jwXnzVC5yBKI7n3OOPPrBB+oxzTrQJ7aFO668UqV4WfDLLzL8zTcLnv/BvfcW7OvA6dNlofH+CKA/O3iwCmZbB8XUrINs4vi9t3Kl+gzIfY60L/YDi5bmGFfogJkcLNNtGAh3AVcGwj/55BO55ZZbHAZZiwuEF/dYZUFAHr2s0Wu6bdu25tqiVVYgHD3Yrb3D0fs+1qgkrdC7/cSJE/LVV18xEE5EFYaBcCoJUqSgF3x8fNE939Bj3pMHB2UgnIjIOd4WCEeKjtefeFyV0SsZPcCLgh7O17RqKiv22nIEu4IvBcJ/X/G9rFy2WHZt36bWnX5mc1n42yZVtsKFh5vuHiNDLz85aCID4W7gpkA4+REGwt2GqVE8SEJCgtx1112qPGrUKDV3FQTYkbu7bt26qlcz5gie20NKFjyGCcFfLNsHe/FaCALjdRDsdvQ6cNVVtlvfH3jgATX3VPfdd59Zspk1a5ZZOmn+/PmqtzgREVFlQRAc6VqqRkXL7yu3FQyWqSekfIHo6GpqTkRE5C4IbM954WTwtVP3wqnF7EXHVpeOXW1/L1qhhzNyhyOAjAllrLOHdehVjm06N4wtNmc3IC+5zleOXOUlbe8Jrh95j1kSFRC3Pw445v9u3iDntCmcQpWIiIrGQLgHQToUnaIDPZVLY8GCBWbJlt7DCoFq9DJHz+eDBw/KhAkT1PugBzkC3RoC3+gZPXz4cLUdekDb59HGNngt9DhHz+mBAweq13EUDO/d2zagGXpQV/YgnsVp3LixCuxrb731llmywWjRCPpjOyIiosqSmHRC5RA/dPiA/Lz6R3OtDQb9/HvbZmnS+Ey5vr/npkUhIiLf9N1nH0ta6skcul2uKbkTkX3aFAR677ymq+oRjbzimFDGOmsQGANxYh1Sq6D3M3qVV40pfEev1aLZM+SxYYMkxfgbFrmzrxpwo8x75XmPD4ZfcW0/iYg8eQcVUqBY4Zj3uH6wuURERM5gINyDoNcxYEBG+9QcRUGAGT29kYIEEKRGXm4rnTJl6dKlat6mTRs1h4WWHEdffvmlWbK5//77CwXVERB+/HHbrW6333672sfLLrtMLeM90KPdyvo+7777rlnyTBiUVLMfNPPFF1+UwYN5gkFERJWrUcPTZeabC+TSTlfIU8+OKzRQ5hNTH5H6dRvIh3MXS7VqMeYziIiI3GPNysJpIooLTBdl4sihKpje4vz2qpczJpSx7oEbT/5divQrOujeZ6gtb/bQ0WPV3B6C5i+Ptz02YMQo1RO9fefL1TKC4cUNQlnZ7HvN2w+a+eGbL0vfobeZS0RE5AwGwj2Izj19tmVE3OKgl3Lnzp1V0BbBc/Tunjhx4ilBdATHAdvb0z3QQecVt/YUx8CRune6tce6Ncit2adQse7Hxo0bzZJnwoCeOIba3LlzzZLIzz//LNddZ8sBT0REVJku7thZXnx2hqz6fkOhtCgL5y9VecEZBCciospwaO9us2RT2nQd6PGt82E7cvTwwYJe4QgIaw0aNzFLjmEQSR00P/u8U8et+m3Fd2bJMyH/t4bPgV7ggAB/7QaNVLCciIicx0C4F0PgGpNOX4IA9mmnnXZKmhKsx3YIVCO1yciRI81HCrP2isZrIl2ItZf3ypUrzZKoXugIrGOurVu3ziyd6u+//zZLnmuAZcRhBP3x2ZEP/aKLLjLXEhERERERUUmQ0qQ0MDhkSb7/7GMVDNeBbWf8uepkKjGdexxzbes6z03hCbiggIEyNfQCh3kvPyvX3DRUlYmIyHkMhPsA9FaeMmWKuWQLfCOAa4UUKghsI7XJ2LGObxtDr2hrKpR//vlHLrjggoJguO4xDugxrgPxenriiSfMR09l7Xnuqe5zMGjmvHnz5OabmWuViIiIiIioKG06djJLZZN8onCazaI4u52WmpRolkTlE//9eHah6e5JJwf49FSOBs1cuewr6drnZEcuIiJyDgPhPsJ+cE1rvm8ExXv27KkC2wiYFzfoI1Kh6FQqgHzZo0ePNpfKzpp2pLwQmHc0OKczinuuo0Ez9+3bJ23bnnoLHREREREREdlcfm0/s2TjTA9vX/PtpwtL3RNeK+659oNmIl96p+49zSUiIioNBsJ9hDWFib277rqroEc2en2XBD3KrQNu7tmzR81btmyp5oC82aXhbN5zZ6CndlmV9Fz7QTPvuOMOc4mIiIiIiIgc0QNbaksXvm+WiqZzfoN9IN0RDHJ59nnnm0vOObNFK7MksvaXk6k+K8IX780xS6VX3HPtB81EvvTB9zxoLhERUWkwEO5BdK/usuTT/vTTT82STadOtlvTkBfcPi1JUUFz5Pv+77//VBkBc/tBNq0pQjCwp94W8D72g2Va38caRC8PvOZzzz0n5513nrnGec48137QTGuqGCIiIiIiInJs8ox5BT2XEaydM/1pVXZk0ewZ8saU8eaSLZBes3Zdc+lUeOyCy7qqoLA14K6D6UkJx9VcSzJTqPQecrIj2KY/f1eDTGrogV3WHtz29GuVNlAPzjzXOmgmcoaXNEgoERE5xkC4B7n66qvVHIFr+2A1lu17Yettnn/+eXnnnXdUGRC81T2/Y2Ji1FxDsNo+NYp+HeT57t+/f0FAe/du28jfgwcPVnOkCLEGhrEtnouA+Nq1a09Jz4J1Wkl5tpHDHMF1DSlJ7I8BUrx07dpVHZ/Y2Fhzbdmfi+OGiw72Afzhw4erOT6r9X3wOfHaGt4T701EREREROTvEJx976c/CwZ3fP2Jx2Xq6DsKBZ+RAuTWrhfJmpUr5Ml33jPX2jz3/iI1R8AaAW5MKMOE12eqOTzwzEtmSQqC6a9NfkzNtceGDVLBZQTYr7i2v7lWZMz116igOfbp73V/qeB6ceyD+f9s2mCWbPBaCOqPHWLL141AvVaW52Ld5/Nmy8pliwsdN2uPe2vOcMDntEJvfPsLA0REZBOQbzDLVEb/7Nwt53a7TpV/XzRXzji9oSqXRbNmzVRKjtmzZ6tBMAE5rZGupDh16tSRjh07ypAhQ04JSGNgS7wetpk6dap6Xf2a6P08YMAAVcbzZs6cKZMmTZJFixap7TGwpn06FTx3wYIFaj+xzcCBAx0OlKnfA3m37YPNVrrHeWmsX79eBfTL+tzWrVubSzbWfUTAG49b/w1wbKzBdnu4iFBaL835QCa9PEPOatpYNi77yFxLRP7sn41HzBI5suqXFfLya0/LwvlL1fKevbvkhZefkh9XfidpaakSF1dbevfsJwP7D5F3Zr8qV17RSy7u2Flt27xVbTV31sw3F8iwkQPNJef97/wO0rplW3lwzMleblRYbM0Iiat7MtcpERE5lhu/W/Iz08ylsjsYUl0OValhLrkHAt5I97FjyybVOxzQW7xl+w5y012jiwxAI/iN4LYO7mK7Ox6frALBVnj96Y8+oF4bgfeJb86RO6/pql7//IsvVWlUrM95ZcLDKkCM7dG7/KoBNxY7UCbe/+7rephLzsHrLvl7T5mfi2C//fMwwKfeTwTNp90/Sr7bcbgg4N6+eoiaO4LA+axvS5fStCRB+bnSKu1kgL4sguIaSUCo68YQqxTx8SIrVpgLRC7QsaNI/frmAlUkBsJdwJWBcPRcRkqSkoLH3kAH9VcYDQQHnDwVA+FEZI+B8KKNn/yAfLlkkTw0ZoLcMOBm2bhpnQwZ3lfq1K4nb736njRqeLoKjE96cqwKmAOC2ToQDlhvDW4PHzqqUMAar/niq1PVdjoQjm0QWMfr2z9fv35i4gmZMfNleWfOa/L4w0/J+wtmq8c/nLtYqlUrfGcWMRBOROQsbw6Ek29iINzEQDi5GgPhbsPUKB4GPZCRkgO9jxEU91boDY4gOAbdZBCciIjK474HR8iCj+fJKy/MUkFweGLqI6oX+GNjp6ggNWCO4DSC145Yg+KOtGxxXqHgOeYIlOvXLwqC3djuqm69pfHpTVUA/NDhA3L9kF4qSE5ERERERESVj4FwDzRnzhzVK/yuu+7yymC4TomCILh9WhUiIqLSWLLsc1n69ecq3Yg1kL1+o22Mhr37bONZWCEojTQpZXXdtTeqOYLipfHiszPUPiIwjp7rO//bLmPG3m4+SkRERERERJWJgXAPhUDy/Pnz5bXXXjPXeAekc9m4caNKh8IgOBERlQd6Uz82cbQqDx08Us3tPfPCJBUst4dc4aWBtCrPvjBZlXt0711i7/GS9OjWW82RTkWnaiEiIiIiIqLKw0C4B8MAjd6WJxz7/NlnnzEdChERlduSrz9X6U/gog6Xqrmme3zj8dEPjZABg64qFHBGr/DSBLMXfDTXLLkGeoWjFzvMnvuGmhMREREREVHlYSCciIiIPNKnn3+o5hERkacMOvnog0+YJRukSsFAlvYBcWd8sPBdeX/hHHPJdc5qfq6aY3+YK5yIiIiIiKhyMRBOREREHknnAT+zaXM1t0L6kunPzFBBcisdENdpTorzzpzXpHmr2jJxykMFPc9dqWpUtFkS2bh5nVkiIiIiIiKiysBAuAsEBZ08jJlZWWaJqHhZ2dlqHhwcpOZEREHBbJZLA8HwFV//JcOHjjolII4gN3p6FwfP+33lNpn4+DOnPN/VNm9Zb5YoLzffLBERkTsE5+eaJaLyyQ3g365KlSpmgchFzPgQVTz+xe0CdeJqmiWRw8eOmyWi4h0+avuu1LV8f4jIv1kvrJJzkDIF+cB1QNzqtbeeN0tFw/NvGHCzjBx+r7mmYiQlJZolqhLGP6KJiNwpKMAsEJVTRG6GWfJzAfxRkYtVrWoWqKLxL24XiIwIl9hqttufD8UfVXOikujvSt1acWpORBQUzJNqZyDn9lvvvGQu2eiA+Mfvf13Quzs+/rCaO+Oqbr3NUsWIjq5mloh3QhERuVdQXo5ZIiqfkHx+l5SwMJFAhtPIhfCdIrfgL9dFdK/wQ/HH1JyoJPq7UrcWe4QTkU1wCAOEzpr3wUyzVFjLFufJ1T36qnJp0p00ani6CqRXlHPPaW2WiBd8iIjcq4owNQq5BtPsmJAahYFLcpWQEH6f3IiBcBepZwYzP162XM2JSrL+73/UvB57hBORKaQKm2Wrizt2VvPtO7apuRV6e9/34AhzqbCk5CQ1v3HAUDWvLMkptv2AlueeZ5YokPfoExG5VVhupgQIx2eg8gtkE35SZMWOL0N+JN+on4PYIcpd+Be3i1zUzvYHbmJSspoTFWf12g2Sm5enyhe2aanmREShocFmieCKLj3UPC0tVRITT6iy1dKvP5cBg66SJcs+N9eISpmC9U0anykjht1jrrVBShWrz7/62OHrFmX1rz+ZJZvZc98wS45t3bZZzRHQR+oWEgmPCJHQMH7PiYjcCUHwqJx0c4mo7KJzUs0SSY0aZoGonE4/3SyQOzAQ7iI9Ol+s5gfjj8qvazeqMlFRvln5q5o3Pa2htG1xtioTEYVHVpGQKuwNoGEQy7i42qr88+of1VxDTu9tGw5Ln97XyytvPCvNW9VW02dffqQGzVz6+apCwWc8NmzkQHPJBr3K23dqroLpxUEAHc9/Z85r5hobvf7ZFyabawpbv/EvNb9lyB1qTviOh0gAB5giInK7qHwGwql8wvMyJTIvzVwiqckUp+Qi/C65VUC+wSxTOTW//FrZuWef3Dv0Bplwj+PbtYmgY/9bZOuOXXLP0Bvl+cfGmGuJiEQO70uWxAT+saqht/foh0ZI65ZtZeH8peZaz/fBwndl4pSHVG/wmW8uMNdS/dNjJLJqFXOJiIiKkxu/W/IzXRN4TAkKl+1hDcwlotKLy06UBllHzKWyC4prJAGhPpBWJDtbZMUKkRPO311IdIqoKJHOnUXCw80VVNHYI9yFel7WSc0/+7bwrddEVit++1MFwaHHZbY7CYiItMhoBgmtenTvrXp/o3e1NQWKJ0O6lWdemKTSs7zw9FvmWkJu8IioEHOJiIjcKSo3XSLyMs0lotKLYG/wwjDAYW3bnYtEZYZAOIPgbsVAuAvddK0tl+nu/QflpTkfqDKRvRdnv6/mbc49Sy7v2F6ViYg05FCOiGIw3OrFZ2fIwH6D5bGJoz0+GL5x0zq5fkgvqVO7nnw4dzFzg1vUqBXJtChERJWoZjZ7rlLZxOSmSqwxkZ169UQiIswFolKqYvzNd+aZ5gK5CwPhLoRcz8Ov76vKL8x8T05w4Eyys+jr5fLT77acsQ/fcauaExFZBQUHSnRMmLlE2uTxz8krL8ySOfPeNNd4ppnvvi5dLr3ylBzl/g4Xd/i9JiKqXDE5KVKNwUwqg5jsJOTVNZeoAHI7N2xoLhCVUqNGInXqmAvkLswR7mLoDX5G56tV+a4hA2XyfSNVmQg6DRwum7fvkCsuukCW2g26RkSkoWU+tDdRkhN5CzP5htr1q0q16rztk4ioNFyZI1xLCK4qu0IZeCHnVc9JltMyD5lL5eczOcI15Aj/9VeRZHaEpFLAnQQXXMCBMisBe4S72Gn168rYkbeo8qtzF8j8z71nYC+qWKMmPK2C4MDe4ERUHGSPiI2LkMBAppEg7xcWHiLRsewNTkTkCWJzkqV6Toq5RFS8AMlnSp2SxMQwvQWVHtLqMAheKRgIrwBT7h8ll3X4nyrfPekZWbVmnSqT/3r27bnywZfLVHnc3SPk0gvOV2UioqIgeBhXN4rBcPJqkVWrSJ2G0cwNTkTkQepmxzPfM5UoRHKkUeYRiczLMNdQkZo2FWne3FwgKsEZZ4i0amUukLsxEF5BZj87SU5vUE+V7xw/Vbbt3KXK5H/uf+pFmfrGbFXGgKrj7xmhykREJUEqiepxPnTrKPkVXMyJrRkhVUKDzDVEROQJquTlSFzWcYnMTTfXEJ0qLuuEVM9JMpeoRAiEn366uUBUBOSUx3cliOfHlYWB8ApSv3YtFQyHfYeOSPdb7pZlP/2ilsl/PP3WuzL7489VueP5rY3vxGRVJiJyVvVaERJTg6PRk3fBnQyxceFqkEwiIvI86OXbKOuIhOTnmGuITkJe8FpMiVI6oaEibdqI1KhhriCyExkpcu65tvzgVGmCJhrMMrlYo3p1pUXzM2TJDyslJTVNPlm2XKpVjZJ2Lc8xtyBfhTFocSfAWx8sUssXt2sj7z4/WWKiq6plIqLSQHoJBBazMnIkL49jXJNnQ/C7Vv1oiapq/EFIRERllp+WKJKbbS65XnB+rkTmZkhuYJBkBPLCJYlUyc+RutnHpF7WUamopGaBkdUkINhHv2+BgSK1a9tGvj9+3FxJZGjSROT880WqMiZU2RgIr2Bnn9FYenS+WH75a70cOXZcvv/lD9mwdbsaVLNe7ThzK/IlHy7+RoY/8oT89MdatTykby9Z9OYLxQbB58yZIzExMWoiInIkPDJEgoIDJTsrV3Jz8sy1RJ4lOiZMatSOlPCIEHPNSStWrJBdu3bJ6bxtmIjIKRUdCAcEPiNyMyUvIFDSA3kB059F5GVK7exjUrOC06H4dCAcQoxzIATDkfoiIUEkj+ftfg0XR846y9YTPDzcXEmVKSAfXVepwiWlpMqtD02Qz79dYa4RueHq7nLjNd3kovPPM9eQN/tm1a8yfdZ8+W3dJnONyMT7Rspjo4abS479+uuv0qlTJwkLC5OpU6fKXXfdZT5CRP7q0KFD8u+//8rWrVtlx44d0q1bN+ncubN6LD0tW1ISMyX5RIbkMCBOHgIXahAEr2pMjgZ4PXHihLRs2VL27dun2jm0d1FRUeajRETkSG78bsnPTDOXyicjM1N27Noj/xoT5scSTsiTD482HxUVCE8IqioJwVGSHMTb9v0JLobEZCdJbE6KRORnmmsrTlBcIwkI9ZMxcA4cENmzR2TvXnMF+ZUGDWw5wTEnj8FAuJvNXfSlTHtztmz/z6gMTUiVcuXFF0q3SzpIy+ZnmGvJG3z/y+/y9crV8vVPv8reg4fMtSI9L+skY0feIh3aljwS8OLFi+WWW26Ro0ePquVevXrJG2+8YdSVrCyJfB16xy5btkwFuxH41lNGxsnR+evUqSN///33KXeMpKVkqWB4UmKm5DNdClWS0LBgFfxGEDw4pOihZ3BR54YbbpB169ap5bPOOktmz54tF154oVomIqJTlTUQ/vnX38u2f3fKjt17bfNde+RQvO1vDQ1B8IdG3WYunZQdEKQC4idCqkpqYJi5lnxRUH6uCn5Xz01268CpfhUI13QwHIFx8n3G328qAN6oka1HOHkUBsIryYuz5su0N2bJsROJ5hqbmrExUieupjFVl9o1a0itGtXNR6iyZefkyOH4Y3Lo6DE5eOSoOrG0//Fc2KaVjB05VHp1ucRc45y1a9fKm2++KTNmzFDLLVq0kNtvv11GjhwpwcHBah0R+Z6ffvpJ7rjjDtmyZYu55lSzZs1SF8uKkpGeLRlpOZKemiVpqdlMm0IVLiw8RPUAD4sIkQgzZY8zDh8+rNo6TLjroXr16gVtXSP8oUBERIWUNRD+8JPPyfNvzjKXTtXzis7y7stPS7VictXmBARJalC4pASESWpwOIPiPqJKfrZE5WZKVF66ROSmSXhelvmI+/hlIBwQekPnN0zx8bZ5bq75IHk1BLtr1rRNcXG2OQPgHouB8EqUlZ0tS35YJUtWGNMPK+XwUQ6m4I1andVMelx2scoF70wP8KLk5eXJW2+9pQIEGzZsUOuGDx+uggTt2rVTy0Tke9577z0ZPHiwuVQYes1u3LjR6QtiCIIjdQrm2dnIJW408WzlqZwCgwIkCFNIoFSpEixhEcESEFD2IbQ+++wz1d7hbgjo0aOHauuuueYatUxERDZlDYQjDcqFPQfI5m3bzTWFzXnpaRnU92pzyTlpgaFqQM2cgGDVaxxzX/L3po2SlJgo9Rs1kgYNfefibIBxIhiSl63Sn2Bw1PC8TFWuTH4bCLeXkoLcccYPNsM2pbuvVz65QFjYyQnp/mJjzQfI0zEQ7kF+/O1P2f7fbjkYf1QOHDkqh4zpaIJRMZJHQM7TunE1pW7tONu8Vpy0b32uNG/i2kG/fvnlFxUMnzdvnlpGEBy95YYNG6aWici3IA0KcicjJYq9L7/8UqVLIvI1SAuke4cnJiZKvXr1VFuHgHitWrXMrYiI/Ft5coTP+uBjuf2h8ebSSee3aiG/frXQXCKtXfe+sn7zVhk3epSMHzPKXEsVgYFwIqpMDIQTeaC0tLSCAMH27dtVb1AdIEDaFCLyDciXjLQnOm+yFQbH/OGHH8wlIt/04Ycfqrbuxx9/VMt9+/ZVbd2VV16plomI/FlZAuE5Obny1MtvytRX3lRle98tnCOXdmhvLpHGQLj7MBBORJUpaKLBLBORhwgJCZEOHTrIOeeco4LimzZtkt9//12lSAgNDZVWrcqegoWIKl9OTo489dRTMmjQIDlgDprTvXv3Qr3CP/30UzVQJpEvw8XdCy64QIKCgtQFIbR3uDMqKytL3SmBNo+IyF/lpyWK5GabSyVDKpReQ0bIwi+WSl5evjSoW1sa1q8n8cdsKTh7d7vc4QCZJDLjvQVyOP6oukjACwUVKzCymgQEVzGXiIjci9nbiTzY5ZdfrnrKTZkyRRo0aCCrVq1SPcMffPBB2bFjh7kVEXmTrVu3SqdOnWTcuHEqII7fNlKgLF26VIYOHaq2wfy8885TZSJfd/bZZ8tLL70kb7zxhrRv31527twpDz30kBpIduXKleZWRERUFPT8fuGt2SovOHo1w5D+fWTtd1/IgjenS1hoqAQHB8nTjz+oHiMiIvJX7BFO5OEiIiLkkksukWbNmklycnJBb7ktW7ZIZGSk6jVORN7h1VdflYEDB6pAH/Tr108FwXXQ+4orrlA9wWfPni3R0dFqHZG/aNOmjZx//vmq/Oeff6q7oH777Tc1mHTbtm1Vr3EiIn/iTI/w3fv2y4AR98o7738kObm5UrN6rMyaPk0evnuECoBjOSa6qpzesIHcWMoBMv0Je4S7D3uEE1FlYiCcyEsgEI6AOALjf//9twqIL1++XAXHmzdvzqAZkQfbt2+f9O7dW/V4RcqHmJgYNSAummD8prUqVarITTfdxMECyW/VrVtXevbsKbVr15a9e/fK5s2b1d0S+/fvVwNq1q9f39ySiMj3lRQInzFvgfS77W7ZvnOXWkbqkyXz35Z2rQuPKfS/81pJh3ZtVGCcHGMg3H0YCCeiysRAOJEXQbC7S5cu0qRJEzl+/LgKEPz000/yzz//SLVq1VSwnIg8x9GjR2X69OkqxcOGDRtUvuNRo0apgPill15qblVYWFiYWSLyTwEBAfK///1PWrduLdnZ2eq3s3btWtVLPDAwsKDXOBGRrysqEP71ilXy8JRn5YUZsyXLqCc7/q+tTH7oXpny8GiJCA83tyqMQfDiMRDuPgyEE1FlYiCcyAshHQoG08SgmggQICCOPKoYWPPcc88t1MOUiCrH999/L5MmTVLpUJKSktSAgBMmTJBHHnlE4uLizK2IqCgNGzaUK6+8UqpXry7//fefauuWLFkihw8flkaNGqle40REvsw+EJ6YnCyvzJwnk194TX5bu16ljLp98PUyfswoueKSjuZWVBYMhLsPA+FEVJkYCCfyUjVq1JBu3bqpQAGCAggQIFUKggUIGqDXOBG5X2pqqrzyyisq7QkGuIURI0ao5auuukotE5FzkC6oY8eO6gIwLvairfvjjz/URWBcDEavcSIiX2UNhP/06x/yxAuvycsz50piUrK0bXmujB99pzx23x1Sq2YNtQ2VHQPh7sNAOBFVJgbCibwcggC4hRy3i+O2cQQJVq9erfIQ4zEEEYjIPTCQLXqBP/fccyp9UatWrVQvcDS1yH1MRGWDi7tIDYY0YEgHhrbum2++Ub+zxo0bq4vDRES+BoHwzPRUefPdD1Qv8B9X/67WDx3YV8aPuUt6db1MLVP5MRDuPgyEE1FlYiCcfAr+KF64cKF8+eWXsmPHDsnPz/eLgbVwezgGF0Og7cCBAwUBAgw0hkH3cAs5EVWcvLw8lfcbTeq3336r1g0ZMkQt9+nTR+U8Jv+GNmnNmjVqDrhzh0oHab8waDTGw0C6IX3hd8uWLRIeHq5SgxER+ZLfV/0kk597SZ5+7W05ejxBzj6zqTx+350y/v67pGG9OuZW5AoMhLsPA+FEVJkC8hEpJPJib775pnz66acq8HvWWWepoG9MTIzs3r1bfvvtNxUcvvrqq+Whhx6Spk2bms/yXb///rs6JrNnz1bLLVu2lJEjR8rtt9+u8ggSkWv99ddf8tZbb8mMGTPUMoJ0+M1hQnCO/BfapZkzZ6q81ikpKSpPPKBtioqKkh49esiwYcNUHmwqnX379qm2DtOxY8dUj3Dd1iFlGBGRt8N5xZuvvSJrN2xSyzdc20tGDB4oF7fngMEVoV33vrJ+81YZN3qUyrlOFScorpEEhEaaS0RE7hVozom8DnKEnn322TJ58mTp3Lmz+kP477//lq+//loWLFggv/76q+oRPn36dDlx4oScccYZKhju69q3b696pr744ovq+GzcuFFGjRold9xxh0qdQkSugwtO+G3pIPiAAQNUYG706NEMgvsxtE8XXnihXHfdderCLMZvQHuEdkm3TViHx7ANtsVzyHkNGjSQKVOmqPbu8ssvV+cATz75pPo9Ll682NyKiMj7WM/dEQRv3KihTHvsAXl16ngGwYmIiMqJgXAfhVuvBw4cKFWrVlW35NerV08FgbEevaXQS80eHne03hMhYIBcoejpjVQgjzzySMFt5viM+CwIRgGOAwLjCJC/9957atnXhYaGyr333qsCBNdff71a9/bbb6sT6lmzZqllIio7XHTDbwy/KdyFgTtRnnrqKfWbu+wy5ussDtoZDPSLtgkTLtihvkauZ5QdQaDYW+CzoH3CGA24Mwl3C+BuJKxH24Rp6tSpqs3CY9gG6T7wHN1ukfP69++vfndjxoyRyMhI+eqrr1TPcATJ4+Pjza2IiLzDvHnzVB32+uuvq7RrfXp2l9enTZD7R94q0VFR5lZERERUVkyN4oN0kBi9pdArCn+AIzh85513FgS6ERS23oqN56Ansf16T6Q/37PPPqtOFO0hkIDgFG5BR887KwRaLrroIjWAHYLj/gC94RFswXHZtWuXhISEqOOG6ZxzzjG3IiJnffjhh+r39OOPP6rla665Rl1gRJoLKp6un9FzHsFLBIPRLuGiwtatW9U29qclCBo/+uijp6z3RDrIj8+m2yd85gcffFClRrE3YsQIVT+DPjbe0A57KgSQcBwxaC2gtz3+Ha644gq1TETkqbZv315wvp6amqo6MaH+Gt6vp8RV5R1m7sDUKO7D1ChEVJkYCPdB6DmH/KOO/phGTzQEkK2PITh82mmnqT/SveEPcPQYRO85HTyw0kFynYvVPhAOuChw3nnnyTvvvOMXvcO1ZcuWqWP22WefqeVOnTqpE+wbb7xRLRNR8XAhCX+gYkpMTFQD0eI3hCA4/mCl4lnbGkenHrrtsj6mA8vg6acr+vMhaI+7lEBfZAa0SUiZExsbK5988klBOh1r0BxB/1deeUU2bdrEwTTLaMOGDeo3ivYOvSnRGQDHFxPyshMReZqPP/5Y1Vvff/+9WsaFdZxb4EJ7bvxuyc9MU+upYjEQ7j4MhBNRZWJqFB+EQALs3LlTza2eeeYZNXikhj/S0UPaUU81T4STRAyQhWCBhs+AAAoC5Ag4lPRZ8Ecxet0hIOFPunfvrgIuEyZMkNq1a8vKlSvVccDFEUffFSI6CReQ8Ht5+umnVRAcFwzxe5o0aRKD4E5as2ZNQf2MC5L25s+fb5ZscNcOevR6i2nTpql0ZDoIDs8995ya6wuzuPiK7w6CtOglDnPmzFFz0M/Fa1HZ4I4vpBTA77NNmzbqu4ZjjUD4qlWrzK2IiCof/qZ5/PHH1fkFguC4AIqLqai/EAQnIiIi12Mg3IfhDz9H6T9uuukmNUdPO/Se1rejg87biuCohl5u6JWAQLPO6VrUwF4IUCMopLezn6yvi7LeFq/tTKqSTz/9VPVgtvaUS0hIUMF/6+coycMPPywHDx50+Bl8WZ06dWTixInqBBv/1klJSQUpZhYtWmRuRUTa4cOHVbAbf6Tiroro6GhVt+I31LdvX3MrKq1evXqdUv/iIiUCxoC2BOMbWC9s6nZEp/gCvAaCy9Z2B8tot6x0O6bHzXA06dfFtngNvS3qSmfaCnwnxo8fby7Z4IIjDB06VM2tdLoOffFaw2tgPAsqH6Sdwb/JLbfcopZxoQW/41dffVVycnLUOiKiyoLxDFAnYZDfo0ePqr/JUGdhGeOOEBERUcVgahQfhIAAgrwaAguTJ08uMuUJ/tDX7FOj6Fu9ERDAH/S4pbtFixbq9XGL8bp161TwAhBk0Ld6Y/A40LeE4zXx2hqCDAsXLixYX1w6Fw37UqNGDfXa//vf/8y1p9LpX4pKjaIhuHH66ac7TLHiD/7777+C28d1mgf8GyIozh6uRLb6EL8RnU4IKZnwG2E6obJBz9wzzjjDXLJBrnAMMqrbEStrWhSwP13Rj6PN+OCDD9Tr6zbnrLPOUgOaarjYiouluCMKaUdQ76HXHeD9dU9stDO4SwrbYj3+vdEGAga1LCpdid4X+33UF3/xOvafUec+d9RWoV0urj0k52VmZha0dfo7MWzYMNXWtWvXTi0TEbnLsWPHVJ2k73KNiIgoOP9u1qyZudVJTI3iPkyN4j5MjUJElYk9wn3Q9OnTzZINAsz4Ax3BZmtPOmfg9mz0yEPgG7e1IwigeylgPYLZgACEDoLjj3oEqjHpNCx4X92jDj2/9fOmTJmi5ggwAQZMKwreH4oLgpdG69atZf369eaS/2ncuLFK84DeJzj+R44ckSeeeEL1TlmyZIm5FZH/wYUhpJHCbwFB8CpVqsjdd9+tfisMgpcdAsHopWuFtgDBcVwcdZQupTi69zUGRsSdQda2AYFs3eYg2KDvGMIdUWjHEIDXEPDWEBDHtrjQizK2Pffcc1V7Z015Yu+7774r6M1uhe8RJmsQHJ8TQXD9vo7SdOG18JpUfqGhoercAr9f3GUAM2fOVL9vjBVCROQuSH+CugfpUBAE79Chg6qbXnjhBYdBcCIiInI9BsJ9EAIKH3744SmDQumAuDU9SUn69++vgtlFDTCF4APowLY96619ettZs2apOdgHtRGAQI88R/7880+HgYaywm3pmzdvNpf81w033KBOwu+55x4V8Pviiy/USTqCNEX9WxD5qp9++kl9/8eOHavumkAdhd/Hyy+/LOecc465FZWVNTe2FdoQDGLsTIosDelG0DbhjiVHdJuDlFr2rIFpa/qV999/X80R/LaH70ZRcFEVF1eLg7YXPb0R+EdPcLwvAvJos+35+4XainDppZeq3zIuQuBuMFxcx28dF7lwlwARUUVJS0tTwW7UOR999JEEBgaqMi7UDhkyxNyKiIiI3IGBcB+FP6xxGzcCDvZBbKQNwYmXMxAEOnDggCQnJ6tbiBFIL2/wGL33NAQFMGGfNN3z254OariSNQDizxDge+mll1SQAP/me/bskccee0ydpC9fvtzcish3ZWVlqWA3vvNIswG33XabqitvvfVWtUyugR7S//77b6Fe2YD6GD12ne0ZjtvI0TahjcJzcNdTeaAHuW4TcOFYt086h7fuVe4I7iKoVq2aueRYkyZN1MVcpG3RcAHAUXuM18JrkmvFxMSoMULQ1vXu3VvlCkfOcPzumZediCoC/u5Be3X//ffL9u3b1SC+qIMwqC8G9yUiIiL3YiDch+GWbgQcdEDcCjnDSwM92dCLDb2oHPWUsw9oaPoPeQTjdS5Oa/AZOVCRU9U6FZUT9fzzz3dpD+6dO3cWCkiQqIAfTs4RAAQEaRAgQLod9GYh8kUIgOJ7jvQJW7ZskZYtW8prr72mfgtt27Y1tyJXQo9s9P5GQNy+zte5u52Bu1ZwgRaToxQj0KdPH7N0kvVuF32nkf3FVvu2CVNRkEccbW1xEAhBLnDkqUaOWN1uon22v/sGr1VSD3Mqu+7du6vf94QJE6R27dqyatUqVQfg3wLfSSKi8kKbgXoGdcu8efPUOgzei4uf9mnCiIiIyH0YCPcxyMWN236tdEAcg0zq3uHWwTRLgl526LGNFClFDSxpzf2K3nMILGHSPejwfOxHeSCQjiB6afPIFuWHH35gTwwHcMEBJ+7oJYeA4D///CNjxoxRJ/KrV682tyLyDW+//bYKUOqUTYMHD1Z/pN55550SFBSk1pFr4IKqztutoe3ABVHUOVpJAWUNbQEGb0a7V1SKEcC/r77oiV6/CDrrtgxt4iuvvKLK5YG0Lhs2bDCXSob2EBcC0K6iXbNPL4bXwoVnqjg49hMnTlTfPVxIwb/Dc889p9q6Tz75xNyKiKj01q5dq9oenEugPseAzfrOSz2oMxEREVWOgPziujiR10FAAHlTcau4IxiVHINa4o9/3FIOuPVbQ0DC2jsPQXXdOw89pRBQR2Bc3yqu12kIIGGd7vWN18KtgNbXxMmgDpDbP78k9erVUwOk4eSyKAi2IPCOXn7ofVcUZ17L3+3atUv1XlmxYoVarlmzpjqJ79evn1rWMKAgvhd16tQx15RDrvG9zI435sZ3KC/TmDJOzsn3BIYYlVCoMTemoAhbOaSmMeHCWcVdq924caMKhqLOys3NlTPPPFPVBagjIyM5in1FQN2MIHdRecB124D2Am0R2jMEKDX70xU8hm1At13FtWe6/QO0gT169FBjIeh84QiQ16hRQ5XB/vnFQVAed02hN7F+Pd1+FtcW6fbU2hY6ei2qWDhnwWCouAAMwcHBKj0YBrRDWUObiO8oepRXlMzsVElI3SdpmcclKyfNmNIly1iXmZNq/AbyzK2ICEJDIiUkOEKqBIVLleBwYzlaqkc1kMiwk3W5u82ePVudX+i/lTAWD9ofjFNQFrnxuyU/k3dlukO77n1l/eatMm70KBk/ZpS5lipCUFwj45Sf59tEVDnYI9wHobd3UT3jTpw4oebo8eSMzz//3CydVFTeUvT0Q8oVBDoQsMDkKJBgHRTGPicnAgf2t4hb3XTTTaVO6+IIAjG4EMAgePHQIxE955EaJSwsTI4ePaoGUMVJvf4uHTp0SKVSGTdunFouk9wkkdQtxhf0B2P60VbO2COSdVgkx/i+MQjuu/KybRc9so8Z/+Z7RdL/FUn6VSThG5GUtcZ3ABf1XHu9FvUO6kCkP0EQHN9pXODBnQ8MglesonJig25bcPHUGToIrhXXduA9MfikbptQ/6MdsAaa0Uvb2l7NnDnTLNkgkF8UvA56nVvvmsKAzICUXkXtm073pbcFvAZei0Fw99F3Bnz77bfSoEEDlTt80qRJaswMfeEe63BhGCl4UHYlBLv3HF0rG3Yvlj/+/UD+PbhSDhzfLEeT/pOktEOSkZ3MIDiRA7hwlJIeL8dT9sihE9tkd/wfsva/T2XNvwvkv8O/SnL6EXPLivd/9u4DMIoy/R/4E2oCCSQUSZQWQI8oFhCVoKLEQxQrKBYQT6Udoj8L4ClwihyiUqyAJ4L6V0EUAU8ECyeeomBBQEGCjSJIQEpCTSBl//N9d97NZDObrdnsbr4fHHdmsjs7Ozs777zPvPO8OFbce++96vwCQfD09HR58skn1flFoEFwIiIiCj0GwmMUgg1oaWZteYcgM+ajgo3OojSdHxWQIxWtFjRr518IIiDY3a1bN3NO2aA4Op7yBZavb1O3Bu0R1EBnYhWlUMF6I4DhKZDiK1Rkfb0YQKJO7HGbp87zPm/ePJU25f3331dBcATIX331VdmwYYP6u8+O54gcWi2S97lIwWaR4iPmH6jaKykyarh/GPvHGpGDq4z9Y6uIo9D8Y2DQwnbkyJHqt//ll19KixYt5LHHHlOV1EsuucR8FlU2bH8c93WaFASJMY3yAClOdDAaxxudzgvQUtoajLb+7bvvvlMdLbuXZ4DX4T29dWYJEyZMcC3XGrRH+WktG+0gxzz2JR30RhBVpz6xK2/wmfE3vJ/+zHgtloFlUfjhggTuFsFFd1i3bp3q2A4pUzDg7igEu2bNmqX+HqwDR3Pkt11fyprN8+X3Pd+poDcRBQ8Xj/7Yv0G+3/qe/PTHctl/2LeUW4HCeTEa1yD9ybFjx1TfFDiWo8zypewhIiKi8GEgPAYhkIAWb0iRgvyXuFUcw2uvvaZuv0ZHXdZg85w5c1zBAwSIBw0apMYBQQFU5CE5OVm1UMNJnZ73+eefq2AGgtgIYmDAreX6PfWAoLxuvYf3RhAK64kAAIINuCUeQQtPLdk1vBZpT/A53HPN+grvgZNS68UA8g4XL5AjHJ2L4VbxHTt2yFVXXaWC4YAWcvhefIJUJ0e+dwY5j7PiT14U7jf2lw0iB1Y5W44HADl/EYycOnWqCj5i30UlFakrrOkwqHJhm6OjSHQuiYunKB+w/XEnEQIJ1ou3ON7je9PlTf/+/csct1EWoAzBgPIDwWSUYTqQjbzvCCzrVtoog9zLpqSkJJViBcFyQPB6+fLlrsA09hn8HQFSby20EQRBZ9K4Y0bDBUJAOYd0XAimY8A45oE1qIrXYhm8W6nq4FwHHdvNnz9fpQMrKChQZRtSp2hoLa7vigoEWndv2/OdZO9YJjm52VJUfNz8CxGF2p6Dm2Xj9mXy887/qbsvQgllF44NKCs+++yzcn0PEBERUeRhjnAKGQQUdG5wT0KV8xTB7KVLl6qABQIXVgjUe8oRXtHryHdoJYeAjb5l3Aq3lltv8y8HqS7yf3OmPCHyV406IvHGMSTBt+PIH3/8oVr1YsCdC02bNlWBSAQaTzrpJPNZFMtw0dRb52QIXnjqW8MfCLwjyI/84zqojwA8LkzjQrEVLi6i9aAOuqN8WrFihbqzpqI7oyh8cMxAOhR9wdcK+cP/9a9/mVO+Q6vvP/avl32HKreFKhGVl5RwgjRvfKY0Tmplzgkc0kfi3OLDDz9U05dffrk6v/D1DllfMUd4+DBHePgwRzgRVSW2CKeQQcs93RLPE93qLlgIMKAlJ4IbCB5Yl4sOx3B9xxoEx/PRAg89tyOIyyB4cM466yyPHWOi5ZzH/KkFW5z5vxkEp0CVHBc5mu3cj3BnQQWWLFmiWmnhzhYEtHCBBq20ELxiELz6wPEenWJWxD1IHSgEsFHGoKzBnU4IgiPQjSA7LgSj3wwMaBWPu7PwNzwHz8VrGASPLGgRfvbZZ5tTZSFVCu6M8se+Q1tl65/fMghOVEWQM3zLn1+rOzECtXv3btVfEc4vEARPSUlRdyvh/CLUQXAiIiIKPQbCKSTQ4u66665TreAQhLYOqPAjDQrgZDFUcCsiAgvQrl07FUhAa3AEvRFYQCsNBMkRAMft8g8//LAKPLADsuChY0zkSrWDIJBt/lS0BFfBS3Z8SSGAnPJIl2LTkSZa5SLwiUrq4sWL1d0qyA2OYwKOU1S94HvHhVMEKdzLJ5QhaJnt7SKuP1DGoKxB+h3sb7pswgVb/A0D8pljHsonPAfPdU9bRlUPKVJwh5kdpEzx9Dc7R4/lya85X8jB/N3mHCKqCgXHD6rc/IEEw1G/wLkF0gTiAurFF1+syhb0I4G7gYiIiCjyMRBOIYGOypAWBS3a3HN3o8KP+QiGh7olNgIKCHwj2I7OxdB559NPP62C3osWLVInpbh1Ea3xmHM1NHbt2iVvvPGGOWUP+VMRJHAp+F3kyHpjhJmYKITQ2erRn8wJJ6Q9wm99zJgxsn37drngggtUJRUBK14Eq54+/fRT16P17iFcMEH5hFa9/gQ0fYW7k9C5M8om5JHFIy7aYtDzUFbhOXguRRbc2YQ87kePek5J8Nxzz6mLv96gU0zkJy4s5oVgokixfe9a2XPQ2aDGm4MHD6rjNM4vUL9ISEhQHcnrRjdEREQUPZgjnEIGJ4M4OVy5cqUrVzha2aHjL+RHZSA6tqCjsK1bt6oWlXhEgEmP4xGtZdBhkBzfLZKfLVJUcf54osDEidQ/VSQ+XU0hR6fO14lUKK+88oo0b95cTVP1pDvMxEXRr7/+2pzrzAt++umny4gRI1x5uonc4aJuRWUdOgPXF1vsHD2WK1t2fy25R/xLo0JEla9+3UaS3uw8Sa5fcbo0pFvMzMxU46jboNHNoEGD1HRlY47w8GGO8PBhjnAiqkoMhBNRpUDL8dTUZiJ5nxtn8YfMuUSVIU6kYVeRWimqA9fu3burFuF33XWX+XciosrhLOvs+8yAQFMwEFF41KubLGel95YacTXNOfYGDx6sLn7hAnvr1q3NuZWPgfDwYSA8fBgIJ6KqxNQoRFQpVGAg/1cGwSkMHCIFW9UY8j1v2bKFQXAiCouKguDoHHN33s/mFBFFIuTv3+XDxarnn39e3f0RziA4ERERhR4D4URUOYoOOjvIJAqHY3+49rf4+Hj1SERUVUocJbLnwG/GY7E5h4gi1Z6Dv0n+ceO8tQI8tyAiIooNDIQTUeVAULKIrcEpjBAMZ9CJiCLA3oObZe+hLeYUEUWyQ/l7VDCciIiIYh8D4UQUeiXHRI7nmBNEYYKOWQv3mRNERFVn/+Ft5hgRRYP9h7ZKcUmhOUVERESxioFwIgq9ov0ixUfMCaIwwr5HRFSFCgoPyoGju8wpIooGhwv2yUH+bomIiGIeA+FEFHoMRlJV4b5HRFUMQfDConxzioiiBS9gERERxT4GwokotBxFIseZnoKqSOF+BsOJqEodPMJgGlE0OpS/2xwjIiKiWMVAOBGFluOYSHHFPe8TVSqm5SGiKnSoYI85RkTRBC3CjxcdNaeIiIgoFjEQTkShhY4yiaoS90EiqiIORwnTohBFscKiAnOMiIiIYhED4UQUWgxCUlXjPkhEVaSwON8YGEgjilZsEU5ERBTb4hwGc5yIKHgFW0WObDAniKpAnRNFkjqZE0RE4XM4f6+s2/quOUVE0eaUEy+SExqebE5VveI928RxjMH5ypB38JCMGPeEOSXy8f9WyK49e+XM09rLmadmqHnJDZNk6iMPqnEKnZpNW0pc3frmFBFReDEQTkShVbBZ5MhGc4KoCtRuLNIg05wgIgqfw/l7ZN3W/5hTkWXGlHfkzZc/MqfKm/rSvTL7+f/Ixh+2mHPKW7HxJXMstl146mBzzF7jpg2l7SnN5cbbesi5559mzq0cBw8ckamPviGrPl8v+UePSUK9unLtTRfLnSOvN59BodSiSUdp1fRsc6rqMRBeua4fdLf856NPzKny/nnfcHn4/uHmFIUKA+FEVJWYGoWIQstRZI4QERFVL8UlkVsGInCKQHbWZZ3NOU4339FTzUdA98V5o2XJqmekVZtU869OCJJXlyA44LPOfHuMOeWktxO2RWJSgnzz5Y8yYvAz8sj9L5rPCD0Ewe/s/4Qs/3C19LjyPLUOCIbjgkb2hq3msyiUatWsa45RdTCwX1+pXy/BnCrrgnPPlqG33mROERFRrGAgnIiIiIiomrjiugvMMafOmc4UAFqDhvWl68VnmlNOld3qORJldGgtp56Rbk6Vwrb4v4dKg2MIUiMoXhn+89Znsm3zLjVePzFB/nJaKzWOCxUntWiqxokocJdndZPrrrjMnCrruit6SrMmjc0pIiKKFQyEExERERER+cj9wsDqVdnmWGh9sXydOeZ0yeXnqFbpb7z/L3XBgoiCd/2VPcu1Cu96Tifpc8Wl5hQREcUS5ggnotDK/1nkqDEQVRXmCCeiKnLgSI6s/32JORWZdEoPDak+3AO77vnErWlR3P+GVtMD776mzDJBv8Y93/aIR26RtV9vUi2pAa+/d2w/NT7r2XddrauvvqGbjBo3QI0D0oS8+PRC+X71z65W0vq1aL2tuX8+wHu+8/p/1euQ3/vx6XeVeY0nQ2+a6MqZjrQk1rzc1s+Fv4H7dkGqmXff+kxmTJ4vJ6SmqAA2uOf9xvYfdM+1ZdbJU55y9+/i48Vfyb49B1Qr8duHX62C5WBdd9DrP3nc6/Le25+X2b5Is6K3PXKQZ3Y7XW0za7DdfX2wvN9+2uF6zZ2j+sq1N15k/tXpj+175Knxc1zfKbb9df2zZMCQXmoafNkW4ZTerIuc1KiDOVX1mCM8PAbeP0Zem7/InDKOi488KP836FZzikKNOcKJqCqxRTgREREREfkEwVQEUa0QvBw3dYg5VRZyjlshII0g65B7e6tpBGsfGj5N3n9nhTwyZbArKI9gLYLIgGDp9Zf8Q7789Ht58oX/U8tEUBWvvee2KSrgqnlalxlzHlSPCBrj/YLxyQffmmNOSC9jt10QAE5qUE8FeHXw3pr3GwFhfJb1a39VnwN/0xDwtqZmQeDZGgRHbnIE3tFpJ+Yjdcq4ETNdQWcE4d1zvWO98Tz4ddN29YggON4br0Ne9AnPDlPrNmros+rvmvv3uHvnPnURBe+Bz4dgtvV7wHJv7/2oWi6eh+8E237mM4vKfK++bAuiymZtFd7l7LOkzxXOi1tERBR7GAgnIiIiIiKf6WCqFQK+dtxTeCC/NubpfNeAAOnQ+/qo+W3/0tycK6rlOLzx0gcq2IrnbdqwVT2vWVoj9TfMX+4WmHZfF7RUtq4HlhNoZ5MI7L4y/T1zyhmg1sF763bZnbNfTmp5gmqhjYA2AsaAVu0IiqMVNYK/WK/0dieqz4G/+QIBbd2iHq2n4czOp6jH5x6fpx7Buj5oSY91uWXw5eq927VvoeY/9uBs9d74DGiFrT8LLjJYA/7W7Qc617z1PazfwzMT5qrl4nNjmed0PdW1DfT3E4ptQRQKyBX+1wu7qvEe3c6X5mnN1DgREcUeBsKJiIiIiKoppBFB2gvrYE3xES7ugVbYtXOfeux+WWfVAhwBUzuHDvqfOuKQny2OsU2wbXTalSxjndDS2ZouxerokQJXh5Zona3Toix7/2v1iICvOwSrfbF04ZfmmLNTTysElu1aUycmOYPP2M4fr56m0qLgYoBuqW69AKGtMS9E+Ep/D1iuTsuiA+V4X2wDtF7X6VtCsS2IQuWf9w2X5AZJTIlCRBTjGAgnIiIiIqqmEMxFcNI66JzXkQLB3nc/m6ICuO2NcQSjt/y60/xreOjUJBgQ0H30qaGu1tN27IK7CBCjtTMgUKwvPOigsQ5Ke4P0IZrdxQu0mndnF+hevXKjOVYa6Meg6fQp/rIu15NQbQuiUDnztPby7qsvqGA4ERHFLgbCiYiIiIgo4qFzyJt6jpbUkxrbBpojnXsrdOvFBz34QgeQwe5CRkUBeitrS3qkb3FfDlqyB8KXFvqh2hZEoXT+OZ3MMSIiilUMhBMRERERUUQbetNE1WoZKVKQ1oOiw5HD+eYYERERUdVjIJyIqpWPP10rNw56Uk487W8S1+QqNWRkDpOh90+Xb9f+IvtzD6m/h1OXniPNsVKYh3V7YNwr5pzIoredHrBdiYiIKsPrM5e6UmZcelUX9RiNkNbFCh1vBqKV2ekkrF6VbY75z9phqd6+odA5M8Mc85yzPFTbgoiIiMgfDIQTUbWAAHfPvg+r4e13v5Crep4rv66eKY69i+XLpZOk4xltJOva0dL45H6ybfse81WV7/Fn5svX3/1kTjkhqKznTZ62UD1Gmn2/zDXHiIiouklq4Ox40SqQDit99cXydeZYqWhsaYwOI61pS5Ys+MIcc0LqF1/0vDrTHDPOGRZ/ZY454aKBXeDZDjqttHZA+u5bn5ljopaBZQUCnxEt97U3XvrAHHP65INvQ7YtiIiIiPzBQDgRxTwEwc/v9YCr1fILU+6UF58aLm1bp6npRilJ8vfbLpdt616WxPrxal44YH1GT3jNnCp1afeOct7Zf1Hjo+7qox4jDbYZERFFn7deXWaOObm3KEYA1D246t5aN+vyc8wxZ0Aar3ll+nvmHCcdjHUPyuqAuXvgXD/PGuDW44lJpYH3337aoTpaPLPzKeac8kFxu2V7Wg9P8B7WVtLYJu7LcOe+7nbPH3TPta7g8/IPV7uCzwg6X3PjRWpcsy5v98595pio5+lW4fv2HJBH7n9RjeN7OrFFUxVkBk+vt7pzVF9zTGTG5Pnqc2O9EbweMKSX+RfP36P7Z9ZGT7zdHBN5d97/XPvQ5HGvq3UEf7YFERERUSjEOQzmOBFR8PJ/FjlqDBEErcB1EPyGay+Qt2b9Q43bwfMefmKOfPXRFHNO5Xhr0QoZdO9zcvhIgZpGy/Rog5Qo2kfzx6sAfkSo3VikQWlrOSKicDlwJEfW/77EnIosaGGLHNueoNPF2c//p8IUGdYODBG0ROAUHTeiZe9Z55wiM59ZZP7VCc+/8NTB5lSpm+/oabsudvPRieO9Y/vJQ8OnqaBv1mWdZcQjt6hA7PBbnlTzEBQe88RAyejQWgVcRwx+xnx1xfCZ7TqWtFtnDetj14mkp+1r1+kjgs2znn3XFRzGOiAojPWHij6DXh4C01MffUNWfb5efQfYBrcPv1q18gbkVHf/Lj2tO1po40IG0pggMJ3Z7XS1jXVAHSraJlb4Du8ceb0ax+d47vF5arng/jnB27YIt/RmXeSkRh3MqapXvGebOI5VfNGGKNrUbNpS4uqWHl+IiMKJgXAiCq0IC4QjsI1AuDbvpQfkxt4XmlP2kCPcPViOXN1vzP+f5OzeL2nNGsktfS+WSeNKWzvh79Y0Ju1Pbq7Sr+jXoIX30nmPqJbUSIdi1xIcJo69tdzfdJDc/bMAWrc/++J7sumXHWq9/vPGWDmn48nqb8gzbk27oluXW9cT62UN+iNA//LcZbLym2wVpEcL+WG39yrzWTUGwomIyorkQDgRecdAOFHlYyCciKoSU6MQUUybPedjc8zJWxAc3IPgCIwjeHz6qa1UUBqPmLZ2qolA8ZBbLzOnRHbs3Ct9r7lAnp4wSE0jID1s1Aw1/tC9fVXg2ArLxYC/IVhvB4Fmu78hxzkg4H7NLRPUOCDAjYC8lft6WiGYf9PgSXLmaelyaNt8FZRHMByfFZ2JEhERERERERFFKwbCiSimrVi10RyTgPJ/o4U0OteEEXf2LvOI+f9+tbQDqIaWzsNOa99KtcxOSU4054gsXbbaHKuY9TXu3P+G3ObWfN0Ihn+79hdzCutUvrWFdT2tdEvxxR99ox7PPrOdeoS5C/5njhERERERUVVZ9vmX0u/O+6V2i1PNOURE5CsGwokopiEwrCE47S+kCanIoiWrzDHvdD7wypabd9gc849uKW4XPA/XuhMRERFRbJv5+lvSq/9gSWnfWQVzMZx/9U3y5LSZsj/vgAx7cJz5THKHIPgnK1bJ/MUfmnOIiMgfDIQTUbVhzZftK+TKrojuhDMWvPjUcJWeBSlV0NL9trt862yMiIiIiMgbBLk7dL9Sho9+VM449S+y7K1XpXD7RjU8+6+x8tmqb6XZ6Zmy4mvf7qKMFg8+FrpO+Ht0O1+eGDNSEuvb3+FJREQVYyCciGIaOoMMRnVrCY20KhmZw2TUIy/Lw6NuMucSEREREQUOQfBuvfvLHzm7ZNX7b6tgbuczSzsmxfjSOS9J36suk59+3WzOjX5owV0Zgf1TTylNYUhERL5jIJyIYto1l59njjnFUgvuUEM+9KxrR8umX3bI5EfvkDatUs2/EBEREREF7pbhI1WA+8G7hpQJgLubO+MpSTuhqTkV3VZ/v0FuGHKPOUVERJGAgXAiimlD/3ZZmU4yZ8/52BzzzNrZ5KXdO5pj9oJtcR5JBt37nKsFPDrhJCKi2HbtRSNlxpR3zCl733z5o1x46uAyg/bH9j1qGZd2vks++eBbcy5hm3nbrqEy9KaJ6juxe7+DB47IiMGlac4q+i595f56uwH7BNbr3bc+M19VSq+vp4FiE1pFY0A6j3/cNcSc69nw2/ubY2UhxUjLsy9SOcXxiJzi2uZt21VuceQdh7cXf+B6LvKPo0W6FabR4aTOU46ULVhHK0zjOfr1eMRzkeNc/x2vwzz3ZeD9e9x4m3FufVS+WfuD6zmaL++vIaCOnOp6GXjdgUOB9QlERFTdMRBORDGtUUqSzHrm/8wp46T03S/KBLrd3TjoSfnvZ+vMKZHeV2SaY/Zuu/kScywyNWxQPn/ggYNHzbFSaCnvngYm0E43iYgo8iFwvW/PAfl48VfmHHvnnn+ajJtqH7j6z1ufqWXkHz0mb/+/ijuXri4QfJ44+hVzqnIhsL3xhy1q/M2XP1KPVo+OfEkOHyot8yv6Ln21YuNLMvPtMeaU06lnpKv5GLD8o8b5BNZr6qNvyCP3v2g+y+nFeaNlyapnpFWbsnedTX3pXvV6ik2vzFugHjPPrriBiWYXLEfw94eNP8m6T96T3etXSYuT0mTsk8+4Otic+cZbMu/d91XgGYHqNT/8KLOfnqhSrSAQPWl66f6F5yNNS8uTTpTcTatVqpaDBw+pYDOCzoDHhUuXuTqlRIv2Vs1PVOPvfvhfV3D6jIxTVI5zLANpX9ACHMu/4arL1bLh3I5nuHKhgy/vr2EaAfXkhknqc//0xUfyQ/bPMZU+hogonBgIp2ph//798sADD8hvv/1mzqlaH3/8sSQlJcnQoUPNOVXv3//+t3Tp0kVtJw3bC9PYftHsxt4Xykfzx7tahiP9x+PPzJf9uYfUNB7ROeSJp/1NzurQRh66t6+aD2gZrVuFT52xqMwjWoNbW05bA8wHDh5Rj+7BZP2enc9qV6al+m9bc+SBcc6Ks6fXgN3frH8H63OsgXysHy4CzF3wP3NO6XqmJCeqRw2B8Taty1ZSre9T0XsSUeR5/PHHVdkTKbA+cXFx8tZbzlZ1VQ3lHNbpxBNPLLOdMI75sWjpQmfLQwSyvbXmTrK5qArX3HiRNG7aUBLq1ZUb/tbDnFu9jRr6rNqm4YDANoLQcPMdPdWjhhbiCJS78/Rd+iOjQ2vX+7q75PJz5B//+ps5JbL8w9Xl9q8GDetL14vPNKec8Fkodn3x9XfqER1kBgItpT9Y/rm8MX2KNEpuqIbFrzkvsjwxbaaaRs5xnTc7ObmBmkbHkki1AtY83QiKN0xKVM8BpGqZMu5BNf7wpGfVI+a98MQ4NY5A+n1Db1PLQtAa6/HO+84A+e03Xace8fybrr1SBeK/+6FsMNudL++v9bljuPpceG98zjatWsh7r75g/pWIiPzFQDjFPFRuhw0bJg8++KC0bdvWnOukK74ZGRmqQo4BAeobb7wxogIGlQ2BiEWLFsnXX39tznHC9sJ2u/nmm+Xbb6P7lmcEs7ete1lemHKnnNa+lUx8+m1pfHI/iWtylXS44C759IsfZMWSJ8oEwTUE0Ufd1UfWb9ymno9HTH/1UWkP8Ahiz3zNeUIMyLON5940eJI5xwnvCWipvuDV0ZLWrJGa7j90qjx4z/UqAO3pNZ7+pv+u4Tk6FzoC9UNuvUyNIwA+ZfpC6XfdxWoasJ5deo6Uczqe7Hoe1gmBbczD5wQE7R/612tqHCp6TyKKLLjo+te//lUuvfRSc04plHUo81D26XIQZSLKxmi/COqPF198UV577TXJyckx5zhhm2Hb9ezZM6a2B1KaWIOkOijur5NaNJV3P5siH6+epgKg1ZlOQ6JbaIcLWlijJfWdI6835ziD4HYtxMPFfV/46cdt5hhVVzl/7jHHPNNpR6wD5sHTL76qWpMjEKxhHKlWEHh2TymC1tjuEMzWXnx9nlx9aZY55dSmZQv1aJeeBC26EVQHBK1VQNp4Pt6/bauWaj4guO0LX98f6VWw7f7Wt7c5xwnB8FjJo05EFG5xDoM5ThRzUGk9//zzVeX2nHPKnpQjsJuVlSXNmzeXcePGqUCAnj927FgVHBg1apRMmlQ28OgvHVC3C0BEEqwnKvp2n1lvq23btkmjRs7ArUf5P4scNQaiqlK7sUiDilPaEFUXKNvOOusseeihh8w5pfC3t99+Wx33ESzHxU+Um3oeyke78tNfuLMo2LI0HLCekydPlo8++qhcmY0LA//5z3/kq68qTiNy4EiOrP99iTkVuRAoRUoUa8vleR9NVIFtOwiaW3NNI/DqHmxFC2EEZQFB4RefXijL3v9apU2xM+Te3jLzGecdVtqIR26Rd17/r2zbvEu1NH98+l2q9bFm956X9z5fXp2xWH0WtEy/9qaLVVDY+hntloV1ROqOVZ+vV+uIFsmD7rnW9Rz3fNVocf3bTzvUtsD73Dmqr1x740Xqb7iw8I9hz6n1dmfdLpr79tSQHsRuPrY3cmvrIDvWpXNmRrnn4nmYZ9cSHPB39/dGKpNXpr/ncZt7Yl0fu89o3X74rgcM6WVOObl/l1i3SJDerIuc1MhzR47hVrxnmziOlU9pF20Q1IZB/W9wtbK2gyAw0oPAhH/c60qRglzfFQXTp098RIYMuFEFzhHw1ilINP3+mI9c4n+5oOwdFO6QfgTBZsBrEQj/8r15atoOljn2yadVq3UE5pfOeckVOHd/vT/vj3QwSM1iXZ7m6bNGg5pNW0pc3frmFBFReLFFOMU0tGQ+44wzKgyCf/nll64gOOC5qATfcMMNqkIcbPqShx9+2ByLXtgmaFXfq1fZSgwREUUuBG9XrFhRYRD8hRdeUEFqfccULnb+/e9/l+XLl8uOHTtUWRlMWjFcZP3888/Nqeilt6E1fVg0Q4AYAU8r5Pv2B4LNV9/QzZwq687+T8h7b38u9erHq3zQCIRqGEfQE4FRu3zVM+Y40wMggP3Q8GlqXHN/Tx2Ife29R1UQFwFtBFcRpEWgWH9G92UhCI51RNoOrAfWcf3aX+We26aovwHmWe3euU8FqpHbGu8z9dE3VAAccAHhjff/VSZdCILV+JzuAWKwy9WNvNt283GBArAcvDc+P7aD3XMB62hNk4J1wnp4CjSv+XpThds8ENZUKLhokFXN7xYgZ4tqsKYnsWMN9nY6ozRdDoLgCKLrPNvuA4Lgvvpt2+/qcc6MqbbLwqCD4N4gqI2A9MV9bpGLM89TqVG88ef9t+3YqR6JiCh0GAinmIXKN4aRI5251zS0drvmmmvk8OHD8uyzz3ps4YzgQGJiosycOdPVqttfCDS4pxuJVrgggM+CXOJERBTZUNZNnDhR7r77bnNOKQTIEQQ/77zzVNDbjr4AirKyf//+5lz/4KLzddc5c6fGgttuu01dII+U/kYC9e5bn8mZZ5+sWv1aOyz01mmmnfqJCeZYKSxft4y+9KouKh+0NRD6+syl5lj5fNVoYY3nawjMZm/Yak45Wd8TQV79mmZppedz7dq3UIFia8tmLEsHrtFaHeuIIC0C4Xh9ersTVYAbfwPresAV112gHq3vv9xLbvWKIH1I1mWdzSmR999ZoR4xH+ul6fdAgP7woXwZep8zZRmEIt/3qHEDym1zvZ0CgSD4k//8f2oc38+zr470eKcBVR86DQg6eETw2F9IQeItiO6rlIbO9CqffhlcHQ2dWJ7ds7fqQPP37z5TwXhfUqOE6v2JiCgwDIRTzEJLbASy3VuDIw8ocoCmpaVVmK4EAfJ+/Zx5kK2tulEBRlAY+VQBrcN0blUEvnUOUXQ8iUADIOUI/q5bktl1TKkhX7fOWa7zlbtXuvEeCGToTr0QbMDy8BrMw7QVnmPNg45xf4P7aC2IbYaLB0REFNmeeOIJFcRGfmt3CJADArsVQR8RgIug1jLDWoa5lz+680s8ojU51gGv1+UPuJdh7rBc/E0vE9O6bNXcy2K8n34N1sf9+fr99HqgXPY3oN2jh7MzyGhI81KRDxZ9KTeZLYavH1C6fyAA6q3TTF+s+G/5/iKsgVBPqVI8OWS20PaHXYAe/vj9T/WIlC2A4Le771f7nt7tkKWT7EDo7wH0+yLwf0JqihqHj95bpR7Reh0XMNwD9JVBbydfoWU+UqFgGDdiprPF/Ev3qlbsvqRZodg3+JYbXTmt7xo9Xj36A/nBEURH8NkdAut2eb09QY5vBNaXLPtU9ueV79h25uu+deKMTixBd8bpK3/e/4xT26vHhUuXqUciIgoeA+EUk1C5RcX7tNPK90CPHJ9w4YUXqseKoBIPWBYq1aiwowKMVuKo3KMSjrzZaDWHoDsC3zp9CPKIIscqINUK0vHjtZ46pgQsb9CgQSrYjOcvWLBAli5dqvK7WoPb1k69vvvuO5kyZYqMHz9eBTcwz9oCEK9DhR8pYrDMb775Rt3ujlZ67oECb1q2bCmbNm3yO3hARETh9cYbb6hH94vBKMdQfoEO7HqCC8Lt2zsr4SiPAEFplFEow1D+3XrrrdKtWzd1YRnlz0033aTeAxdxDx06pF6Dlucof3S3NJ46pgRcqF28eLFK6YLnozxDK2z096HLLDxiGXPnzlWfBYF5lIWvvvqqSmuGdcOFAA1B8NGjR6uL2lgm7vjCOvrb0l2nj8H6RSu09D1yON8VnESLZGvr48+XrTHHYhcCzToYbw3g6jQrdnm+Kwu+B6R0Abwvvp/VKzfKmCcGqnmg5+MCQ7cency5kQUtv5HCxbovzX7eeb5NBOhccuHL01UAGEFrX4PN2rWXOS/a9bjxtjJBbwSSB9w9Ss4+w7+87pdndVPpVrr17l+mhToC7e9++F9zqtSBQ85y08ouZ7nd89zh/Xx9/z69nOX0vHffL3cRwJf3IiKi8hgIp5i0erXz1rkzzzxTPVr9+KOzA6FWrVqpx4qkpJS2yMEyUdFH5Rsto6Fjx44qsI0A97p161QwHBVwuxZuGoIDI0aMMKdK4TUIsKPCr1uq4xHTqOhbg9vIVXrVVVep8a1bt6p1wHMxHwEHa5B9/vz56nHgQGelCkERtHTHMvV28hWCHaBbuhMRUeRBoBhBZh3EtkLAWNOB3Yo0NG/h/v7779Ujyrt77rlHjf/www+qnw3MwwXfIUOc+Yq99Y1hLcOsEGTHxdb333/ftW54LoLbmK+D2wjQ4z31xW6U1ZhGOYjyEKx5yfUFcJ0GBo/YNnYXpL1BGYtt637nVbSYO/vDMq3A0bo4s9vp5pSz1bHOkR2oC//a0RwrZV2mNY92VXBvYa7zZ1uHcEIrbw1pUH7dtF0FyJHaRUP+duQwR9qUSIVW/9YOMXFhwZoGhwgtoZe99apqGT589KMqt/bbiz8w/+oMED85baY5VRbSjvS96jLVESU60+zQ/Ur1+manZ8rf+vZWgXYExbf/4bzAal2uNYCsx6dNfET+0q6NamWOjiuxLCwTgfbxDzjLONBBdzzPvdU58p5jfdChJf6GR52+BS24H3xsihrH50WnllinYQ86Owr19f2RM11/bvwNFxD0ex086LzYjGW6B8mJiMgzBsIpJumKvq7AW+mWcMFAy2iw5lZFpV2nUtEt5/wxe/Zs9YgKvxXeA4F3VNjtKt6e8q/qYHybNm1UgN4a8LDbLv7Izc01x4iIKNLoi5x2x/pQHL9RrgCC2dZ+NtDyGlBe+XvHEaAVOwLU7gF6ncoFLbnt4AKzO2uQGxe+3S8KVNdyEClBpj76hqsVNAYEv6387TTTHXJ269zjyDuOILheJloM3zvWea5ETtZW3kiDkmjm/bZeUEAHoNYLFpEKgXDrhQ4EwoPJN65NHve6OUbRDsFw5NOePvERaZiUJENH/VNqtzhVDQgIv/fxctUp5k9ffFSm40xACpIRf79DtSpHABktotHhJILkCA4jKK5bafe/c4QKLiMYnXllad0K45iHwPnni+aoIDMgUN3yxDQVqMc6Ap6HoLuGcR3chmf/NVYFuecv/lDGTXle7h96hzz9qLNj5R82bpIhtzjLpinjHlTrPHLcE9L9/PNUR5i+vL+mPzfgAoJ+rxYnpanXD7z5+nKvISIizxgIp2oHQeHKooPSuuWcP5ACBew67zz9dGflR7fu9gcC6bg9HYEFpDRBwMBTMMFX1pZ2REQUPax3OoUayi+0mAZ/7zjChV60tLYLUKP8QtmNC9kV3XHlCVqJZ2dnq3G8HunCAmkNbvXf/5a/dT7SoRNLBFPtWkBbO81cMGe5ORa4N97/l1x9QzeVd/yKzHtVQBRpWF5Z9EiV54xu7/b+33zpvFOwqlg7x0QalCuvd6bus3akCZGaFsXdw5MHuz4PUtCMHxVcC3ukskEreYotCF4vnfOS5G5aLYXbN7qGL9+bJy88MU4Fi+08MWak6zUbPn1fbrjqcjUfQXPrcvSy8Hz3+ZgHCEYjyKznY32sAeWKXgs6qI/5eC9M6/XAtP4MWEesM56r1xe8vb+V9XPr98IjXu/pNUREZI+BcKp29K3U/garO3cuWyEJtYpaqtulePEHAuDoPAx50bt37+5quU5ERNXL2WefbY45g8++CrYc8sZbC2u7Pj/8gQA4OstE2pY77rjDFbCvLtAq+9UZi8t0zmjV8+pMcyw0nWYi6I7gpQ60f7x6mjz61NAynWZWFaSDsaYdWbLgC3PMacaUd8yx8NGtvZEvXF8osK4nAsuRnBbFKtQpUp6ZMFfatbcPihIRERH5i4FwqnauueYa9bh+/Xr1WBHd4gsVZruW2p74kn/ck4oCE/p2dH9geehsE+u0c+dO1UI82FvCda5wIiKKLsijre+MsuYL90S3nPaUhssT9/QmvtL9eHgSyHLRmSZagSMIjo6s7VKp+Ouvfy3Nsx3pkJri0ZEvqQA3gqt2rrnxInPM6cl//r8yLaUPHTxqjjnpnN/oeFPT43i/qY++IYlJzhQfFbFbrjWfOLg/x+49wW7c07IG3XOtq9UyUsMgcA8I2Opt4em1nt4Tzux8ijnm/BuWixbN3nQ8z5m6x5ovHHR6FE9pUTx9L50zM9QjYD2wDvozBrLN3WF5unNR2J2zv0wKFPcUKTOfWVQmGI73Q9ocK/fthOkRg59R71M/McGcS0RERBQcBsIpJukWb9u2bVOPVkOHDlVBANyCrTvV8gT5SmH8+PHq0Rvdog2trv2lO8i0u936wIED6rFHD2fP4f7QgX9vn9UflXlrvTcff7pW4ppcVeGQkTlMbhz0pPy21dlhTlXBuj4w7hVzqvJ06TlSfe5g3guvxTKwLCKKbvoOpt9//109uhs2bJh6fPbZZ9WjJwggAy4G6zLKG5RX6NfC34C1DtDj7ii7C8KBLhd3ROHzYvnWfj2CVZXloL9u6jnaFdTGOPKCWw29aaJKX2KFlBYIQqJ1NF47bkTZDuzwfPztvbdLU6UhrQeWpfOB43XWXOQYLu18l1ougqaeluu+LniOXn9P74kB4xqeg+d6WhZaXT/76khXi2sE7rFenbue6mq1bvdafAa799HuHHm9K6UJ8rGDL6lg9Gvc0594mg+eth/gcw25t7cK9mN9339nhSB3eyDb3B22wZAbHjOnnHCRBfsWvgfNmiIFEAzX3xXeD6+xwjKt+wqm9TqcGAF3EhAREVFsiHMYzHGimIFOuho3bqwq72j95Q5B4ZtuuklVqjds2GDb2hstxt5++20ZNWqUTJo0yZzrhDQjaCW3b9++Mq/Fa5DrGwF4zH/ggQdk8uTJ8tFHH6lKOCrkqMTrHKXWZet5WCe03LbC7dxIa2INZrsvW9PrpufHxcWp4ALyhGu4GDBz5swyr7VbJ3f4O573zTffyDnneLhFN/9nkaPGUMkef2a+jJ7wmjkl8tH88XJp947y71c/kFGPvCyHjxSo+S9MuVP+fltpPr5w2Z97SDpccJfc0vdimTTudnNu6CHY3rPvw+aUiGPvYnPMPwiCa3pbRq3ajUUalN7mT1QdZWRkyKZNm8TTaZ7+OzqifOghZ+deVghGZ2VlqXFdpmm6vBgyZIi8+OKL5lxn0Lldu3ZlyhGUQdayWJeDdmWYnodOo63lnV4u+rewBrN1eef+GfGegPl6XfEeeC/Nbvt4KletkpKS1KO1TLU6cCRH1v++xJyqntCS1z1Q6g4pQN79rLTTOaJIkd6si5zUKHJyLhfv2SaOYxW30CeKNjWbtpS4uvZ3KBERVTa2CKeYhAo7KrGebrFGwHrevHmqInv++eeXqXCj8o9Ks6cguNXNN9+sKujw+OOPq9fMmjXLFTDQqUymTp2q3kMHDPTt6IsXL1ZBe8D6ovKPlupYP8zHoG/hdu/gUuc4X7BggXoEPF+3ANTvgQAEWthhOQgI4FF3donXouIPduvkDstu37695yB4GD10b19zrCwEvYfdXpqbEkFxBKXDrddNj0rObvvtGEoIWJ939l/U+Ki7+qjHQOjXYllRHQQnIuXWW29Vj57SbX355Zeq3Bk9erQqB3RZhuM/WoIjCN68eXNZvnx5mSC41dy5c12txvH6K6+8UpUR1nITF3cRrEYZiIuwmi7DZs+erR7hwQcfVK9HWYoyFfRysa7WILi1vHMvwzWMo3U8Lgaj/MMy8VyU8fpOK6y/fi+7dbLCe6I8ZT8bFUMLaLRGroh7a2AiIiIionBgIJxi1ogRIzzeYg0ICKOV21VXXSXjxo1TLcgwIJVIcnKy/PrrrxUGwaF169Yq/zZe99prr6ngug5cAyrtCESjAr5w4UJVyUcLNgQeAK3R0HJdQwUdwfcVK1ao+TrXuHurdbwflglo2a2n8RoE0gHvgfd6/vnnVSACgQXkRx05cqTrdnhU+hGYsFsnvXwNwQj87Z577jHnRK6/XnSWOSaqZfjqdb+aU5UPQXe00P76u5/MOZXvq4+mqJbgwbQ8x2uxDCyLiKKfTgNml24LUKag5TMGlAW6LMPx/9VXX1Uto7Ozsyu88Nm1a1dVnuB1eP0ZZ5yhAuxWTz/9tFqP++67TwXX0RrcWoahbEIZBFgnvB4XhdFSHc/D3VAop62tud3LO9zhhWUgoH/uueeqeYDxJ554Qn0WrAPKOZTFb775ptxyyy3qOWvXrlXbyn2dMO0O80FfQCZ7yEWNNBgjHrnF1VmmHuZ9NFFatUktkzKDiIiIiChcmBqFYhpafSGobW0tFgqocNvdjh3LUPFHS3K7VDNlhCk1CnhK5+GeLgR/s04D5nU+q51quY2g9byXHpAbe1+o/vbWohUybtJc2fTLDklr1sjn9CbISX7lzePV69zpVtvWADlaYWO5Q++fLjNf+1CG3HqZvPjUcPOvzvV4ee4yWflNtgroJ9aPV63d9bq4f05AMNtuPlLEPPvie67P9J83xso5HZ2dclm3I1i3JXKGW9f5hmsvUI9Ll61W6+S+zoC0Nc+/9L7HFvH6c1capkYhUtDSGRdD3dNtBQsBY5Sv3u6aijUo+9FZdEWfmalRRB65/0XVASXyWw+5r48r5zY6SPx25UbVEeedo/oKclYTRRqmRiGqfEyNQkRViS3CKaah1dcPP/zgsVU4+Qa3g6PjUOQ/jwYLFq80x0QFjxHw3vfLXHOO0+Ztu+S3raUdXn33vbPVOHKM3zR4khw4eFS9BkHwydMW+tQRZdvWaZK96gVX0BsQ9NUtrTG0P7m5+RcnBLsbNqinxr//cYt6BLwf1uPM09Ll0Lb5MnHsrSrwjHVB4BwQrEYA352n+V8udQZvEKC+5pYJahzct42V+zr/8ONWeWHyndLvuovVNAL42GYa1g252/Ee3yx7Sg0a1ivYlutE5Dvk/kaLap36gwKnW4tXp8B/oNASHKlRdu3c5+qcE8OtVz8iSxd+KROeHcYgOBERERFVCQbCKabp26zvvvvukAbDdW7R6gBBcORC/89//uMxT2wkQVB27oL/qXEEwWc983/SKCVJDVabt+5SLaLHP9hfTZ99ZjvVohs5xeHuwVeq1+g0KwhAhyLXeMMGpa0fPl/1o2qF/uA916t1RdBbw/vB4o++UY9YP01/PkhJTjTHynKfj9zp1m2AQPW3a39R4+7bxp11na/qea56vg7ew6Ilq9Qjth8C44CLAdi+GNACHdBSXb8nEYUH7ohat26dK5d3KOTm5ppj1QPOH9DXR7RcDK5qDRrWlwFDesmL80aXSYuCzjGnvnSvnHv+aeYziYiIiIjCi4FwinkI3qLyijypujOwYKBCjFzZejyWYXuhg0+0rI+EDjIrglQgSPExbOQMOa19K5WyY91nz7nSnbjTgWLdShnPe/vdL1Sra7AGnrVl/1tnjoWGDiYjsIxW39YUI1h/sAahNb2OwcrNO2yOBQet5wHbz07L5s7b4iFU70lEvtPpwXSr5mC9/LLzgqHuXDKWoZzH+QNylEfDxWAiIqoeln3+pfS7836p3eJUcw4REfmCOcKJ/IA82eh0y6q65Uj1KgJyhHvi7fkIpqPVsie+5ra25tV2f01Ff/MErdzHT55XJuc2gvfgng/c23xP26CibWO3zkjdoluto/U3UqggNzjSoljngfX1vnxPQWOOcKJKY9eJJE8lSzFHuHfoTHPt15vk0aeGmnMiG9K6eNO4aUNpltZILu99frm0L0NvmigbfyhNfeYOreXtVPS+p56RLgPvvkZGDH7GnFPezXf0VI9vvlza0aw3WO6Rw/ly+/Cr5ZLLI7sBRGVhjnD/zXz9LXnu5dflp183q+ke3c6X+4bepsYB09UFtsX/m79Ivln7g5pOrF9PMs/uqLZHSsOG8s77H8oTY0aqvwUDQfBPVqySqf92Xpgu3L5RPUYL5ggnoqrEFuFEfkDAGxV+68AgeOzQLZtB5/a2DuHObY00IhmZw1S6lodH3WTOjVy6I013Bw4eUY86XzsRRS/3MhADkS/QWSaCwq/OWCw3mUHaaIBA9cy3x5hTTggY65Qv46YOkaNHClSwe+qjb6jOQq2QImbJqmekVZtUc44T0sR4CoKDft+EenXNOc6A+7yPJqplIsUMnoOc7FaYj/e7c+T1asC4ezoave4Y8HcsQ78PguDo0NT9cxDZGfbgOPnHY5Pl/+4YoIKxGK697K8y8L7R0qu/94tIsWL19xuk5dkXqW1x4Xmd5acvPlLb4revPnFtj8wrbzCfHTxcXEBAHYF2IiLyDwPhRER+QEtrtJ62G0IJnWhmXTtaNv2yQyY/eoe0aVW2Ah2J0FmoTumCFuAI5GPAZwB8Dm/5yImIKPYgCH5n/ydky6875bX3HpWMDq3Nv0QHrC+C33bQcvof//qbOSWy/MPV8skHZVPnIW9614vPNKecfMmVjvdNb3eiOSWq1flJLUrTjYF7C/S2f2mu3k/DOOZ5gr9jGc++6mylis+DDk3xORgMp4ps3rZdZs15W4YOuEmGDLjRnCtqfN0n70naCWX31ViFIHiPG2+TQ0eOyLK3XlUB6jatWqi/NUpu6Noef2nXRlZ8vVrND5VTT2EDEyIifzEQTkRksnZWiY4s7SCth3tLcT2E0qB7n3PlAkdHl9ECec5fmHKnav19bo/71YBthpQo0fQ5iIgodF58eqFs27xLrr3p4jJB2ljhnkbkpx+3mWPRA0H3du2dwTsE6bMu66yC4a/PZCexZO+3bb+rxzYtnfuNFQLAY++905yKbbfd+6Bxzn5UnhwzSjqfaZ9WB9vjvVdfMKeIiKgqMRBORGQaNOBSc8zZovm3rTnmlLMleEX5w0MJ7+PeIWa0dDKJFuDIZ75t3cuuCwRhyQtOREQR6Zsvf5T33v5cjd8yuPwFUbQWR8vjSzvfpfJiI+919oat5l8rhiDttReNVK+zG2ZMecd8ZnglmZ1hRwNrq+9R4waYYyLdenRSj9jG+I6IPEF+8P15B8ypUn/t1tUcK4XnoYPHlPadVSePHbpfqfJqW51/9U3qbxgwrlnnP/iYsx8atEpHehYsDzCOv+M9NOTTRpoW/VqMoxW3O8xzfx6WX5G3F3+gcqMjRYm1VbwdtBK/+tIsc6oUloHtgPfE58C6272v+/rheQcOla8f2G1jbAMiInJiIJyIohI6ZrSaOmOROWZvf+4hc8xp87Zd5lipczqeXCbP9ZU3j1evQ0D8u+9/9TmY2y2z9HZn5B1HZ5cIEDunSyuT23b8aY6VlZKcaI45ITDepnXZ1Cj687gHyCua774N9HM8zdes66zzqFvzqVv/fs0tE8wxIiIikSULvlCPyJHt3hpcp0xBy+MBQ3qpfNXr1/4q99w2xWvwdfK412XmM4tk354DKpe2NY+3zp+NHNnhYE2FglzbWVHS0SS28arP15tTZelW7vlHj8l/3vpMjRNZIU810n0gENy2yyXlAtoI/Fo7ykRwF88D5M7evX6VnJFxigwf/WiZwPWX782TOTOmmlOlMH/CP+41p4zz1zzjt//GWzLv3fdVi2wExw8cPKiC0h8sd158wzrdMOQe1Vklcnavev9tFRRGKhNrsBlB5j53DJfbbuqjnof3x/Mu7nOLbZBfe3Wes+N4X1OU/OOuIeaYEwL3Q0f9U55+9CH1vm/PfFat+9k9e5cJ1mMc65zcMEltN+Qg/yH7Z1cHpRrWtVvv/tLypBMld9Nq9XkPHjzkMfhPRFQdMRBORFFF5+gePeE1c46Tnv/AuFfMOWU1PrmfOeY0bOQM2+e+NesfqqPMtGaNVG7rDhfcJS+++qE8dG9f8xneoVNNHVCfu+B/6hFB9i49R7ryZcPb736h5rnDc3WubawHAtOYh/UCpB156F+vqc980+CynbXic3qa774N8Bw819N8cF/nma99qLYzHjX8Hc/Da3J271cDlqlzp+tBP4eIiKoPBLmhWVpj9WilU6YgeIxAOALlyImN4Cv+5skf2/e4WpkjdzfSemBAZ5KAVui+tioPFoLg6FwSsC7Ite2exzsSYRs+OvIlta090R18fvTeKvVI5O7VZ55QwXAEohHQRqttT62PB9w9SpLq15e5M55SqUIwYBy5xOcv/rDM6264yj6dXqczShub4PXIx20NQmN53320SA0ICqPzSuQw1wF5pC45t+MZatwa4L7nnxOkX5+rXO+Lx0H9b5CcP/fIS2+UDfBbbdj0s3pEB5n+wudFjnWkVNHrh0dMY3tinTQE6fE59bbDRQa7VCuTpr8kDZMS1XYBfN4p4x5U4w9PelY9EhFVd3EOdvdPRKGUb5wQHnWeFFL1k9Sqb7m0Lu5+XT1TdaxZaWo3FmmQaU4QEYXPgSM5sv73JeYUISCNVCdw8x09y7XQRjoUBGIRQH5x3mg1b+hNE2XjD1tUEPaN9/+l5rlDug60Bge718LUl+71qUNKX1mXbcfb+yFNy5svf2ROiWqx7gtv7+vObju7v7c7T+tifW9f1zfapTfrIic1ss/zXBWK92wTx7HSu/AiFVpjv/j6PBXABQSbX39+sqvTSLS+/ssFPVVw+YUnxql5GlptI4iOIPDSOaX7GdJ6YDloCa4heIzWzSP+focr2Ivg+zdrf1Atqq2enDZTxj75jGo9rdfDDlpKZ155g2o9bc3xrV/vvg5WWEewro+v0AoeFwDQwhvBbauWZ1+kgvBYp82/b5f+d46Q6RMfKZd+RT9Pf3akQ3nwriFlWp7rzwfu26iq1GzaUuLqxl5/EUQUHdginIiIQmbBq6NVi/WK/LalfFoaIiKqXtBiW7dGRrBV5/XWgVe0FI9UCL7P+2iiasmuzX7+P+ZY5cH7IiDtPvgLr0EqGX8uFISrhT1FJwSB0Qq771XOOxoRmLam95i/+AP1iNbK7nQrb08tyQP13sfL1WNFQXBY84Ozg3wEi3X+bQwIgsP2P0r7DAolnb7FPQgOHdqfoh7fef9DefeDZWo8vVVz9WjV4qTShiW42IALEVhv6+fQQXCwyz1ORFTdMBBOREQhgTzo1902UXr16OzqKFMP+36Z60oX454DnYiIqp9DbjnA3YO7GDzxlIP7yOF89YgAdfsOrdV4ZUH6E6Rz0RDAR0v1aIFUMo9MGexKJ+ON+/dF5A4BZ6TuQKtunS4FKT0g98BB9WjH2gq7KqDFNaBlNlpMuw+/f+c5R75Os/L7HzvVoz9063k7Z5z6F3MMfQr5tuzftv2uHpHf3O5zYPB2UYCIqDpgIJyIiEICHYoiLcoPP251dQ6qrV73q5qPYDjynRMREQUKQeirb+imxhGARmtlDLoV+Z2j+pbrmLMyIBCOVtoaAuHIvR0sdAQaDthGZ57tW5mcFIbtSTbiIre6jhbcdq24keLk80VzVKeVSNthfc4PG38yx8pDrvDK4K2leUrDBurxvytWqkd/XH1plnr84uvv1GMgKurEsk1L3wPXKQ2dF7U+/fJr9UhERPYYCCei0IqrZY5QdfP32y6XF6bcKS2bN5Wsa0e7OslE3vCHn5gj9wy9WnVGSkQUq2rWYBnoK/cW28gn7o9R4wbIiEduUa2/h9zwmBqQ6gO5uq+98SLzWZXv4cmDXSlSkOpl/KjgcmkjoP/rpvClL3j0qaHmWMXQgrw6KCr23HlolYjgQDgsXOpM2+EO6T4uz3JerILrr3SmTFn1XflO03WnlRecd7Z6DBXdgeUr8xaoRyu8J3KTwyUXdlWPr86z76BXP8/O4FtudAX8K3qehlzqmu4g8xObAPyBQ4fV41+7dZUzTm2vxj1taw0t67EuS5Z9WqYjUM2X9QubuJrmCBFR+DEQTkQhxsNKdYZg+Efzx8uhbfNdaVEw/tVHU9TfwqJGxTnKiYgqS1yEB63CDYFpHST+7acd6lFDa2RrjuolC74wx5zQwaOGFtLIH37Llf+Ug2aKDgSMX52xWN755ElXKhVPHVa++9ZnqmNODHgdloGOILFMPOplBiLUKVKemTBX2rWPjPQFOtVMqzap6rE6qFc32RyLDHG1Ivvi2rx33/fYovmH7J9VYPbsMzqoIC3SiCAdiHtA9p3FH6rHCf+4Tz1a6YCwpvN526UicQ/+DrnF2bEkOqS0viee1613fxVkBqwbWqOj5Tg6sLQuB6/TqVPsIOD/5JhRavwfj02usHU3lqXzocN9Q29Tj9NfmaMerRDMRr51pDLp06uHmme3rd23Dy4+ICiPz2fNB47Xvfvhf82pqhdXkxeNiajq8GydiEIrrrTjKKIqwX2QiKpInVr1zDHSMrudrh535+xTj1aD7rnWFShf/uFqFbAGBJKvsbTqfu9tZ6dySH3yxkvOTvceGj5NPfrig0VfqtbaGBBo3rRhq6tTTjy++LR9S1ANwXP9fNids79MChT3FCkzn1lUJhiOQPvHi78yp5ywTCtMjxj8jHqf+okJrnkVvS+4B91xwcEa2Me4+0UIXwP1OtVMz6sz1WN1ULtmhF1Mj/C7TBDY7nHjbfLktJmuwCseEVD+6dfNKkisO4N89l9jVWAcAWOdrgSPmJ7wj3vL5a9Gi2ksA62o8bxhD44z/+LsaBLz16zf6OrMctL0sndjYHkj/n6HGh8++lHp0P1KOf/qm6TZ6Znyf3cMKPN+C1+ertYNQfO2XS5Rz2t59kXy3MuvywPDB5vPsjdkwI0yfeIjrm2B9bIGrDHeq79zGTdcVdooBJ8PwW4ErnUAHgPGYZqxTNDP08tHQF0H7Q8ePKSeg22D98FrkJ8d2+0vF/RUnwOfG68b/8A96rlVrkZNEQbCiagKxTkM5jgRUfAK9xu1Lv9z7BGFTL0MkYS25gQRUXh988scOV7kbElLogK3N/UcrcaXrHqmXO5uBHtnPfuuKzUKWnQjQG5NxYEW4QiGt2qTKjPmPKgC2Qgae4Kg9MC7r3G1DkeAfcbk+Wr82VdHqlbcd/Z/QgV60Vlks7RG8uI85zq6Q6txT/A++nX4nLf3flQF2zUdHLcGs32BlC9TH33DnCpPf76KtsHNd/RUj2++/JF6tOOpBT3g+8DycaECre7DkXM9EnRqc53Uq5tiTlU9x9EDUrzf/44YwwHBWHSCiTzWs998R7ViRlAXELxFi2ed/kNDsPbhSc+6AuEI2j58//AyAWINAfUBd4+Sb9b+oJ736jNPGO93QAbeN1qG395fTm7TWm4ceq/5bCe0Ov/yvXnmlBOC9Gh1jXVDy+8p4x60fT+s2z3/nKDeD0FxtK5GYFkH8r3B+k5+Ybas+Hq1CkQD3g8pX9Da3VNHlQicz124WK1fRe+L5734+jwVEMfnxIUFrG+r5ifK/UPvcHU6imD6XaMfVUF9wHeAIHhVd0qqxdWOl5rNSi8cEhGFGwPhRBRajiLjDMx54kVUJeobJ/rx1SOXKRFFnnVb/yOH84PvMDGW6EA2grN3jrzenBscpDmxBp3tzPtoogp6VwTrtuuPfSooTKUeuf9F1Up/yL29y6R+iXXntLtZ6taOnKB/ScFhKdkbvpzxRJUtrm59qdm0pTlFRBR+TI1CRKGFzk9qR05LGqpmkJ+3VmTl9ySi6iUpvok5RtrQ+/qo1tzvzvtfudQegZrw7DBXWhVP/vj9T3PMHtKGLHv/a+nVp2yr1eoOrcERBM+6rHO1CoIn1z8xooLgEFeb6d4oxsTFmSNERFWDgXAiCjHj5KZWI3OcKMyw7zEQTkRVKCmhmTlGGtJqIKVJersT5R/DniuXH9tfeP3Ye15Q+cd1R5l6QPoVBHAhqYJ0Hgj2Ij0KlnHJ5eeYc+mTD75V2xbb8NGnhppzq4cG9dLMsQhSo6bE1XHmjCeKBXHxieYYEVHVYCCciEKPgXCqKtz3iKiKNayXJvG1k8wp0hAMRz7t6wf8VeZVkLfaFz/9uE2lRfnt5x3lgurIH475CORa84y7mzj6FbUu1S3Y680r09+Tf/zrb9VyuzSsl2qORY64uBoSV5eBcIoR3J+JKAIwRzgRVY7c/yKxoTlBFCYNuojUZloCIqpaP+/8n/x54FdziioDOsBc8d+1sn7tr65c4UiVglbnl/c+X6698SI1j8gXtWvGy7kn91OB50jjyD8kxft2mFNE0QutwWs2se80lIgoXBgIJ6LKkf+LyNGfzAmiMKh7kkhiR3OCiKjq7Du0VTb9sVwcjhJzDhFFsjbNusiJjTqYU5HFUVwkJXu2iaPouDmHKDrVaNhUaiSxwQoRVS2mRiGiyoGgJHM1U7jE1RKpc6I5QURUtRontZamDdqaU0QUyZDOqEmDNuZU5ImrWUvi6tYzp4iiV1wd7sdEVPUYCCeiylHDONFhYJLCpa6xr9VhB3VEFDmaNmwrtWrWNaeIKFLht1qnVmQH6OLi2e8ARTl1QYf5wYmo6jEQTkSVJyHdOOnhiTtVtjiRusw3SESRJaV+c2kawa1MiUikXt1kOaHhyeZU5IqLr6fyKxNFq5oNTzD+b5yzExFVMQbCiagSGSc79TswRQpVnhp1RBLPMPaxFHMGEVHkaNHkLKZIIYpQDeulyiknXiQ14mqacyJYXA2pUb+h8chAIkWfuIQGaiAiigQMhBNR5ardWCShrXG04a1wVAni27A1OBFFrDq16stJjU6X5PpMFUYUSdAS/KRGZ0hifFNzTuRjMJGiEi/iEFGEYSCciCpfnTSR+hnGCE+AKISwX+EiCxFRBEtMaCJtmnWV2jXjzTlEVNXSUk6TRkktzanoUaNeQ+N/UdCCnciEIDjT+hBRJIlzGMxxIqLKdWyHSP5vIsWHzBlEAahR29kSPL6tamVCRBQNDhzNkR37fpDcw9vNOUQUbonxTaR54zOkSRTn7y858KeUHNpnThFFsjip2ay1xNXmhWAiihwMhBNReBXucQbDC/eaM4j8ULO+sxV43ehrxUVEdPR4nuzY+738eeAXcw4RhUtKYgsVBG9YL82cE50cRYVScmC3OPLZsIQiGFKiJDeTGvXZVxQRRRYGwoko/EqOieRvEinYYUzwEEQ+qtlApP5pzrzzRERRyuEokd/3rpWc3B+lqPi4OZeIKtMJDdtJ6xPOkzq1YqPPGsfxfNUy3HHsqDmHKLLUaNDUGJqYU0REkYOBcCKqOoX7RI79IXJ8J5q3mDOJ3NRJNYYTReqyszkiih1Hj+XKnoO/yd6DmyX/+EFzLhGFSu2adaVpw3bStEFbSUo4wZwbO9AiXAXDi3hBjSJLjcQUqdGwmbCDTCKKRAyEE1HVKz7obB1euNsYP2LOpGqtRi2jBmucQNfBgFuYeSJNRLHpeFG+7MrbJHlH/pCDR3eZc4koUPG1k6RxUiuVBzwWA+BWjiN5UpxnHDdYpacIUSMhSaVEkZq1zTlERJGFgXAiiizoSBN5xIsPO1OolBQYJ/eF5h8pNtUw/qtrnDDXM0ol47F2E2No5JxPRFSNHCs8IrlHdsjRY/vleNFRFSQ/bswjInu1asVLnZoJKuVJ3doNpFFic6kfX71SqJUcyZOSXFxEY7WeqlZc7bpSo3FziatVx5xDRBR5GAgnIiIiIiIiilKO/INScmi/yh1OVBVqJDWWGomNRGrWMucQEUUmBsKJiIiIiIiIohg6zlTB8IJD5hyiMKhZSwXAEQgnIooGDIQTERERERERRTtHiZTk5kjJUXbAS2EQV0NqpKRKjXoNzRlERJGPgXAiIiIiIiKiGOHIPySOowelJJ8BcQo95AKPS0iSuHoNmQ+ciKIOA+FEREREREREscRRooLhKn94ATvdpeDFIf93QgPVAjyuTrw5l4goujAQTkRERERERBSLjOp+yeFccRzNE0fhMXMmkR/i4qRGfKLEJTWWuDoJ5kwioujEQDgRERERERFRjHMcLzCGo6pjTcexfJGSIvMvRGUh4B1Xt55zQPC7Rk3zL0RE0Y2BcCKqEiUlJYLDDw9B5IsaNWpIXFycGoiIqPLpMhrlNVFFdPmMspqiSEmxM2VK0XE1LsWF4iguUsFxR1Gh+SSKaTVqOtOd4BG5vjEeZ4zXiZe4umj5zfNuIoo9DIQTUaVCBbqoqEiKi4tdFWoedihQurKNoWbNmlKrVi31SEREgUMZjQHlNcpoPRD5SwfEreU0A+REREQUKRgIJ6KQ08FvHQAnqkyobKOirQciIvJOB74xsNU3VSYExDHUrl2bQXEiIiKqUgyEE1HI6Ap1YSFvp6SqYQ2II0BORESlcNqvy2leqKZw0xeuERDn3VxERERUFRgIJ6Kg4TBy/PhxNRBFAlSw69aty4o2EZEJgW+U0wiEE1W1OnXqqIEXrYmIiCicGAgnoqCgUo2WZbytmiIRguFoecaKNhFVV/piNcpqnvZTJMHFagTDmdaMiIiIwoWBcCIK2LFjx1ixpoiHQDgq2sxLSkTVDS5S6yA4USRC2azLaSIiIqLKxkA4EQUEFWsEwomiAVqdJSQksGU4EVUbOMUvKChgKhSKCgiE4y4uIiIiosrEQDgR+Q0BcATCiaIJbr1GJZstw4ko1jEfOEUjBsOJiIiosjEaQER+YRCcohUCQth/ef2XiGIZjnFIhcIgOEUb7LdM40NERESViYFwIvIZKygU7RAY4oUcIoplOMaxrKZohIs4vJOBiIiIKhNToxCRT3CoOHLkiMfWtMWOODlQWEOOldSQ4yXMw0xVo4ax68XHFUtibYck1Cwx55YXHx+vOuciIoolCCDm5+ebU+UdLoqT/JJaUmA8ej5CElWOOONfnRolqnxuULvYmLKH/jzq16/Pfj2IiIgo5BgIJyKfoMMtTy3MDhbWkJyC2ioYThQpGtUplmbxhbYVbXaeSUSxpqSkRJXVyA/uDuUzymmU10SRIL6mQ05KOC51a9hXRZErHDnDiYiIiEKJZ8NE5BUq1Z5uUz1kVKp3FdRhEJwizv7jNWXvsZrmVFnYp5k6gIhiCcppuyA4/HmsFoPgFFEKiuNkzzHPjShQRuPiDhEREVEo8YyYiLxCZcTTzSOHi2tKEe8roQi116hkl3i4+RpBI1ayiSgW4Fjm6YJ1oXGYyz1uf1GQqCrh4szhIvvqKPZpXrAmIiKiUGMgnIgq5K0ikl/MwwhFLlyjyffQ5xZbhRNRrMDxzFNr8ENFDIJT5KqoXxl0nMksnkRERBRKjGARUYVQCanIsWKmRKHIVljiuajzFDgiIoomFV3UK+aNLxTBCr10sM4L1kRERBRKDIQTkUdoheMtUMh2OhTpasR53ksrakVJRBQNvB7H2CkwRTGW0URERBRKDIQTkUeofDCHMsU6VrKJKJrxGEaxjOeiREREFEoMhBORR6xcU3XA/ZyIopmnTjKJYoEvdycSERER+YqBcCLyiC1wqDpAEImdcRFRtGKQkGId93EiIiIKFQbCicgjBsKpuuC+TkTRiMcuqg54sZqIiIhChYFwIvIoFBWPrz9bJl2a1/E4LHx9pvnM6DDwqgvUev+xbbM5xzd4zZWdWplToeVtG0977CHzmZVLbxsMWCciIqpclRkgtB7T3YdQl2dYnl72mGH9zLnRqaLthiEcrOcFWJ9ox0A4ERERhQoD4URkC63MQlHxOO+iHvLVjuNyWsdz1fQlV12vpp+ds0RNT3rorkqv9IYyELz7j+3qccfW39SjL3TQfO+fOeox1Ny3cZMT0tS0nvfGC1MDrnz7s+1mL/7CHIs+bFVJRNGoMo9dOKbrshoWfLnJVa6gPEO54u9FYTsI1GJ5WD7s2vG7eoxW7tvtgcenlTnvwXYL5LwEwW1fLzLjvOCWYSPMqejHQDgRERGFCgPhRGSrsisdqKQhKA6fLH5HPVaGUAfZ31+zTVVosf6+OqlVG1dgOtyswWl/W4Whtf7ar1aYU7GNlWwiikZVcewaP+01c0xk0dYkjZwAALb1SURBVBsvmWOB+3HtN+aYqHIymi+qVsQanMYFan/vnPrXfYPMseoH+znLaSIiIgoFBsKJKGahxVVlBtmjhb7ggGCDr633UEFHa/3qghVsIopGPHZFl963DDbHRN6b94o55p1uNV9dMRBOREREocJAOBHZquwKBwKtOkitW0hhnjWnpXVa09MYKgrqIgiOFlegU4Pg+ZivX49xPa1bS1vzlOrnaHiOno91w/L0NF5nXbY197mep+frcbRWty7T/fPo+e6Dv9Kal+Zy/frz/6pH63q4Lxef7Z7+V6hxBM/xN/15sM7W1+jt5u7bL5aXeZ6VdbvpAe+pWbcjBuu2tG4v63wiIgqPh++61RwTuWvM4+rResy2Tutju/W4ru/U0mWBdt357cuUBXbHe+tyMK6nrWWR/jsGXa5ayy5r+WeX69z6vhisrPPdy2xf4A4x7fuvvzTHvJ976FbzKJv1OnsrS62sn8m6bPBWrlv/Zt1eeC+7+ZUlLi7OHCMiIiIKHAPhRBRWCH6j0qQDrciZqSvS1tuGUembOeVR17Su8On812jljEqzJ2h1dZqZMxvLwGtQAcV76fk6UK6nUTlEiys8X+cqxXN0Zdf9dm0sD7k/QbfU0tMvP/2YegRrrtA+A4aUSQkzZOQjrukZT4xVj4DPCnitXhcIJL3KiS3TzbFSurW33paggxPNW7d1bXdsGzwH641KL9ZZz8N3ge/JLiCNlCp4jt4e1kqyDqLgs+m/61u+sa2xzXVOVb0egGXg/bA98Hd8Bk+VfiIiCi2UuSibcBzW5YBmLefwHOs0yhZ9XMfxG+UIyludNkzD33TaMU/H+4rK8IrOEx57Ya6aD1gW/o5plN3uF1v1++ryB+vq7zlIRfR6aN7OPaypaLBdkaINKipLrfB5cK6hPzOWrT+zt3Id353+zBg0/B3ncdgOer57AJ2IiIgoEjEQTkRhpStNevCUaxsVLwSeUenF83Qe0jPPO1896lbOdkFYsLa68gTrguXjfazvhUd/YX39fR3e3+7z68ovICht/SyhCvzq7W/H07bDuuI1vuRvRaUbEEAHVPL1uuP1WI7dZ9fvjUAFvltsUx2ExzKwnfGck8zgvj+3lhMRUeAQpNVlR0XlgA5o6+M8Aq1wXre/uo7xHy6Yqx7t+Hq8dy/DfT1P0EFjd3hfBIH1+1rPCfw9B/GH9X3s6G3mrqKy1ApBbv2cy65zXvBe8rYzuK6/J0/fJz4nvgt9MVsH4fXrz+56sXpsdlILte2s5y9EREREkYiBcCKKSKhUWeXscFa+UKFGqyzdEuynDWvVtHXwtWJqTRlihddbW3rt2PqbORYe1kov3ttasfRW4bXz3cr/mWPOQIQVKrc6SLFrx+/q0RvdMg6VY9j5+xb16C+0NNMt0/WyAJVywN/wPvCH+R54HubpOwp8XWciIgoPaxlmLb90i3KwHvPd+Xq8dy/DPZ0n+FpG6fe1E+yyNWwP/dl1UF0L9NzDU1nqD0/lOoLzaKmuvwudVmX3H9vVoy6nEQSHcJ8vEREREfmLgXAiigq6wouWTQiU6uGhJ18oM41Bt0L2l64IoqWTvj25quBzoFUaAgC6Yox5gdB5SLHtdIACFWd81n8+PUu1qvMVAudYH71+3liDIDqIj8o+3hvfqaeWeVi+vrUe76lbBAL+poeKWiUSEVHVsgbFcUy3Hr89CfR47+k8wVNLa3f6fRH0tZZdEOyyNd1PB1x90+3qMdBzD1/KUnc6oN+xy4XqEbyV67rFOj67TquiGysgSG7dHoFcrCciIiIKJwbCiSgqnHNBlnpEqyOdYgOVMQy+QODXG51vExXEqm7VhFZXuIXZWsEMBD63buGlgwjYfq5b1Y1Kq7dW1djGeI3OY4rKMOjl2kFnmaAr/dZgu265hu/UrjUdKvaAddOvs1audYs0BA98+V6JiKjq6DID/X5oOp+0NeCsy91Aj/fBnifgfXUgWJ8P6PcNdtmAZenyDwFk/Tn9PffQ28FbWarp1tqgL4yjHxXwVq7j7/o7sOYq14F03TIesF7W75OIiIgoEsU5DOY4EZFLUVGR5Ofnm1OebTwYb47ZQ4VR39ZshVZP7nkv3Z+LiqK1tZX73xEkRQdYnlifj9ZSaCmOCp214oYWaroyav0bKoW49VdXChGI1p1oafgM1tuY8Rrr3/X66cAupLVoLTnbt5pT5V+j19P6Giv9dytP21ize411+VhPHRi3bnP9HP057La/fp3ejmhZhhyieNTbzv17tG5H6zKwLRCsR2VazwPrvmJdbwQsdL7SijRPOC4NapeYU/bq1KkjdevWNaeIiKLDsWPH5Pjxii+U7jlWSw3+ci/zQJcH7qzHZn0st7IrP8FahoK1TLY73ldUhoOn8wT3cgXr6L4+3soZX89B7LabZldueTv3AOtz9Lp6K0vxGt1Ztg6ag/XCurdyHRe10Ypcz7N+Zvfvwu5cwxfJtYvlxIRCc8qzxMREiYuLM6eIiIiIAsNAOBHZClUgnALjXsG0CrR1eHXFQDgRxarKDIQThQMD4URERBROTI1CRBRhcGsxguBo9YWgtx7Q2krftk1ERERERERERL5ji3AisuVri/CfDtWVYgdb6ISa+23c4GsqECqLLcKJKFb50iJ8//GasqugtjlFFFlS6hRLWjxbhBMREVF4MBBORLZ8DYT/frS2HC6qaU4RRZYaRp25beJxqR3HQDgRxR5fAuEoo1FWE0UiBMERDPeGgXAiIiIKBaZGIaKgNKhVcYCRqCrF1yzxGgQnIopl9WoWS90abPdCkaeGOCSR55FEREQURgyEE1FQkusUe007QVQVahkl3Ek+3G5NRBTLcGcMOiNE0JEokjSLL5LavEhDREREYcRAOBEFDTmYU+MLpQ4rMxQBasQ5pGGdEmlb/xgr2EREhoSaxjEx8bgk1SphQJyqFC7MYH9sVe+YTylRiIiIiEKJOcKJyJavOcLdoePMEh5VqMo4pHYAl3iZI5yIopEvOcLtFJYw1zJVjVo1HBLI3scc4URERBQKDIQTka1AA+FE0YiBcCKKRoEGwomiDQPhREREFApMjUJEREREREREREREMY2BcCIiIiIiIiIiIiKKaQyEExEREREREREREVFMYyCciIiIiIiIiIiIiGIaA+FEREREREREREREFNMYCCciIiIiIiIiIiKimBbnMJjjREQuRUVFkp+fb05RqOCQu3fvXlmzZo18n71Rdv+5R/bt2yf5x46Jo7hYHMa/GnFxUqNmLamXkCApKcmS3qq1nNepk7Rt21aSkpKkRo0aEmc8BwOFRp06daRu3brmFBFRdDhmlB3Hjx83pygUWE5HpsTERG5PIiIiChoD4URki4Hw0NAV6iVLlshnn30mP/3yi+z6808pKMiXwmPHpcSoVBcb27oEh2J9OEYF26hE16hZU1X6atWuJXXrxkvdOnXkhBNOkMzMTMm6+GLp3LmzUQFPkZrm81hBDBwD4UQUjRgIDx7L6ejAQDgRERGFAgPhRGSLgfDg4fC6fv16mTZtmny8bJkcPXpUBSxQqQ4EKoCodKOi3aJFC7nooovktttuUy3QEMjVLdDIfwyEE1E0YiA8OCUlJbJhwwaW01GAgXAiIiIKBQbCicgWA+HBO3jwoNx7773y3nvvVUqgArdfd+/eXaZMmaLGEcjVrc7IPwyEE1E0YiA8ODk5OTJmzBiW01GAgXAiIiIKBXaWSURUSbZu3SrvvPNOpQUpDh06pFqc796925m/ND9ftW4jIiIi77777juW00RERETVCAPhRESVCLdIn3nBhVK/QYOQtWSqVbu2NEpNk7oJCVK/fn11K/eRI0dUy0BWsImIiHyDG2NZThMRERFVHwyEExFVojp168rA8Y/L5bcPktO6XiCtMk6TxmknSXy9elKrTh1VWa6JoVYtVRnXA6bxNwy1jWUkJqfICS1aSpsOp8vZf71U+v9jjLT8S3v1HqhUFxcXqwo9ERER+Y7lNBEREVH1wRzhRGSLOcKD98MPP0iPnpfJy2t+lBJHieTt2yN7tm+X3Tu2y5/btsn+3TmSf+iw5B85LMfzC6So8LhRUS6S2qriXUfqxMdL3Xr1pWGTJtL0pJOk8YnG0CxNWvzlL0bFPV6euGOAOA7myeTJk6Vhw4bSrFkzSU5OltpGpZz8wxzhRBSNmCM8OIsXL5ZBQ4aynI4CzBFOREREocBAOBHZYiA8eN9//71cetnl8tLqDTjaSomxTQ/l5kq9pAZSu24d81mBe3LQ38RxIFemTp2qOuFKTU1VFW1WsP3HQDgRRSMGwoOjA+EspyMfA+FEREQUCkyNQkRUyXC5saRQZNEL0+XBqy6Td55/xqhsxwU98DImERFR8FhOExEREVUPDIQTEVW2YlSG46Sw4Ji6pbr4eKGaDnYgIiKiEGA5TURERFQtMBBORFSJioqKZOM3qyTO+HfZrYPl748/Iz0HDFTTwfxTHA51WzwzXBEREQWG5TQRERFR9cFAOBFRJSouKpSP33xN1q9aITVr15EzLsySRqknCarEgQ65e/+U/y14S3K2bpGaNWsac4z5RiWbFW0iIiL/sJwmIiIiqj7YWSYR2UILqWjsLPPIkSOydt06WbdhvWz/Y6fk5ubKwcOHREpKpLi4xDjqxUmNGjVUR1VJiYnSuFEjOatDBznDGJo3b646TERnTHoIBjrLvOSvPeT2cZNkzacfG5XtIklt1UbandVZWrc/TeomJEiNmrVUJTnOWCfn+2EwKsslDmOVS4yhWFXS8w8dku0/Z8vmH7+XnVt+lQRj3bO/XiknNm0kkydPlgYNGkizZs0kJSUlJJ1wRdJ2DAd2lklE0SjaOsssLCyUjRs3ytofvpfNv2+X3P37JfdAnjG/SByOEhUoroHyxSgbE4wysmGDJDnpxJOk85lnyiknnyxNmzZVZQ8GCLZ8QWeZt98xMOrK6epWRgM7yyQiIqJQYCCciGxFQyAch6+DBw/KBx98IJ999plk//ST/LFzp7HeR+X4seNGZbBYHMZQZAzGk50vMit9qlKLcVQUEQSNj5f6RoUXFcSLL7pIul14oXQwKoz169dXlclAKosIhPfoeZnMWLFRfv7ua/lp3beS92eO5O3bg9WQ5KapktgwReonNZC69epJrVq1jQp3TZWftPD4cTl29KgUHD0sB/bukf3G62rVriNJKY0lrXU7OfOCi+W1x8dKzaMHVAU7KSlJUlNTA6pgR/p2DAcGwokoGkV6IPzw4cOybNky+fzzz2X9jz/KH3/8IYePHFHrXFRYqAK3KFtUdcRSvuhgN8qWmrVqOcsXY0BQ9y/t20uWUb5kZmbKKaecoso8/Xx/IRA+cPCQiC6nWUY7MRBOREREocBAOBHZivRAOFphbdq0SWbMmCEfG5XsA3loUVZYtiLoJ1VpNCrc8XXrSkZGhmRlZUn//v1VxRWVVlQo/aEC4ZddLjM+26imi4xKc4FRcc0/fFB2bvlFdv2+RQ7u2yuHcvfJkYN5UmJUrLVadepKvcQGUr9BsjROPUman/IXadzsJImvnygJxnysy9Th/SXuSK5MmjRJGjZsKGlpaerRnwp2NGzHcGAgnIiiUaQGwlG9+OWXX2TmzJny0ccfy59//qkCxypoG0TVA0HoWkb5goD4GWecIT179pS+ffuq1taY72/5ogLhQ4ZGbDmNbZWdnV3ty2hgIJyIiIhCgYFwIrIV6YHw3bt3y7hx4+Sdd95RgYDK0KRJExk8eLAMHDhQVcAQLEVF21c6ED7tU2cF2xscjh0lJUZFH63avFf2nr77FpHD+1RLs0AD4dGwHcOBgXAiikaRGghHS/AxY8bIvHnzKu1cAgFbpBp5/PHH5YILLlDlC8o/f8oXHQiP1HJ63759Mnbs2GpfRgMD4URERBQK7CyTiKLSunXrZM6cOZVWMYS9e/fK+vXrZdeuXbJ//34pKChQrdn8gkuNJc7hm4/ek4dvvEQ+WzjHNc86xDnipEZcTWPcqOjZ/L3cEAJRsx2JiChqIAXKK6+8UqkX1FGO7Ny5UzZs2KAu6qJ8QVkWS+X0Tz/9xDKaiIiIKIQYCCeiqIRWWch52TnrEklMTlbjoYI8oM1atlK3YONWYVTk0TEVKqKB3ERTUowOwER+Wfet7Nm5XbZu/EFNh2IIVjRtRyIiih5ovXvWhd2kQaNGqhwIFSw3sWFDaZx2ohpv27atKl+OHj2qWsfHWjnNMpqIiIgodBgIJ6KohY6f7nj0cbn678PlzG4XS3qH0+WEFi2lXlIDqV23rtTCLdLId1mrlhpQ2cOgps2/1UJKjPh4SW56gqSlt5VTOp0tXa+8RgY/NklV3lEZRMso5NIGfyuH6FBr/arPxFEscsVt98oVf/s/ufTmv6vpYAe0YgtFa7to2I5ERBRdUE7c/MBouf6eEdLx4ixpe8aZRvnQRhKTU6QOyhak4EDZYpYvumzR5Ysue2rXqSsJiUnS+MQTpcVf2ktGl0zp0f9W6XvvCPU+1vIlkLIl0stpltFEREREocMc4URkK9JzhH/44Ydyy61/k//3/SYpcZTIkUMHZPe232XPzh2ye+s22bfrDzl68KAcMz5D/pEjUlx4XIoKCyUuroZRcTQq30bFum58gtStX0+1Kmt6UnNJadZMTjiphZzUtp16j//rfr70vqKX6ogLOT2RixSPvubORI7wCy+8UOoY73P98LFy4ZU3q8ppsI4VHJW3n3tUvv3kPWnVork888wzar3Qois5OdmvHOHRsB3DgTnCiSgaofVuJOYIR0qPLl27yozPv5bElBTVAeXubShTdsqfv/8ue3N2ysH9++V4Qb4UHD4khcecZUtJSbEKfKsAeHy81E2oJ4nJDaVJ2knSKC1NUk5oJiemt1GP27I3ypg+V8oLL7wgbdoY84z3adq0qavjTF8gRzg6iozUcnrlypVy9bW9q30ZDcwRTkRERKHAQDgR2YqWQPgr6zaJQ0qkpLhYjhzIU62f6iUmmc8Kzj1ZF0ifK68oUzn0p4KNQHj3rEvkkr6D5JP5L0nDxs2kbYfO0vovZxgV0Axp1OwkSWzYSBLqJxrPLl+5cziKjcrtUcnbu1v2/LFVdv3+m+zYnC3rVy43XpMkBfmHpXWLk2TSpEmu9UMgAEFdX0XDdgwHBsKJKBpFaiB806ZNknn++fL8/76SBo0biaMYQdyDqqPJJKOcCgUEwsded5W8+OKLkp6ergLMJ5xwgiQlJfkVCP/bbbdHbDn95ZdfyjW9+1T7MhoYCCciIqJQYCCciGxFQyC8/4Bb5eW1RuWw2CGrlr4n85+dJI1S02Ts/5tvPis49156vlwXZCC8R8/LZfLC72TDN/+Tb//7H9n60/dSeKxA6jdIUZVktHaLr5eoptWtzTVrSVFxkRQW5MvRQwfk2LGjkn/4kBw9fFAKjKGmUXk+s+ulcu4l18iil56QuiVHgw6ER/p2DAcGwokoGkV6IPy55askKbmx/LZ+nbw0dqTk7d0jjy/6WLXoDtb2n7Nl7PVXyMyZM6V169auFuH+BsIHDh4aseU0AuFoEV7dy2hgIJyIiIhCgTnCiSi6FceJwxFnVFqPOW+rVh1eOecFO8SF6DJhrVrxclbXy2Twwy/Iw7OWyS0jJslfOnaVGjVqysHcvbJzy0+S/d0K+WHlf2XN5x/I+pWfyM/ffyU5v/8qB/ftNSrh9eXcrGvl9oeelUdf/lRuuvtf0ubUzkZFOl4tX1cMa9SoEXglMQq2IxERRRdHibMcKC4sUuULlBQ7ypUTgQ6hEvHlNMtoIiIiopBgi3AislUUBS3C+/XvL//39ItyVrdL5OjhQ7J5wzrVoVbbDmeZzwqcUU2X+3t2le7nd5UhQ4YE1SL8qXd/NOeIHDAq1IkNklWLsmA9/9AtUqNgv0yePFmtX1pamnr0N0d4pG/HcGCLcCKKRpHcIrxLZqYMHj9Zzr/6OpULfMuGH+SY8dgh80IVYA7W7z/9KGP79pJHH31UunbtGnBqFLQIj9RyGi3Cr7r66mpfRgNbhBMREVEosEU4EUUt5MpcPv9N+faTj6TweKGceu750saoGOLqXqBDkbHMnG2b5d1/PydHDhxw3b6Ma4aBXjd0FDuH+TPGyz9vyZR5z/3TNS+YQa1wCETLdiQiouiBY/0X778rK/6zQA4fOCjtzuosp59/scTVqGlbbvg6HD92TH75fo0se/M1Y0qkXr166jGYskWXq5FYTrOMJiIiIgodBsKJKGrVqFlLuvW+Ub75eIm8Mv4hmTN5gnxpVLr/3LFDDu3PkyMHD0vB4Xw5nn9cjhcUSuEx3JpdpMaPHT0m+cbf8Jy8Pftky48b5POF8+WNxx+Rt55+Uvbv3mVUBp0VbF0xDKiCaDxf3Q5uvCylaZo0SW0pTdNal9ZGgxnw4O/62IiK7UhERFElLq6GnH9lH/nxqy/ltYkPy/+b+Ih88vZc2f7Lz3Jg7345cuCQ5B86Ksfyj5UpWwqPFarypuBIgfH3I3I476Ds25kjP65aJR++Nltm/nOkfPDaS3Lk0CHVQhitl3WZUlJSoh79Yrw2kstpltFEREREocPUKERkKxpSo9wy4FZ5cdUvsmXDOsn+bpXs37VTDuzfY1QAC6Rhk2aSlJwi9RIbSL2kRKlZu47zNmfjkFdUZFSyjUpvwdEjcuzIYaMyud2oiB+RukZFsEHjE6TlyRnSsdtf5eGbL5frrr5Crr/+etftwv7c0vzLL79IryuulIv7DJcLew0w6sQlRkU0RxIbNpbaZt7QQBUbn+Hf4++QgtztMn369IBuuYZo2I7hwNQoRBSNIjk1Stfzz5epH3wjh/bvlQ3ffCH7d+5Q+baR3qN+g2Rp2LipSvFRv0EDo0ysq8qWGjVrSjE6ojQ+0/H8o0b5clQO5e1X5RKqLAlJDaTRCWnS7oxORpnUQJ4Y1Ff+/e9/l+ksE+WLr2k9PvvsMxk0eEjEltNIjXLNtb2rfRkNTI1CREREocBAOBHZiopA+K1/k39/8ZOaRoXzmKo0H5E/t2+VnVt/kwN7/5TDeblyKHefUakuUM+DuBo1JD6hvlFpbCiJRgWyWau2cmJ6W2mQ0kTi69WXeFS2jH8jr+wifa7spSqHyD2qK4e+VrARoPjnP/8ps2bPll797pezL7zaqLA2URX+QBUVHpN9u3fI4teflJ/WrZALL7hA7rvvvoAq2BAN2zEcGAgnomgU6YHwKUu+lgaNmqj0HihbkCt8364/jLLlV8ndtUsOHzTKlv17pSD/iDgsrblrGeVkvfpJqnxJbtpM0tq0k6YntlRB87r1EqVufIJs/3mjjOt/ubzwwgvSpk0bFQj3N0f40aNHZdy4cRFbTqtAeO8+1b6MBgbCiYiIKBQYCCciW9ESCJ/xubNy6J1D3TKNSh8qh7544Oou0vuKy6Vv376qcpiamupXB1J4v9zcXFm0aJHcf//9RsW9niTUbyCtT+kkHc+/QtLbd5KGjVK9VOxKZM8fW2XT91/IxrWfyY4tP8qRg7lyQtPGMnDgQOncubOqUGO9UMHGegYSCI/k7RgODIQTUTSK9ED45Pe/lqSUJubcijkcJeIocUiNmihbvAc8t/+yUR7tf5kKhLdt2zagQHhxcbHk5eVFbDmtA+HVvYwGBsKJiIgoFBgIJyJb0ZEa5W8y4zNn5fCntV/JwhlPyAkt0mXgw0+recF64Bqjcnhl4JVDHF6xDXfv3i1fffWVvPfee7J582bJzc2Tw0fyxajvS526CdIgpakkNmgktdQtzbWlqPC4HD+OnJ65cuTQftVSrk7tWlKvnvHcpETp1KmT9OjRQxo3bmw8v6ZaH6yfviVcd3rli2jYjuHAQDgRRaNID4RP+o+zRfiubb/JvKfHycHcfTJy2jxBWpNgqUD4gOAC4QgaFxQURGw57UyN0qfal9HAQDgRERGFAjvLJKIo5pDiomKkwpSdv/0sOVt/le0//aimQzGod9AjAUCFDRVJVMrPPPNMdWv0+PHj5YEHRsnwO4fKDddfKxddcK60SmsotYtzpfjwH5K//zdx5OdI/ZpHpW3LJnJh13Ok/803yN133SkPjBqpbuHu16+fquxj2ahgx8fHq46uULGu4WMLsLIiezsSEVF0KikuUeVA7p+75Peff5Q/ftskRw7mlSkjghkg9stpltFEREREocIW4URkKxpahPfr31/u+Ocz0jnrKjl6+KB89dEiaZLWXM7oeon5rOA8eF0X6ZZ5rvz9738PuJUUDrForXfw4EE1YJtiurCwUN2Sjb/roSKorOuWUKhEYx0w6NutsX6oaGPanxZT0bIdKxtbhBNRNIrkFuFdMjPl5vv/JRddc4vKDb760yWqA8yLeg/wq5zyZMevG2X8bZfJQw89JBdffLE0atTI7xbhEMnlNFqEX3X11dW+jAa2CCciIqJQYItwIopaRUYldfaj98j7rz5rVCzrSvfet8rpXbJUjtFghv27d8qUu2+QA/v+VJVWzVsl2A4qbQiy4lZodECF/KCoqON2adzGjcomKncY6tevr1qMYUhISFADxjFfPwfPx+uaNGmiloPl4VZrPM/fILgWDduRiIiiCzrIfHPqWHnr2UfVcT+z53Vy0bUDjELA+M+mzPBnWL9yucwa/3/qfVAugi/BajuRXk6zjCYiIiIKHbYIJyJb0dAi/OZ+/aTXrffIf9+aKXXqxkv6aZ2k1SmnS4uTO0jj1OaSlNJY6tVPkho17TulKio6LvmHD8q+nO3y5x/bZPf232Trpu9l47crpNVfzpA/NmfLgFv6u/JmokKLR1Rk/YVDLVqW6cHa2gzbGnlKrS3PNFSY0bIMt1brR7y/HjCt/xZIEDzatmNlYYtwIopGEd0ivEum9Lh5qHz14TtSeKxA0k/tKC2NcqXlKR2kSVpLadCoqdRLbCC16yaYryoLnWeiJfmhvL2ydyfKl62y6/df5Zfvv5adW3+RE1ufItt//VFmzJghbdq0ceUIRyA6VspptAi/8qqrqn0ZDbjIEMh5DhEREZEVA+FEZCs6Osu8VZ55/0fJXvOFrF6+WH778TuVe7R+g2SJNyqF8Qn1pG58PanfMEV1dlWzZi00RJOi48ek4OhhyT96SAqNSvaRQwfU7caoqCclN5Zz/9pbzjy/hzw76ha57porVOVQtxTztzNKd7oCjQo1Bj1ufcSg6Qq2rkDbTWMIVLRux1BjIJyIolFEd5bZ9Xx5bN5KFXj97n9L5ZcfvpYD+3ZLfL1EFQCvm1Bf6sQnSP2kZKlbr77UrIWgcS3VESXKEZQnx4/lq3IG4wjmOoxyEgHwc3v0kUSjjHrhn4PLBMJ1Z5TBBHF1ORwJ5bSzs8ze1b6MBgbCiYiIKBQYCCciW9ERCP+bPLtkkzlHpNCo9P3+y3rZ8NVy2bJpnVFR3G/MO64q1SUlxaoCDTVqOFtn1axdR2oZQ1rLkyX91E7SrkNnad72VIkzKq8wpl+mXHvlZa5WUjpvZqhbSbkfhvW0e4WvMiqAsbQdg8FAOBFFo0gPhE988ytJSmmi5hUXF8mfO7bID6v+K1s2rpHcPTlG2VKgyhykUUELcJR/cXE1pEZNtKyubZQttVWwt/VfzpLW7c+Utqd1lkYnnIgCUXb8tlEeG3q5CoS3bdu2TIvwUOe3rqpy2hkI71Pty2hgIJyIiIhCgYFwIrIVLYHwZxaXVg4PH8iVOgkJUqdOaa7LYIy5JVN6G5XDG264oUzlMNI6kAoGt6MTA+FEFI0ivkX43K8kKdkZCD96+IDE1agpCfUS1XSwdmzeKBP/XhoID7SzzEimA+E812EgnIiIiELD2RSAiChKOYqdw4r358ojt3WTyXdf65oX7KDuLa4m9GfmdiQiolDR5cDPa7+S8QMvkVHXn6nyfVvLiEAHwVBN6M/MMpqIiIgoOAyEE1HUchj/jhcUqEpcYoNG0iStlTRObems1IViMCAfaKzjdiQiolDD4b+w4JgaQT7wJmmtpfEJLaRu3fply4gAB31PKzqwjGUso4mIiIhCh4FwIrKFTp4iGW59bpySIssXzZKS4hI5s0tP+fvDs+WW/5skDqM+F+xw7OhRtQ327t1rvmNs4nYkIopekZoqIj4+Xk5o2lQ+X/KaFBcVSYs2HWTImBfl3ifekvpJjWzLC38HBIfRMeS2bdvMd409SAfCMpqIiIgodGqOM5jjREQu6D6gsLDQnIo8TY0K9oEDefL6S09LwdEj0qRZK6mXlCLx9ZKMlTeeEMDgKHEYyzosf/z2o8x49G9y9NA+yereXU455RRVqa9fv756jPSLBP7gdnRCp2DoVIyIKJqgJS/69Ig09erVk/z8o/LmqzPkzz+2SbMW7YxypYEkJqY4n2BTdvgyIBh8OG+vrP1yqcx97gGJr1tbrr32WmnSpIkkJCSo8gX9PcRKOY2c3Xl5LKOxLujLg4iIiChY7CyTiDw6dOiQORZ5cCv0gQMHZPny5TJ8+HApKnZIQv0kaXZiGzm727XS9rRzVIWxZq3a5ivsFRcXym8bV8vPP3xhDCtl765tqkOvM844XQYMGCAnn3yyqnw1bNjQ1YEUgqaxgtvRCQGUWOoElYiqh0jt2BrVC5QtK1askHvvvVdy8w5IfEKSNGx0gnS68Go55fRMSW1xstSNr2++whNjOft2yy8/fq3Kl83Zq+VQ3j45VnBYevToIX379pVmzZqp8iUlJUV1lhlLnVrjQgcC4dW9jMaFalxcISIiIgoWA+FE5NGRI0ciNm8k1uvYsWOyZ88eWb16tbz//vvy008/SW5unhw8fEQKC4ukVu26Ur9BijRMPkFq1403Ksa1jSq1Q4qOH5P8o4fkyMFcOXIoV1UQE+KN59avJ42MivTFF18s5513nrolWbdCQqsstDhD5RDTsYLb0Qkt4GKlBSERVR84hqOsjjSoXhQUFMi+ffvk+++/l6VLl8qGDRvU9MFDR+T48UKJq1lLEuolScOUZhJfr77UrFXHGGoZZctx4+/5RrmSJ0eNsqUg/7DUrBEn8Ub5kmiULyeddJL07NlT2rdv72q5jPKkUaNG0rhxY5XyK1YuWLOMdsKFDVywJiIiIgoWA+FE5NHRo0eNilNkdkKFQxdawqHV+p9//qkeDx48KDt37lQD5uXm5rqG40bFWn8WVO5QeUZFD62fUKlGxQ8DWpPhtmrkXcWAyiFaIaGCjdZmGI+lFBrcjk4MhBNRNIrUQDggvRrWDUFctA5H+YLxP/74Q5UtCIpj/v79+1WrdpRFKF8QxEb5ggAtyhcEt9PS0lT5gfIF0yg/dPmiWwtjPgK5CJjGUjmN7Vjdy2jsE/gsRERERMFiIJyIPEJrrkjOE47Dl64gomKIwD0qgRgQHMCA5/hymNOVQUDlD62PMKAiqSuRqDSiMqafFyuq+3bUQRQiomgUqRetUWboC60YEBTXZQvWF2WLfp4/5QsGa/mCMgXlCwaMY16klC+hgG1T3c91sE5YRyIiIqJgMRBORB5Fau5RKxzCsJ6oEOL2YQTvMWBaty7Dc3RFUb8GdCUPLaEwjkcMqGzpShdaIGHAuH5eLKrO21GvJxFRNMIxG8fqSIRyAuWHLlt0+YJHlC0YdNmin299RFmhB1126MCtDtiiBbgej7TyJVSwPaprGY11ibVW/kRERFR1GAgnIo9weEDLI11BjVRYT6wjKoIY0HIKlUOMo4Ko/2atIGq6QogKFipbqEjrSrZuLaX/FkkVw8pQXbcjO8okomiG43MkX7TWZQsGrCsGXbZYB122WMsXlBe6fNEDyhc9YLq6lNPVtYzGevGuLSIiIgoVBsKJqEJocYTKVrTQFUA8Wsf1I+jDnq7wYUAFUT/qQf+tOqou2xEVbATCI3X9iIi8wbE4Gi5ag115Yn3Ug6bLD2tZEi3lS2Wybje7bQl6O+ptpLedfoyWbahbrRMRERGFAgPhRFShSG9p5gtfDnORXAmMFLG4HdEqDreDExFFM7QMRsqMaMVyOnixug0jreNOIiIiim4MhBNRhXCIQCAct9sSxRK0hENrcDwSEUUzlNEoq3laT7GEF6uJiIgo1Fj7J6IKofUQKiJEsQY5URkEJ6JYgBazLKsplvD8k4iIiCoDIwBE5BUqIuxMkGIJAuCsYBNRLMExjRf3KFZgf2ZKFCIiIgo1ni0TkU8YNKRYwtbgRBRrcEzjRWuKFdyXiYiIqDIwCkBEPkGFhL32UyzARR3uy0QUi3Bs44VrimZIiYK84GwNTkRERJWBgXAi8hkq2AwgUjTTF3RQ0SYiijU6rzJb01K0wv7LizlERERUWRgIJyKf6Qo2KygUjXRnckyJQkSxDMc6XPBji1qKNthv69ata04RERERhR6jAUTkFwQRUUlhBZuiCS7ioILNVpJEVB2gjEZZzbtfKFroCzhERERElSnOYTDHiYh8VlJSIsePH5fCwkJzDlFk0ulQePGGiKqb4uJiOXbsmHokikT6bkOU07xwQ0RERJWNgXAiChgOHzoYzkMJRSJduWY6FCKqrnjhmiIVymZdThMRERGFAwPhRBQ0VK5RyUZlmyhSoGLNXKNERE5oGc4L1xQpdKo9piwjIiKicGIgnIhCAkHwoqIiNfAWbKoqunUZKtZsBU5EVBbKagTDUVbz4jVVBZTPGFBWExEREYUbA+FEFHJoHc6AOIWTzjGKgQFwIqKK4fRfl9UMiFM4oJ8O3WcHERERUVVhIJyIKg0q1wiG64GVbQolVKhRsdYDERH5T1+41gNRKOCitLWM5kVqIiIiigQMhBNR2CAQjkOOfuThh/yBSjRafutHDEREFDq6bLaW10S+0OWytawmIiIiijQMhBMRERERERERERFRTOOleiIiIiIiIiIiIiKKaQyEExEREREREREREVFMYyCciIiIiIiIiIiIiGIaA+FEREREREREREREFNMYCCciIiIiIiIiIiKimMZAOBERERERERERERHFNAbCiYiIiIiIiIiIiCimMRBORERERERERERERDGNgXAiIiIiIiIiIiIiimkMhBMRERERERERERFRTItzGMxxIiKqJvbv3y+rV6+W7777Tk2fffbZ0rlzZ2nUqJGaJiIioqr17bffyubNmyUlJUUN55xzjvkXIiIiIgoEA+FERNXIv//9b3n22Wdl06ZNkpaWJi1btlTzf//9d8nJyZH27dvLPffcI3//+9/VfCIiIgqft956S15++WX5+OOPJTExUU477TQ1/8cff1SPXbt2lTvuuENuvPFGNU1EREREvmMgnIioGkCF+rbbblPjd999t9xwww3Stm1bNa399ttvsmzZMhk/fryafvXVV+XSSy9V40RERFR50Pr71ltvlQMHDsgtt9wiffv2LdcCHM+ZP3++vPHGG9KwYUN57bXX2EqciIiIyA/MEU5E1R6CxD179pS4uDg1ZGRkqJbTSB+CcTtdunQxxyIfPgs+HwLgO3fulIceekgFwVGhfuCBB9Tw+OOPq+eiJTieg+fiNXgtERFRVaoO5fS5554rV111lWzYsEEmTZpUJsCNz4ltAPgbymk8F69hOU1ERETkO7YIJ6JqDRXIYcOGqRbSL7zwgsqRjcom0oMgfQi4HyYRNB49enS5+ZFIf76PPvrI1bobFepevXrJ119/raat8Jw333xTbQcEyrOysmTWrFm8BZuIiKpErJfTSIVy0003qc/mKS0Zgv34rOedd5589dVX5lz7Mp6IiIiIPGMgnIiqLQSEW7VqJYcPH7atLKM1GYLF1r/pVmkQ6YdP/fkQDEArcE1XqJEjHC2/27RpIwsXLpS3335b/X3IkCHy4osvqnEEEyZOnCjbtm1jR5pERBRW1bWctsJdW5MnT1bj7oFwYDlNRERE5DsGwomo2rJWln/99VfbnNnt2rVzVaTRamvQoEGqQg6RfvgcOnSofP/997atx9AB17p168p8Zt2CDvbt2+eqUCPQ0K1bN3U7NhERUbjEejmNIPfixYslOzvbnFMW7sxC+hPNLhAOLKeJiIiIfMMc4UREhiuvvFJVOK1Q4UalExAkxq3LunINOlcpKuoaloE0IieeeKLr75hGqy8rVN6t+U7tBg2vxTKSkpLUfLzOfV3tzJ07V+677z5zymnRokXqEalR3AMK1tZoq1evNsdELQO3bBMREVWVWCynUbYixYsdLPOaa65R4+3bt1ePnqAzbJbTRERERN4xEE5E1ZY1EIxUIWh1hYosKr+abnmFIDFycFqhpRkGnZcTFW0sIy8vT3V29c0336j5SDly/vnnq3HA8s866yz1fLzWugzA63QrNlSE8VosA6210VJ75cqVKne3e6XdSlf68Xmsfv/9d/WIW7F9pZdhDSQQERFVtlgvpxG095QXHJ8nJydHvS86xqwIloFlsZwmIiIiqhgD4URUbaGCjXzYVqjI4jZr94q2Lx5++GH1iApwbm6unHPOOWoaUIHXrcNQUdYt1kaMGKEee/furR5h7Nix5pizIozXIpUJxpGu5LTTTlOvx7Qn//3vf9Xz3OH2a1Te7W6fRtoUzb21OJaFZRIREYVLrJfTujW7OwS0Z86cqZaJDqx9gWWxnCYiIiKqGAPhRFStoVPIUaNGmVOlUNFGazDkG/UVbk1GpRW3RttBpRuWLl2qHq3QYaV24MABc8yZ3gTsgtqff/65OVYecoMjX6ivUOnW2wFBB/dAOJaFZRIREYVTdSun0Yr8uuuuU+MLFizwuQNMltNERERE3jEQTkTVHlpHoxOuG264wZzjhNZcyDfqa4sz3Jp86NAh2blzp3oNOq8KBlqm6RZpX3/9tSsnKcYBLdA8sVbSK4L1RKs65DPFeyEPKfKs2vF1mURERKFUncrpm2++WS0TF6Wt6Vh8wXKaiIiIqGIMhBMRGdACGq3KUNF2r3jiFmlfoSUXgsoY3Duq1NBRpTvdCg10CzHrPNC5Tq2DJ2eeeaZs27bNnLL3wAMPqNZ0aFUHaHGH1Cl2rc+wLCyTiIioKlSHchopynCHVlpamseL0p6wnCYiIiLyjoFwIqq2EAjW+UA1VLTR2dYLL7xgznFWLn2B1mUdOnRQlVi0WtOdTLqbOHGiujUbpk6dqh5ffvll9YgW2Q8++KAaD0bHjh3lhx9+MKfKQhAAreAmT56sWp1hXRFYsMsbrmFZWCYREVG4xHI53bp16zLlNNZNp4A5/fTT5YknnlCfH4NOsYIOrzFt7dNDYzlNRERE5B0D4URUrU2ZMsUcKwu3T6OyCw0bNlSP3tx5552Sk5OjxgcOHKge7aASj0o7OrZCZRy3Ua9fv15VgL/88ktXi+zOnTurRw3P9VWPHj3ULdnut4sjCH7++eer27bR4gzBBLSwwzp5gmVgWVgmERFROMVqOY1AvLWcxqNOs4Ll4GK1HnSqFaw7pl999VU1rbGcJiIiIvINA+FEVK0hLYhdyyrQuTZHjBihHr1xrwAj6OzJsGHD1K3V+tZp5CtFi2xrWhKMW2//nj17tjnmhFZhnqASjwo8Ohmzeuihh1RlGcGDDRs2+JR/FMvAsioKlhMREVWGWC6nURbrchpBdVyctht0bnQ8H9PPP/+8mtZYThMRERH5hoFwIqr2UNnF7dH69mtUjDGNlleofOpKLiqp+lZpQAssayXX+rfvvvtOVq9erSqmms4ligo9KvYpKSlquiITJkxwLdcaDEDu0KFDh6pxT8aPH69uHdetzfC5Zs6cqcbvuecetX4ICtgNOjiA12IZWBYREVFViNVyGmUxylh8Hh1UtxtatWqlno+W75g+55xz1DTgtViGp3znRERERFSKgXAiqtZQedy3b5+qZF5zzTXq9ufGjRurW6LnzZun0oZoqKQuWLBApRSB/v37l8kTituVURnGgMo0KquomOoKMvKLosKqb2lG5154P+tw4oknqoqzDkSjsrt8+XK1LEAwAB18/fWvf/Xa8guv6dq1q1pPQIVf08vxNOjn4rVYhn5/IiKicIrlchrpXU477TS5+eabzTn+Q8eeWIanfOdEREREVCrOgXv9iIgobNBKDJXriqCFm7VyHyhU1JETvGXLlurW8Ycfftj8S8XQAhwdhKFjLms+VCIiolhXFeX0GWecoYL+duUtWrUjiI/W61999ZWah9ch6I5OMllOExEREfmGgXAioiqA1mJIQeKJtbIbLFSW0WIMQW0EwtECrSK4rRuB8NNPP13efPNNVq6JiKjaCXc5jWA4cp6jNbq3u7CwXrfddptKlcIgOBEREZHvGAgnIgoz3L6MPKK//vprudumkf/03HPPVZVgdIgVSjrADRdeeKF0795d2rRpo6Y3b94sn376qaxYsUJN+xIwJyIiikVVVU6j5TdahSclJclVV10lWVlZZcpppGBZvHixmr777rtVB9hERERE5DsGwomIwgz5RdHB18SJE1WeUd2SC516oeKN+ajsWjvDCiVU4ufPny+ff/65an0GaFXWrVs36du3b6W9LxERUTSo6nIaKVew/O+//16+/vprNQ8t0M8880wVHGc+cCIiIqLAMBBORBRmqEhPmjRJBaI3bdpkzhVp3769yhGKCra3DraIiIiocrCcJiIiIopNDIQTERERERERERERUUyrYT4SEREREREREREREcUkBsKJiIiIiIiIiIiIKKYxEE5EREREREREREREMY2BcCIiIiIiIiIiIiKKaQyEExEREREREREREVFMYyCciIiIiIiIiIiIiGIaA+FEREREREREREREFNMYCCciIiIiIiIiIiKimMZAOBERERERERERERHFNAbCiYiIiIiIiIiIiCimMRBORERERERERERERDGNgXAiIiIiIiIiIiIiimkMhBMRERERERERERFRTGMgnIiIiIiIiIiIiIhiGgPhRERERERERERERBTTGAgnIiIiIiIiIiIiopjGQDgRERERERERERERxTQGwomIiIiIiIiIiIgopjEQTkREREREREREREQxjYFwIiIiIiIiIiIiIoppDIQTERERERERERERUUxjIJyIiIiIiIiIiIiIYhoD4UREREREREREREQU0xgIJyIiIiIiIiIiIqKYxkA4EREREREREREREcU0BsKJiIiIiIiIiIiIKKYxEE5EREREREREREREMY2BcCIiIiIiIiIiIiKKaQyEExEREREREREREVFMYyCciIiIiIiIiIiIiGIaA+FEREREREREREREFNMYCCciIiIiIiIiIiKimMZAOBERERERERERERHFNAbCiYiIiIiIiIiIiCimMRBORERERERERERERDGNgXAiIiIiIiIiIiIiimkMhBMRERERERERERFRTGMgnIiIiIiIiIiIiIhiGgPhRERERERERERERBTTGAgnIiIiIiIiIiIiopjGQDgRERERERERERERxTQGwomIiIiIiIiIiIgopjEQTkREREREREREREQxjYFwIiIiIiIiIiIiIoppDIQTERERERERERERUUxjIJyIiIiIiIiIiIiIYhoD4UREREREREREREQU0xgIp/ArypO1ixfK2jxzmmJIgWz5dK4s32pO2ijYulzmfrrFnCIKBe/7HVUjLGMokhVg/5wts1/CsFSyC8z5RMGqrsc+HvMpLEJ/rpn3q1EnUmXBbJn7xS5zrlbNzm1ZNoZHwRZZ/uZyYU2cwiZC9zkGwqupvF15RvEabgulf0qCxNVOkU5Xj5QF7uU9RbFseSzT+G7jEqRNVn+Z/q052yL78a6SUDtOEtIvkf7PrzXnEgWj7H43dYU5m6opljEUwQqyZfYNbSQhAfvnIBk0BMNIWcj9lIJWXY99POZTOHiv4/hr1wcjpWtanKScbNSJVFkwSAY+t9L8a+jfL6LFUtlYkCe7duxSQ16kBfI3PSZdk+IkLqGNXNJvurAmLrLlg9my9FdzIhB7V7FxX0UifJ+r5ED4Whl7eoqkNPV96L/IfKkpb5lRUKSnSJte02VLkTmTgrNhpHRKSyu3rStfuqQl6lIhQ05tb45a7V0uIy9sIynpV8j0YA5MFFpFW4yTlFON32gnuWuZXZObDElN0t9tuqRnmKMWGakJUmD+htPb2TyBguP1O4pFZfe7jI7mKFVTPpQx0SpcZWM1OY6E/dxy71y5Lu1UGbRYpGPvPtKnd6ak1zLmn9VfBrZ2PoUocDF87KtQDH5u1oMiUIakp1Rcx/HH2tGnSlqvqbIlNcsoC/pIVodkY2689BnQx/kEt3PbYN8vosVA2Yg7nafe2knaqIBfiqS1SFNDSoIxHZcgKRldpf8Ds2X5Vv2dVpF2qZJw2BxvbdSZzNGwWdTfFe9LadpfFpqz/YFGda5lZD4m2eb8wKyV6UMGyRVDpkugZ7vLR/eR/g8vDfj1Ma+q9zkvKjkQHi8Fh/Mkb68fg95YSrZMuXOqrNqaJ1s+uEsGvVTFBxA7O5abt/DYD1Mf6C/X9Ymsq5oLxxsVPymQhc8H/sMPTLwICrcKZD81SKZ+sUXyti6Vu4wDUwR+49XTopEyaH628Rs1Co1bx8oqc7ZVgpfvVmoZ3z9VHh++o1jkdb+jasR7GROtwlY2VovjSJjPLYvWyshMo9LXZISszN0sKxcukAULV8rmnAUy5f5+kmo+jShwsXvsq1jsfW7Wg2Jb3utXSNfHt0ivl3MkZ+0nRlmwQD5ZnytrnpsiAy83n2SoFue20V426pbs6ZfIyNfXSn67PjLiqVkyayaGKTJiQKakxxdI3qZVMnfyILkkPUESTh5ZdedVtRJwxKw6xj5doON9kiC4/OOvFOOI6IoZ1kqWNHN+QIrWyNodxuOn02V6IOmH9k6XsS/tEtmxRXLMWeSmqvc5Lyo5EJ4hGSebo4aslx3icJhDrlEAbC8dNi6fow4cIy40n6zgipo5ahwOMzpG4KbctVTGmrc02Q0jJ8+VhR/kSHykHM3zjB/7fPO0KtAffig0SbMt4NJapJtjxjfevlNE/3iqlRaW7yvD+F2bo/aSJcVL6ZackmKORQ7k6cMV/bvCfqeEF8iZ9+ZIueJqL1e+/fqOIp//34f3/Y6qkfjkgE6yIRKPBWErG2PsOGIvvOeWWyYPlKm/ivR6eIpkWt+qiVFpHlD6vRKFhIfz65gXxDE/LPK2yPKn+0unOytuB8l6UKQL4lyzaKkMv3OpFLQeLlNuL/sr7Xj3cMmyDX7H7rltVJeNO2Y7W7LP3yLSvI/MWp8vOWsXyJT7BsrAwRhGyJTXVsrm/HzZ/Fo/Zyt3Q4Hxi46Ir7N5enBB5ECkG+de5qgkBhbETm1ueVVSSnDbcsUqWaNGsmXC6KVqzB/LR09wXtTYms00M76oin3Oi0rPEW69ohlvPcAnpxo7c+mQ0b2fOnBklbkNJlmGf5wjK+fOkiXrt8i0LubsSJKdLbuMU07czpPZ3jgJa+I+pEtH46DYy3x6VVtl/GiXm+P44U+bVEXXJT0cAJOHfSI5K+bIrPc2ypYZmeZcqnJdpsmW9Utk1tyVkvPxcNuCJzlZn8WkSXpzc9QqOdl1Qp9m/OYjyutXqDx9uKK/pcxdKVUtW0ZmpEinflNl6fpcc54HPnxHUcOP78PrfkfVSEpphTHV2B/MUb9E6LEgbGVjLB1HPArnueUqmfocqkhM3URhEmCAITqF4JgfFnPlipQ2csn9c2Wtl/QIrAdFplCca+a9NFXm4rwio5PXi8yxf24bxWXjXuP3nDFIFuK2+nYjZM2WBTKwg/6+3MVL+oA5sjl7mmQlGpOne//uwyLYIHIMyNuw0ZUZoeDNqTLdnzQJedPlMbQGV3JkC1qWU8UicJ8LY2eZAR7oaqVK5s0DpZfHA0zVys5GG81OMnLhAlmZnSu5e9yHzbJmYpbzyVWtaKFMecX40XboJb3MOOSuV6bIwrDlXi97h4AnqRf0k4FXZbAVRISJN/abgTdnSqptiwXjF269SmvHeiU4YqWiEWRkOtl760xv31H08f59eN3vqBpJxWEmRCLvWBCusjH2jiM2wnVuuWmJLI3GDr8oyvh2fh17QnnMD4/U9t4LFtaDIk8ozjWXLyttiuZNzJ/bRm3ZmC1jM/vLUtVQIlOmrZoiHX05V2o3XBa83Ec6VmkfWUY5ESkXVULQOjg5yEZ1K1dZ23Evl+nP+97pZdmGpVtkyy/mKLmJoH3ORhgD4bGpoCBfpHWGRMPFzLyXpsvCApGsO+fItDvNA3HBQpn+UvgyhTOfL0W2BFy8j0y1jHWrdiL4+6AYx32PQmB9tlFFgi2SzXtnqRLx/Do6JLC/nGoqW9as16NrjKlqLkrLxi2P95fHzE5sU4dNleFNnOO+SO47R5aPrspAuHHsiZRyIgStg1OSgwml75K12QUSn1h6PM6eNFaW+tI4NG+6jH3BehUnT3LYItyDCNrnbMRgIBxJ9N1uOyvKk107smX5m7Nl4brQBn2zNxk/hAjMeVPeKhk7frlx1B4uE4YlSzpykZl/WT4DnWdWEmz7XZUbaM/btUvyAm7VHsL9Ba9zX5a7EG8PdDpR8Tsan2+HsX28rFbM8uU7CRUf3yu4/bUyGftKQPtmeI+5/sJnCmgPKAjtb9XK7neL/SL707kye/5a750Yh2zdAv3Ozf04yJ+WL99Nwd4oPH5VQVngVdiOhbF5HCknz8f9siDQbW5sD5TdQZYVvvzGQvFbBvVbDXB9AyoXK/EY7VGIf7fBbLPKP4aEZh/0V1Qc88N9/PYqlN9VoMfwqheqY5kvx81AFFT2b8kol8JW5wlWwGWjIUSf0//j73IZO1FH7TvKXaP9TV0UjyyhvgvF50Q5GcwyQlnONk+XoBOjNk8LUXqNlbJmnfEtjp8t/ZCyBg7Plak+NA5VrcHje8mEUaXNYLPX+35pK6hy35NIOjcJdp8LJ0clm3O5OPA2IumOEevNmT7b6JjQOdmR3MQY4sXR521zdjn5jo0z+zk6pur3cg7xyfFlpjGkj9poviYUNjrGtDOW23uBOR3BFvZxxBufP2P8ZnOGw7Ggr94+qY7hq8yZoZC7xjFrQEdHqvGdWbd9fPs+jl4dzOnWI4ytV97G8R2d3ze+O4/b1fi+5w53ZKa6fb+1Uh0dB8xybMw3n+ZRMPvLJ47hrbFP4rl9HGoNC9c4JlyQ6npN1gy3Fcjf6JgzLLPc9pDUjo5+Mzcaa+NJrmPWVc79P974/YzJNmdvX+KYcHm6+j71slIvGOH4ZI/5d7V9Rjh6tXP7PKmZjgmrvG4ce2/3c34v+Nztxth/d6PSzffq5Zhjzitj/QhHurkuvV4z51m4vntjyBi10pzrxrUextB5gu16YHvb7n/JGY7MASMcc9aXboNcY3npWFai9Xnm8tWQ5ZiWYz5ZCeD7D2h/LT32ub7nWvGW9Up2pN/9iflck7fvqHCBox/+jv3c9fvLd2x+b4KjV/uy61Z2f7JTOcdc/78P+/0uf/0sR7+zUsv8Rnza/wtzHEvG93JkWN4fA45dU1blmk8KjF4n63Il3vh+a1mmMXg4Nga0biH9zj1s1/hUR+awBY7NheaT3HwyLF19d/icugxfM9E4HurP3X2asUZl5ayY4ujjtn5GBcKRfvkEx5Lt5pM8cJ1zeNqOHoTlWBBwWeBD2bh+gqOjXv/LzV9CYa5jjfqdWrelsR37zvL4fcXCccQ77+eWentjv3WVV3bnNvHpjj4vl55XaXb7kySa76mG8scyyFlafjtKYoajz1MrjTMCe4H8xgL5LS+42bnuOB/R5/P5W3A+klH2OGYca0d87P14aftZjf0zuX2mY7inz1uJx2iPgvjdhnqbBXN+7Suf98FC43d0Qek+nTrA0zk75DimmM/t+NAac16pSjvm6+OVGno5ZtluYsvxwBj6eaprBrIf5Brv7yonzOcb5b5+LwxZM8oeCHyrBxkKNzsWjCr/W8DyMyrabiE+LyhvjWPMWaWfL33wEnO+Re4sRy/z7xh6zfC87+dMynQ+L7WPY065p+U6Vj7lXsYZg3G+nH5WP8csy/m+O3+Pm17rOMa6LLjZuczkJsb5/X2fmL8Xm/N5HOfU85xDufN5g/f3c8pdNaX8sdwY4lvb75f5c/s5Ul3vnemYssX8g8XKURml69fO2AfM+eUtcQxMdT7P7ndtJ9Cy0d/PqeU8leVcrvG7TX/IubfnLjTWQf+OU4c7PNQ4y3uvX+n7Nx9h7OmhF+jntLItY4x9LvWCPo7MJua0Pk+0U2nl7BxHL728it6/IpZYQlDnhWo5yY6Byx2OzeMzSj9nhwmO8md0FrnTHFn6vd/uU/o6L7FA23JVHaey1PlOjqdz8opE0LlJ0PtcFYmQQHi+I9fDNp7VQ78+1THiW3OmlVHxHNPe+ZzU3lMcn2TnOHK25zjWzB3oyDC/jNTbjRN7zHtvlmPB2mB+wO7WOEY0L/0h5uY43xtDri9HqrDJdUzrjm1hFC7Wj79quCNVbVvj4Na34h+wr3KMAs65zGSjQjXL/D42Oj55qo8j3frj8HSi/nKW6zmp99kUMQg0dDYPJLWMCuj4WY5ZM41hvGX5zfs5lnj6moPeXzY6RrQ230ednJgXQ9Q0ho6OCdaTz28nODrqgqR1H8cErKsxTOirT3CM9xuwpGzlwsL997P5OaNAN18XjwOYdZueZRy893ziGG5+Pn1iUfag5LYP+OrbEa59RXrMMmeWFXQg/KHSbeKxcLMsw/aAany/I8zvI+P2OY416ve4RhUUeruVLjvHseC+Po4+vY2hsw5eGYVSd3MehmFz3ApEP7//QPfXb41KoVqHLMvJWsfS9TKGCUbhXYbX72iBo4/+O35/+SsdE7okO6fNk/Iy+4qHCx6Vd8wN5Ptw3+9yjcpN6QkNfiNlTrYl0zHNU6Vuj1E5NI7n6nnGb3XK8o3mvtPRPCGNN/bbQH48RknxkLlOzfVyjW327RzHQP1bbT7QseAXzFvimPX2mvLHg4DXLUTfuWHNRP1eOLY7f1sblxv7qV4vo7K0xuZErvT7cf7urb9zDB0nWms8qEjq7x7vM8X5e3lquCMz2XxNYkfHFI/nEoEGwsNwLAiyLPBaNmaPKXts3I4AjDltXkSzVqzijZN22/eK+uOIb7ydW1r3U+y3OLdxHbNRtpYJ1sc7+rxtXT+7/cn4PJ0r2p8s+z7Kiqc+cWxU22O4a7+JN75Xu63g328s8N/ygt56mTgfyXesHF9arqqLRmWOtemOMZ5+p4WbHdN6mPuM8XsePneN+u7LrEOTgeWDL5V4jPYoyN9tyLaZIejza6/83wdzZ5QelyTeOJcx55ez3diO6nkZjgllAm+Vfcy3HK88nZsavNZVA9wPct4eYf7mO7qOq/HtskqPA72HO+a4ByK9Heth+yxHH3P7JHcxlvGt8/iJ84rhruNxqqPfQrs9M3TnBZ543y+MeukFpe8Rf7OnPSfHMeEs53NSh7mFK431HqHPoVzHA2MbZH/imOL6XuKN45/9NvT3uOmtjpP7Wi/Xcajj+JWlQSi78/n4dEeWax+wOZ83eHs/xE4QsFbPsfxe3Y8J8Z0nuB3PVzqGWy4+u39OZflA13Gq3LmMlSsw7GvdMpCyMdDPaTK+F/0+qP/lvu1sGKjned73yvtksP6dGEPIg3pBfk4FZYxZHmIZ45fY1oMrXP9KLWcjKBCujrNGnRAfpdA4JrqCycb53ELnU+ysHGbst/HGbxKvs8Ykzppg7N32XMeG5Czjt+48TqnzHWsdwuN36kHEnJuEYJ+rQmEMhJsbFoEJc7AWtJ52Zm8nJ0tuNisjNldwrIVSv4/NmSFl/qDj3a7wmO+JK+neWjKEhRnwLh/s3uyYoFuQBBogtSjd3umO4XYtL40KtuuA4elE3a3AKid3miMTf0/u45jjHtDK1ifaNidMpuD3F+vJWy/HCJw4Ne/jmIWTUJx8jS9bgOc+l6mem9y7fAUWrT6cy/HcIr+00E01TppQQBoVhVFLHJv15sWJoCv4YpzAGifGyV2M/W6LdfsbB6m7Sw+Mtic93ngLQBu8nrR5CYRbv3vbv4OX9XCtwwXTym3v3I8HGq91Xv0tx/XeHipBLv59/8Hur8YnKg22eStAvH5HlmU1z3L0wn6TnOkY8d5mYw8xFeY4ZvXQxzP7bRWWY67P34d1v8t09Loc65aqTiBdvxHDGtdzPOz/lgso8T1mlbsy/8lgfcJeQSDdE1dFwT0AYMg1yhDz5Ct+gIc2N0GtW2i+8wqP7XvMfdwYUgeX/wz6GIih16gxxsm88f3MROALJ/cT3IIAnzgGouVArQzHGPfgZL5xoqpPzLqX/31rgQXCLSrpWBBsWeC1bLRWMLr0cvTCtjJOjmdZA8hGeTHcdeJtVgDcxdJxpAJeA1+W7Z15uXN90JJ+jXVzGudWrm1lU+YoluV4LNcMrmNUfJZjlvt54/KBriBa5nPl38Wf31gwv+XSY61xPnI5xt3ORww5M7PM5Rv7us0y8LuZo47TxnMSjXMF92OWebwrF5yozGN0BYL93YZmm3n53sCX82svAtoH3QII/d4z57vJmejcVuXrIZV9zLccryrYLt6OB0Efvy3HZ6/BG8sxw/a5e4xlmdsF29Nmbyg9vhqfp3wAIzTH8Ar5sF+UCZZ7al3r6QKK5XiAANRGmyDSZnOfw/uXvVDp5N+5ifW3bFPHcf3+4h1Zz7mXaJpv+6JW4fsZSs9rOzom6DuGrbaU1jHcL3yXaQFrG8ArGyzPetmc7UbvZwE1pvO3bAzgcyqWoH764DHGMSXe0dE4Bjsv8o1wTPNj3y69gO75WB2ooD+nocJjuKG0HDEGu/O7Si9nLeep3uq0nljOUb0eSyug4iuWi3QqwK3XzdP5nLU1OBTOUtPqNXYX76FQf2ab4ygaBXQ3fkOe3q8CkXJuEvQ+V8WqMBCuC1jn4GlnLn29zRVJc4fE3+2De0ZBbP491AcsBQV0fLojc9gExxJUfrEn5pZtPYGWDBPsWrKHkTMFiv2PwXoiYk2b4rfCJY5+lhMzTyo+YTVYCkb773SjY0x740TVdptaAhN2B6QQ7S/WfVqSbSpyVtljHBkeWle5gqQVvF/pgQrvleWY9ov5BytL65H02/WteG4s7+XP1W8XS8Hj6fXeTtqsywg4EG75HHa3Ibm+G5u/Qe6qleWCLorrvb0HXv36/oPZXxXLibO3AsTrd2RZFp7jqVWB5da/cr+TcB1z/fg+yv5G+tgWxGVOVmy2Y+kJkE2wGgI+8TK+Y3U3jjF4aC3guirvYR8Ibt1C+517OraX/iaM34P78i2/a5xoeWtJsqC35+eUXhj0EMQ1eC1jvKmsY0GQZYF1O9r/9iwVDGNIvdm+oqQDUh6DVrF0HKlA6Xdnc24JZfZbTy0rS1sremwNa1mOx3LNcnee/XmYlwCKr7+xIH/LZY61Hs9tjXNBHQCzOeaVBp8qaFW2flq54ETlHaO9COU5XIDbLGTn1xUJYh+0BtXsjxn6d2JfD6ncY76X346p9H0saQitgj1+W47PXvdPL8f60iB3BQ2YLL/18hcRQnAM94HX/cIVIMJgfxx2XUAxztusn6E0yF3RxQdLMNcu/YWvx02TxzqOKwie7OhT4TJ82xe1CutUlqCo54Y01uOm23Yqc6HCfttbj132v2t93PJ+rmTLl7Ix2M8JlrIBQ/ooD3dZeFX2dxPSciYUn9OyDM/xHMtnCGtdSIuUQLhZJlnLW+sx08Nxxbl9rMdd80Kuek2WY5bdcdS1vh7KlsLNjpWB3PEYCecmIdjnqloYO8tMl+ErciV3jx7yEYR3DRvHe+tFN03Sm5uj2o4trk4e05obp3DlZEh6a+cYOhEJueZjZE3+Zlk5Y4z06pwqqcnGvORU6XjzNFnz6QjjExsOr5WxV90lqzBeFbY+JhPmF4h0HysTupjzLJIHDxejMFSyZ0wNeD3zXpggcw9jLF76DDCqsCHg6TudkL1ZpnQ2J8tIlq7nmK/ZmyPlvvFK2F+yJs6RfhX1GN1+gmz8ZYp0tOsxN7mrdDX3ae/vlyojln0iw9uZk1ZNUtEnr5LRPcu+E4nkFEkxRwvygutMIa252rOrhuVzpLer4JixaKSMXG2OWyR3yXT+LkPE6/cfzP4aBK/fUZOBsmTVGPv9Mj3N1flvXm6uOWaq6mNuhTJlyi8LZKB7OQG10iVdf085W9y29VKZ9oo554LhMtxc/zI6dDI+mdOWZQv9+K5yZItrg9l3EpPRzvyubPeBEK5bgN/5rhdmy3I1liz9h9kf2zt20PvbclnygTlqp/sEmTPA9gjl0mdhrizx8JyszE7m2C7ZEmE9tIevLPD027PoMkWy5/axLQtSm+tvukC8FQXV4zhic27pJvOpbJnT23Zr4mM6FeR57+TWg6XPzTZ/t5ky/G67bZ4hnfSPfOtyWVjRvl/Bbyx0v+VkGbhwjYyxLdfSJU1/pXnGub456pQtE54yzzLj+8hwT8eCDsaxrrs5rlTmMdqLkP1uA91mxqxKOL92F8w+aO18v8DY9s59zGLHbFmwznjscJeMsKmHRMIxP804t3TKkFPbm6NWITx++6Pc8bForkx/0+yErEc/Ge7hJyTJ10nWWeb4p3NkjqeDU6DHcB+U2S8WzTF+xW5qdZSOrm29VpYvM0ddtsjsueiYMFUGPtzPUp5ly/SZZoeFzfvLQJt9yilTenU3a0e75sjsT52jtnw4N7G1+jHp1H2qsaap0m/hFlkQyDICkD1jtrHFIFX635GpxuxkXp5l1g93yZyXLb/MWn1k5O1631orC14vv99mnNPRVbcsWLHcfD+LRbNlIXbF7iNkbAfnrFAL+nO6Sx0ucyZ1NCeCs+VX3ztH9CYUn3P5xCnmMjpK/9u9nLvZqsJyNuzWyMZNRoma0dHY4qZk4zP31Xv8Lpk9fm7Zc7q8uTLB2D6pwyZYjrtpztifslGyUc55tEWm3u+2TDDqp5lnBXDciIBzk+D3uaoXxkB4xeL1vuem9KTcRq3SF9n3xGwcofV8T29QWTpPkSn6B7Vrukx43TkabqsmTXPupKvGSnrTFElxH9IGylK9jXbNlimLzHE/Lf1Ah9A7StcLzdFAdDQqwOaoX/J2ydrFU2XK4gp+8CHfXzKlz82BnfTk7VorS5+eUnGFtowE1IHsWU5WK42l8ItkvW7uZW4mo8A5J07a9BopUxevDUkv8uUF/v37tL/6y5/vKDFZ0uwKT28i+ZgrKZLmMRCZJsm6V3D3wvzThbJU7x9fjbQ/TqYYx0nzKbI3V3LMUV/E6+1clG+OlFXgmh9f/iceynUL6DvPkwVLnac5GJ/Tx+b9jaHT0zqsWSC79pqjNjJ797dUZv1QkCfZn86Vka+vNGdEmjCUBf6UjSlB9KpfTY4jFZ5buklpEvDW9MFyWbhM/8hXyciT7X9jA11B6RzJraDY8PwbC+VvOUWSAznp2LFQlm81xy/Mkl7mqFeVfIwOhP/ncAFuM0PIzq89CnIftAYQ9i6QuW4Bx12vL1D1kKw7h/t+DIv4Y76T//uBDyo61q9YLnqLpJ/V1Ryzk2osRh8718rKFeaou0CP4b6w7hcFS2WheyB660JZuMkcN6xc5hYq3zpX5mwwHt0voOQZ20AfR07vZPwqPOt0ui7N8mTNV54PnIGcmxQYx6JTM8fK2sPpMvBjTxdLK0OeLF+lj9OdpJNtAMvU8VRXeZ737aoygcvMB+5y/W3t0gXGUstaOH8pSmKnHctlqds+vvBN/D1e+tw9PPDzjQqF5nNaJV/VxzhbC5TlYiBsyQ5RIDgUnzNbli4zv8EmnSTTy8V9WxFYzlaaTStllfFZM4zjh1Wfh0vLqIIPJsh0fZwxZE8ca2yfLBk70boHZcipJ5ujxreRbXdtpMNA6WNeVCj4oL+xDU+V/v+aK8t/9XR1MjjhOzcJwT4XASImEB6Q9ldIL/NKxcoPFjpHrHYsleXmjpDVQ1+XDp8+fUtP85d/4FbAh4N59UoSMyTr8izJMioedkOv7hlmAKZAFj4/vVxh6F22rHH9+I0DZVjOBQpky6dT5a5LO0laQpzEGRX/TlePrfiHH/L9xY/PWrBFlj99l1zSMU0S4uIkJa2TXDF6YfQWIhEqecAcWTKs9ExlywdTZeTVnSTF2EfSLhxZ7kQuOP7s6wHsr5Eowo+5Pjk5w3UiqezIcR3z4lt3tT1GZnXvJX1691HD8Af6+3GxLkOu6GFusBVGRbBc0G+XLP3UPJXtbryPc6xUpa6bL3IsrfBS1R0nduvQy6hcqHUYMMKtJWdZKcm+Fw556+bKyFu7yqlJxu8lIUVOzeov0791VcsiDMsCv8TCcSRkdkmODjjHp0tXm9+X+o2Zv/E+w8ZKf7s7w0yef2Oh/S0HZJel4lwrwRzxQZUfBw1V9rsNx/l18Ptgn/sHmi3r8mTOS9b6zi6Z/fZaox7ST0YMrnjlo+KYX9XHb8tvwZt0P+7+qSx9Jo01z7fc9wtnQ61sNAAwGym4302AVrLY9ctdQNnhflefZ6V3QBlrUEGrdn/OTdBydmBKgiRkTpVs45wuecA0mdWjUn6YHliP5V40Ty9tKOXeCKT1GJmgL1R8MVumW5eZN12mzy8wvpvSiylLFll2oqK5Mht3m6cOlJG9zXkhF6LPaZES6NVIU0Z788QF1q2U5bYX8v0Vis+5VrJ10BYXt8xRv0RCORsuq1apuxLT21m+T+gwVka4znuyZcID5vlpnlE2Pb9FUgePKXcXjrVRRfZ6u0h4hkxZNk2y9OvysmXuw/3lkpNTjHKujVz3UrZxhA5ClZVJIdjnIkB0B8IlUyZMcrYALZg/UkZ+ZdmVioyTryETVCsEaTdCpng5AasUGemug0Sw6SgCseX5CerqXsYDS+SThQtkgafh4wWlt8B8ahR+litgkajgq8eka1qCtMkaKdNX5En67RNkybc5kluYL3MuN59kqyr2lwJZ9a+ukpbURi65f7qsRMuB8UtkTU6uOPLn+N4iinyULFkzNkr+lk9kyrBMydCtgA27vpgqV7RoY5syxb7wCo3A91ewFDQRITy/ocr8PioKwKT1nmZ/jLQM0+7u6Ffrl8zxU6UX9sOChTLygVVlTnh2vTJQJqhb6dJlxKSKW9VUxrr5p5OMtHnPMsNrU1wtHwK2Y6H0PzlBUjr2l6lvbpH4HiNk1vKNkpvvkDW2t+yHVuXteywLSkX4uVtVSe0j0+x+V9ZhxnDpGPQmCdNv2d2hvOAqfIbwHwer2e820H2wywi5y0yPUICUCTpAtHW2zDHKuIwHJkgvTy2Pq/iY75sg94MNa1RQN1jZtk0OI1jr4a4LamX2C1klcxbtErlgiqx8wGyasHeJLPzKOYq/T399i6gUSu5lQHZpaq2qkSVjF06T4Z2dQeK816+TK14PZx0/W7aEqF5QegFrrcx5pXSr5r2JixLJ0n/hHFf61FWL5rgCpXkvzVYtgzPuHBFEC2tvQvc5Q6Vjd52aBJbLgsXmaFAi73NWfX2jci1ftcb4f7pknO6cLpUsw+/u4/qOC+ZPkMeM78bZGjxD7hpdvmFGWovSYLrHdDnthssne3JlzdwR0ues0nS2CGIvHHKqpPSySZniFesUoRDlgXBciV0iG1/uZRzIt8jUzARJaHqqdEWry6Q0GfRBgcSfZex8qzzk0IllRcvlsRn4QXrK92eVIcPv0G0ks2XaJH8zhVtzbPpxZTMAeYv7S3rmWFm1K146jl8p+ZYc7cnGd1zgpZYV3v0lT5bemi5dH14lu+I7yoRV+ZL/y0qZ9s9e0lEllSoIulJYneUXed568a2zZMSMlbLxkEPytyyREV10cW1874Mf87k1SbCC3V8jUSwfc3N2VEL1qkk/WbJ2lmoBu+XprpKQlCKnXniJdEpLkLQ7lkqBcWwY/vEaD3nkS1XKuvmlco/tyoap0injOpn7a4Gk3rxAcvJzZM3CKTKwe4Yk48wxJK1vqgLLAnc8d7Oxy/iNmaOVKwy/ZTtpqaIzMZfvq8E34T0ORsLvNnzn10rA+2C6DL/TDBIULJU5ZoBoy+tzjFpFBflDI+6YX2CcW/7/9s4/tKmrfeDPoF+I4CAFByn4ghEHpjgwxYEp+ocRB6bsBVMcmOJgb3Xg4l5wqcJWv/vDb/SFLXXgWl/Qdi840oHSCkojTIx/+NIOHMlAaQZKIyikMCGBDRpQON/n3HvujyT3Jjf3JrHV5zPOvL25P895zvPjnHPPEZsqq0d/+3za92zFktUxfy5oasBzS9E1LOnkAq4nYAoVQDAyBH51LvFlSM2KhqSb49Lvnk9GIFxtA3SDzODPouUGJHe3qn0c4gLvnmEYX5iHmPRlRFmSj8GONYZra2igFKAciM1G6NZYUtF1YOWuTou6n4eJi2nM/CEY3qebS/xuSkylugwTl/jY/aCF9gUntPA9W8X+QQhprZgwe+ZsC2x2K97To00N2QI/om12thUdgtmcw/dbhoX7PJN9xutBHBiBYbVtOwvxfwzC8Pd5cB2Mw6jB4AC3RzcW+kGd9+tyg/9QAmayBVh5UYTMpTB4hW4r3xqGaFOdKqvBJrVW5l4Va74hHF5mYeqbFKz7JAlz03EY3u2DnvVeCH6egLlsEVay4xCst4CVE/jiSPWctHxB/TTBu601izNYpXT5rOREwJ4hGLLgAHkPD6FKkFn+T8LgE/56uNE5U26Sg0VpKFcD/iqpeWOdBTj96bQUPLn2T0H6fwNar5pVOikvv5yGYWkBEheE0KkY3dn001rjlY+OkMk/a1Ciuvpgl9K1GfXTyeXfrZlT16YQJBbykFDmGOSfs4nN9tICeV2NvEqd2w7e92tf7iyknTtpBmR/GIOUaxiSN5IQPxwE3ztu8O6LQuJGBop/ZmDc7LPaDjxbfXzQr5quLMzXW2zKMSWY+OcIZPmicJtikJ4Og6fpRtBlrmZWH52yBWuJ102P2MYPfmWaifICpPmcuG2hk3XZhK39EFBEv5nPyl+VHlwV9bYT/nVrZFBbfF+ZZnEBxviAnD0Y5BvOH7padH4OktcVLzoPOd281RKrSX/r6kK9uZA5878p79SuueUtojYsKXKB5f79LJSV0d7uIQiLUeP5HydQagBmf8Tf+cjrivl4Bdv6tXnBf51X50w3IpvlIz85bujbqY3ctENNjNPlh0Tujni3Esx+3Gf4xaldzGOqKl1uNv8759cMqDnwfgBqc0DXgfVwHMb4iPxfxmAcdYAy2jvw8aA4LwVTl0vqVx6Viwa2g1a+Z4voCkPia/Wh0I7F4ch/rLZcC36dgAn1ywdOK96zT1t4tpyDrJUO0+pOpE7b2UeLju9hb8HSecjwL3E3+TQ9UkEA4l9rI7/Ld2dhoYz15GuThar1HXP4PJaeiDeKH52BpdQwaiZOGRbuNfEuq8ImtUDmVgEdbAhf4eXcNNmH9Zr40PB81A9nfw9A7HwEQodG1U/6kt/EIGR1FdbSsq3F9Ja/C6KhMG9SW7iVFq/sg+HPtF58jTLeuh0ikYP4N/y5mljEYtMwDCkrjJdnYYIbuyYI/mNIKOQypK6b5AkGvupch88Lxg5cvZ6+hzOQEif1bLPzSU6L5MUiudmUeMce8Dn/ltmcTgwrttCLW1IrkdGIGqSkfRZtuECa240SK1M0mkro8QQM/oM7x+aUnpvJrRuCAcVlMFiUsB04ltcmadGnt/XpbB2yQn0boZCHgqHCQXTzFcOTJIzVbSAqwXKTI/JK1wah/185CHyRgMiHERi9KD4tvJKA2IcoF/UC/zY/mxX0czSnLjVYQ+IZ2lKx2TwpSCnv57O7OK9uNA3qmA5oRku0xBY4HgVjkTWkR8rPUd6a6rTXsKY3OoFuHQEs4eSF+t20JaxjdulcXTYjBIMfKtY3BeP/tngHx3rQnq/dMR+uAS3zr01pkQx26UePTkDiOz7qt14c0gmdr5tX3bCDoATpTwfg7GPxpwEdl4N6un7rMAyLEbzwWxKmzKZUKE3A9G2xbXFAVPtAPa/EwHz6zduYsNzdh6NitLdu1Pgy2oBbYn7qg1GThtYwDKmLcM7C1HV5s5YFmPpJyCof3exwzQPDGKcrCJM3Y6IhLA9j7xtPv2iHejFV+LAyfUNZ6jQwY+GHpJBdDwz9Q9P/erQOrGWYOj8Ls+encEv3Nblu1Hj6WhJS0tzuPjh+qn2Toii08j1bhffklPgSgFOG9D+sd4CUbh+H3sBxmLpXqUOdv6cbhiLK31mYu2Zi757PQ1a59TOMi8SmRKfjjTpfdVvGTvvHQ8wD/m8dm6PVCcGeGJxW9G41G73CPnPQDld3pPJBs2aPuScA6nKdTXQCrw7fpAUytwroYEO4yWqqlslBpmaUQgoNoLOKxOf26u7uge63e+F0U8ZLXoF/+fIRYwX4fApO84UqEdehRO3nFOi0nvatg+4edNLCduYGqsP10/I8364QDH0o72qMB4Y/0vrG0hcnmgu6d8Yhvk/WGqX/GOTJsxQcQaUzpjptjT//qZmrtUvTSoXf5mvybPnaEMTUVe2Nru9cXjiGjbxGqEqtAFnpMxwdL5dhNhLDJxK0qJesYCVIfrkiNuyRf9hoSJLBiJoq8kbKYLc2ymPhqjYXHYfPs93nPw75YzFtQcHqT6tfTsHgOz0mc/XlIXVbHG20KKEKlsMfYtME6+XvVF6raEJGGpeRXVpTh6zTuDw0jGyEgs4RyVU39AUg/pXi0GMg8Pe9MPbQ4B1Rh40EvNCzv7lPIVP/qd95U5/2PpsV3EdHtc8E/3sc+j5FB6ymDpQhd3kQNnt9EL1Z9XyWnV1dBxWWUbbqHlwHDP1beTsLcvHM4sgMU1qpC8S/LbIFbZ1DX8dq1iPZr3phHer77ncGYVpZ6M8W9fRGazGzz4Ezp7GmyyxfHoC93xksnoRykjrVD15vsLbRzmIdc1yXW0D4YkJ914V/mjQgPE/D2HdpXT1woAed+NqvwIczpA3+dTWOZVAQOHVcNC7k4OwXaPvqLqbXCZ3vgcD7oqHg+RxM6xt3pDL0wd6ffBBTp24pcNeykhbLgfUpTYx0vRdGLyjzOufg9GHjDq30qbj48pEfb3FAVBvxqtOf4DOHTuP/qxryDkRhSPoCaBkmQsfx2TEm/cJkBCai6ZEyzH52xPDrktL3MZiQVK4Lwhfiqnyr2G6Iq4pxdiQgc0Ve84L/ZqkxvKmpBAxiqgNTkNglb5avReGIUaPl8wmI/Vu2Oa4DExBXvoqtRteBVb42CIN8EcyKzhMvRD8VuXf3OAzwa+6JamuLtQDT2LUV74mv4yzqrYJ/CbCQlNf+keDTu/XC8Vsm78ApYwx6qg96PpiA3JZRmDqhNZ1KtOA93UcTEBNlsvD1UI1fVH44Bnu9WFcUsa/pGOxwvIF1tuLqZd64vowpC6nLUzD13QgMhY/DdL0G9+r2jBI/H9PvaZjm1/i/4zAYHpO+MlG5n5Weu+5MDfpOXazZkRN1dGjFFDVYrx+JTUH2Kx90vzdSY98kbqbEFy0eCP29ia7gVeKbOJe5VQBrK4tsdAswfhueQlfE7iZI7lfO97LYA7FTpcDi28XvHj8LHgizsEiBrW7m3oBpawD/jrDYpTtsaUWcplL5fHBgRuy3wqJ27/VBFk8vMeXyxewkC2+Uf3PtiLPMC/GDnqth7b74bqM5sd8xRTa+S9z70JzYZ5GncYZqQTyTh0UXxH6r/DHDIuK9ocvLQicTbPLSJIsf9jFUIAzcYRbaqVzfqDyRKyHxOzDvyUWxU2GRYYVTf/fsi7EEXn/yfIyFtrikawb3eLTzD8v3n3skTncsLxz9MwTYeFHsNuJBjKFrLY71sKDIj8TJEPO6cN+WIAt6lN+9LHIe3+XSHFvSyYsm/242nBY7q6mbZ4IXkwxdTvm4TTF8iybRv8v+pNhZSf26ijR8ziKbOcDLUT7GsxPL4WSUBbfLZerC+xZZhsUUGdsYw790pIdlOQMX8x9LsoxSNsUMmzygyAU+232xX8+NCEMnVj5mS0SWq0sJFjs2XpVXTZS/Y3nl6GQW3yt4kj8XpjNRNnqj6uYNy2iORbjcSceEmam20+dFzXVaUYcsYLk8LMidRJKFlOsZyn+RJQ+4xXXk5FLfL8j8HiGXGyNs5g9xikUK5/zyuV0e5t+n5Vd4F+pFnl8bfCyAf0ewbO/kjTLMybO1osyR+6PM16VcB1OXi/l2ae/hkn7DeneuokZKLJ70qucFLtSrMPie+7X679oaYXGp3OMsIukAlP99Ii/573tiUl1ILuivqa9zISx1G7RDF7TAFjTUn3r7vWXUQMZlVHk0u85a0CN/jjMM18QzoCw06+sgjfRGRT59aZqbOv1s4Tpm9hkpXgkL+yWSS9MX3AbKeelhkdlaQbNexxAHdXnukFY/w1fFzhr08mFcB4uzEYYhpjjGzXyH42zyxhybwzoRPxZgXnwG2d7rsacHVy4GdOe4WOSG+MEKLai3rcqzlvjXDXAigxoYg+zRrlFP5qUy7YTOfzCqleN6Hwsei7HYYZQzKc+FT/hDUFwDWPAH+TSVVujvijJWjuHXiLLx6rKy4NMvXQiq+tW1I8bmFN9hZYnNHfOJ890sfMWorFrkFzTJzEGtrMETZfNiv8L8Mc0fhm1xtiT2m1H8eVgrl41hNpkV7/oCI4XzQVWWfV/W6jJOU3oTqW8zKmVZlasKLNRzHQ192z/usGG1DcPDwpcyrChkrphNsKBb/LZ11LgdQk8+znzSdeQUvFiVH8VxLYbEehmeFfsdYNU2On5PXX1yH70jdrYAfK7YziqbtCXAomfkui0ljPciu7xqPfIenmEFs7JoRXneRz9wvTjO7WMR6VnQf90vZH0r6nLFjhjKoJN4wwJqnG411cp+8YLepltJle9556j8fjV6vhqlTjTURZWxvv9cQeznaG1yXEcl1LbCFbZ0I6aWVa2/04DV5Js4lrlXS5sbwnWNVpjMgwkzKoXLsKCwAAKKcmiUunwstlAZUS1+qRhCdBiuNiWGyApbvBQWzlRVcnlRiS2qjeM1FGdYWBGcrXHToLVpFqIiwLBjqPRBnY2KyVlZZIn9OmdGJM+uOJvHzMic0H4zUkJ6x8SwY+IpBgM6mVCSeyc6gk/x9z+SLFwhD1Xl6lBeUIWy4Q3KMSbOiY7C1YgU1FVe280CJ+ckY1isDjwwmJlRH1enQDGZdSTp88y0QUCvNDcM41s0ic6RMG5kaVxXG5Yt50WGxascC96AGDh5R8ii/j5BNqlT6iupUakRRXXcq5JrCzrKD8xqZK3xl+8rl5NGc+XvWF451Q0XmAzfpVEZ6TtDqvKuAv119k2KnToc1yErWC0PCzaCk9MFwqaBH9fnEXT0tOupyfDeFjGS6TrJd3LewG7YfLZWlTnn6RyLo2NjVL/q1S3F6eSpfqMIsjJvnFebxPUxL0e3Vv7mO6O/pq7DA+unvQ7m9ugCZ7bAgv68H9MaF6s7CXXor+M5YXDUmtAjWEYHdX5G0527jfWG3lcxzCcJ/XU8hp2s+us0arBfeTApGgCVa2rJs0vYDAOaqmMcm3V5cp92nHkQqa+D5vLB3zUsdQhr15SSVNcUe1+NDT3IbazueEv5o8NpvW1lnjn1r61gVwYrmA0L2fKxeF7sM6NDOp93vlSXoyTrysADnb4yqu9O5YBTcwwmozy15CsjpnUIk2dXlCVN6nFL/YJmUONTXoYGTUu6xtiahlgzUJfFdhnLKy/fxD19o1QlzelNC77mizkWUeJ6KaFfoLcJFfnuZ/G6dcmib/uiwOZOBpinRjYx8XaI8/O1OtEQXQeWC2XX4By1I8OgE8MOzdhGJ+9Z0XDagg6dagr3EpLONIs9pc7m/XGts6oerShPrBPR7dV6waU2wms2ydhnsWVnraLXKZZSrW9doR8tJX3jq9LOVWdwoYpcJxrrospBtZWyvMgmD/qZt0Iv6JKD/FxVvoljmXt1vMX/hw+3pin9NgaD++IAnyQg8q7YKSg9SkHyx1ltfpr1EZgrJiGkflaAxzzOQcHtBd8GVGM2KS0vQ/lZBtJ/eiHo6wGPtGprA8olyD0pQs8Wb/15YpuBf3qxGq7FP095LPLD7wMr2dEMPL8LuTRkwQ/B97zg0Zfdy5J078W/eqFvm0deeV6HU3lpGv48ywVYvJdF3ycIfZuqngnzKpddhPK7feDbqM2T/UYj5UkGCj190LcF86vJ/JfqY2kR0vfK4NvfBz3rPZZksLScg0yuDL3vYp1sYVk4kVcJ/snYQzxmfS/0eqy9SzvpVB1qV3k0Qpp7+DnKz6Nu1F8tuHcpC2PhIMS7hiFxsOrzt79ykLqShNnflAxzQeTGCiRNprVq+bM1i6TPylDIpqH4brAt8ii945MMzBV6YOB9rC8VNyhD6RnKxSMX9LbBtii0RfbIFlTgWI+gXkx95oOBu0OwmE9AEx+Wrm64vn/O5SQP3bv7wLvBxC44pQN1uSHcV1xGfcarBH9Xi3LfrB4sP0/B8fcGIH14EZa+aVJSVlu95XnWRv9aolMyKOiMzpevM4/F2BfA6zQb87VCDtRjeluXp1we/ipA5lYBetDfbXdZOUKJK1sZq3JUeZXLZjX4yRKtfk9TuGyXoPBIxBlW2yH0tKtsWkoL3rNtyM+GFlWtiz1dLpvP5/w9uU7NP0hD/u0g9JvFlg145fHG64Sko7i/NQe59f0QfLfHeX6uMt+kFTLXadZ2Q/jLPExF9sKRawCx+0uQ2CH211CC6VAPDN2SJ6kJX2Uwc1DaJN4kSF4IwhlUh5om/59B2PvpLMCJDCx9Yz4nXenHAej5OIXuL3JgBtis+fyYBLGmaaEeyX7RA32/jwFLRcQegjAiCyN/64PcOQZzh8UugiAIgiAI4o2kg4tltp6Ff/ZjIJUH35k7dQIpjhsi09oCPXYWmSXWPiQvBOEMqkNN8stx6P/HLOS3xuFOnUZwjvtwUl0sh5QO8TrTMj3y6wgMfr8OYmeoEZyoT/bUIIy5YhA/JHYQBEEQBEEQbyxruCE8DVPX5G9mvZu80r91UVd1dYF7tXxFQ3QQkheCcAbVoWZJ/5AEKcf+5oXGOeaG7rflLRcpHeK1pTV6ZPnaEPTsnoXA1UyDxnTijeblMsxGeqD/WgBmFhLgX7Wf/BMEQRAEQRCdYk2PCFfI3EuLLXPy/5eAFN/wDMHwfmkX8YZC8kIQzqA61CTZNKT5vIv1eHwWErf4hgeGjoakXQTxOmNfj5Rg/lkQ0sUlSB6gTiOiDqV5yO9JQzGfhPAGsY8gCIIgCIJ4o1nDDeFBiH0ijyZavjwAfadSkDf4mrz0OA1jH22GzV9nAdb7IX5zEoI0IuQNhOSFIJxBdahZgv8clkeCL0/BQGAEUk+MMiwP6e8GYbPvNGTBBf5zKZjcI34jiNeOVugRN4RPDIOPVm0iGrEhDLGjPtSsBEEQBEEQBCGzthfLhBKkT4Vg8NsF3JJxbdBWRS2XSlCWRuG5wHswDsmLMQjQiJA3GJIXgnAG1aFmKd0egdBHY7CgZNh6t7aSdrkEpb/kTdeWMMR/nILYThrhSrzukB4hCIIgCIIgCOLVsMYbwgXlEmRvz0D6XhrmH2tDi3r8IejfFYTQbi+4aVQvoUDyQhDOoDrUJGUo/ZqGGcyv9L08/iXw9GFeBSC4Pwheav8m3jRIjxAEQRAEQRAE0WFej4ZwgiAIgiAIgiAIgiAIgiAIgjDhtVgskyAIgiAIgiAIgiAIgiAIgiDMoIZwgiAIgiAIgiAIgiAIgiAI4rWGGsIJgiAIgiAIgiAIgiAIgiCI1xpqCCcIgiAIgiAIgiAIgiAIgiBea6ghnCAIgiAIgiAIgiAIgiAIgnitoYZwgiAIgiAIgiAIgiAIgiAI4rWGGsIJgiAIgiAIgiAIgiAIgiCI15pV1xBe+i0Fs7+VxF8E8XpSepyGVDvl/GUJ8ndTkF3TVamM7zAN6SfiT2L1UM5D+qc05MWfBEFUUn6Shum7Laoh5RLkUBdOXZ6CKV7vymK/oKX3Ighk1csU1onszbVrg8rPs5B6Vfm7xvPuVVNaxrLjuhhTW/341c5rEWcQBLE64W0AUzDycT/0vtMN6956C97Sp7e7YbN/EEYuoy1703VQW236610Oq6YhPPtVr5S53f4BGLlaEHsJ4vUi969+WPc/KOfv7oXj0+2Q8xycDayDt/4HFVPwOCSfid1rimWY+ADf4a11+A5DMHFf7CZePX9Nw+DbaPjWbYa9kQnIit0EQciUfxyUdPw6714Y+t5hDXm5DKlT/dC9rht6URce+fQIHIkch+ll+eeW3osgkNUvU7Mw1I3+AdaJvr+PwYLYu2a4PoT1GfP3nT4Y+LbTT7/G8+4VU344BYNe9N97sOy4LsY0eC4tfn2TeB3iDIJoPeXny7D8DNPzqtEKhHW43/t/A7D5f3gbwBEY+wn9kK1BCJ9MwOSlSZHiEN3nA9eTFIx9uhc2d78Fm0NnIfXG6aI22vQ3pBxWTUO462UZFLXh8/nEVucooXPKezr6PksDdW6/Gt6EMuhZj4bypbzt+VuPvNFSesDdpdQkD3g3is01hQe61Xfwgrfz6uD14vez0I/1qttuCpzFsEfA5fcvsb3JC1Q0FniZhbO7N0O3dwAmHot9bSD7r37Y/M5mGPiexvm9SlzoySg63rvFQQ1BuTn9Xg8MfJcH774whA8EwOvC/buiEN0kH9Kye61CSJ5r6YSPtPplyg3rFP9gQw96C7W0M58cy6V7HRpRsbnR6OnbSeO8a8SbGiuVfhyEnveOQKorgLo4DMHtPPfcMHQsLB/wRmEhzng+C0M+9B/fPw7p52JfByH7QXSMZwsw9lGv3IH8Tg/0YGzf8w7vKFoHm/1DMPVQqStEI0q3RzBeRb/36xQUNoUhkV6ClRcrsHhvBpLfxGD46LCcPolC7PNBGLqYh5X8HUgc9kHx1mkY+Fs39J96k2yTc5tuhGk53DwNQz0FSN9KQQpT+pELQnjMYnFl7ZYDWy38EGT8cXgKXRH7OsYci7jke6Prz0ZzYjfRQd6QMrgSEu/YPjlP7lfyMcSSYt9aY/GkV7yDl8UeiJ2EPR7EmFfInK20KcYWxaUYy7DYRqP9hBmFc34tLw/MiL0t5mmc+ZV7QJi16S6EFe7HGDqjUll4T9qtIUXU4y4G61GH/yF2cf6YYePTBfEH0pJ7rUJIng3okI+06mVqkcU2iXwwtEFtzKdWyKXOHnc+fxvlXSPe0FgJ6wQvM+/JjNghk7kwzubF9ptGozhj7hDaL+l3zLcvOyznZD+ITnF/lPm6UM66vCx8ZpLN3S+wxXSSxQ8qMSxPbjacFscTpmQwVnLx/FrvZ7GUzs/VU8yw5MkQ8/I8x2MrbOjTORbb6Zb2u3bEWeaF2P9a49Sm12JYDiuLbLJCpqvSpgibUWKVNVYO7R8RzueS/W4I+j6bFTtM6OJDnThu6On4KFYf9G4Vm+CFnlZ1qRBN0IEysCqLRH0oH9cWG4cgcSkJd3IFKDzFVCjyDlApYTCjEvxB3sdeFOXjMKFDB5PfDIH27QLq6S6xuRHrqdhcVawy+fRs8/Fck7c9bcoxjx9865XtntVZLm8KWNjrxKbtr35uRmH4Vhl8p8YhskHs42wIQ/SQzji24l6rEZJnAzrkp655mWpjPr3xctnBWKmUhelTAzDwL/V7tFdEHs4eHYO8KwyJc36xT8b/eRQCYpuoxPee9jWJt4V6pPTbNIyEBuDs72KHEau9nr5SH5XP9zsGQ/7jQBGcQ55PwF7+xexLDwz/vAQz/zsMoR0e8O2JwOjVJSj+PIxaktMPwd3SRi2rRs+9WrKnNkPfV1kob43CnXwGEvt1xuUln//6LMpsD7zV3QdD36Ygr3y1pp9BYmMIEgsFmD+DevrX09DnG4GsOI6whmE58K973u2FI9fy4N4WgfiNjNQ+kLkRh7DSXvtkGgYDIr/XWjnw1vD2oRs92GgknDpS9hWNAF1ZZHOXkmz+qfib6DxtLYMmZLGdrPkR4Z3JRxoR3hlmDiiyYlUedb3P+1fj9warpJ5XUbiXZJM3FtmK+LstPJ1nyUtzbLGtNyEaohvxaVfHKzq84fktuNeqheS5lk74qatepiyMgGpnPjmVyzU9IhzphAy+mGRBJY86PZq4GqW8WjTa7nWhcZyxwhZvTLLkPZORnXZQvxy38DXCqrUfr9ZHzZzwiDykkfJOmT8m8nJ7nJlJeRFl1mX2+2rSc6+Q4pWQPAJ5S8xw9LD0dcl6N/NuD7LwgQgLbde+NjHzUZYuYL7j7y6MU4ti3+tJ60aEm5bDQlT6StAwL1+gPtsi7o/J/02lpK+FcmjziPAc5MSE6at+/kqXD0JHIxBYk3Mqvya0tQxWmyx24MuHFs4XpbGG6jTREN8WDPEkXsWXOO1gdcqnZ1cEhj/URoa3hY0BiBwNga+tNyHaTwrm7orNNxmS51rIT63E7KukduZTC+XylY64t/tFVydk8PccKDM7v4o1o/Qs30yrz0IYYBpnuMD34TBEdrUuCsnlVKnQfZlgwqq1H6/WR839LlbapjV+HJKFmZsiL3u8prG2+5NJmPoiaPz7KtJzr4wnZyH4cQrK60OQXEiAX/niWEdoegXYn0VYyt6BmdkkzGF+NsL7+R2YP+GF8q0h6PvqDRlt7+Qr7XrlsDMMA54AJK5EwC12qXT5IXFxWN2fvT0ntmTWQjmsmsUyCeLNohvc74jNdrHevWY/3fX5lAZaojN0QB4JgrBACUpi7Ztc7s3+XJYg6vI22i2xuRbpdr/Cp1/jedcpikWx3NeTPJA2NmANxxkEYR+tQwP+LNZZFNALkcM0gZIxJZg4fBqy4IHhG3OV0wC2AP83MxDbBJD/1xCcfSJ2vs7YtumNyiEI47kURM3KZ18Q+sUmPMJ6ITYVVns5rJmG8NJySVlovQnKUHpm57wmeFmC5ecO71BaBnw9G+D7NXsi3ksJspuCP6OD9yw/t3nfetjOtybhZezkRh14ztIy5q/dOZg6lY/N3EddM6CKMpaFnWe1/Y426hjH1v1s3ms1Ybd8nNaxVmJFp/P3dKr3rYKy1HLdWY3dcsPzqp+N6/rlX1Mw9eMCiPEyqxLpOZ2KXCvsfz3aMa8e102dkt1O0fY6grq5UZ7ZzFdHtrsp1rJ9wWdvty/fThzaC2f+82rKu07IIH/fdtSpcnN5uGr0bOvyvH26qhNy0QRr0Y9tty/iUIeVnlflC3/eZzlI/zQFqYeNrmtPh0l6s2221Q/+LWLzv2MQfyi2O4STuljGsqjMS1lnZm9OwfR/LXjtXLe1Qsx/OQ3x/wK49o9BYo/Y10r4aOULEXBBFuJfpcROZ7ROBzrRefbqgykWysFltdPeaFR6G8qhpYgpUlrMPIttdTP3Bm0eH8xF/FtJXhatXkHXYI7wlQdJFtvvleesEcm1JcwmH8m/m1FIxVloq+7e/DxPwHwVWvV53czVZTz32Mwh8bsyN9mLpYoVVIMXm5uIzOjdUNSYd3+czTWYe6+QirGAp/L9eP76dkVZwmg+thW+2qsP3013PCbXJj8Ln0yazqG28mCSRbZ7ap7Rsz3CJrMWZvt5Osfi+83uO8OWKuaCalwGnObzzYYsSqywxUsR5q/KZ9dWlL8Hjcu6mDXIO5eHBXa0aO7rF0WWMXo+lHO/hfmiOpWPtuVcrw8WUH4P+5lHL0cuLwudmWOFOqsRd7SOcXg948/p0p3T5WK+g5N15ym0da8W0fxc7AZzhL8osPnzXBbFfp66UNZP3mkwJ5izOlZJ8/LZtE5/Os8S1XKISdKHdZ63+ENIfgY3PpvRnJCzEfl3lBt1zlgjWUKZj1w1kYfiJAuJd3V1Gcz9mIuzAP99PV5HV25zZ0LMx/cp9+Dldma+/lzmyrPp8wHlnD+/+jdPluery7DR7fKz8+Q/U3tW8UqYecTvbnfEfG7L4jgLuflxWN4/i306jHwDqY5ynZA3f+umZMXCHMuZL/3ifT3Mf0LUE7UMzWQ4yMari9/ifM7N2fIVljzk0e57yCC3748yv/pcfhY31R13WGyLfFzwfBO6rJE8c2z6NcYssvgOfj+e99r9CvcSLLxFVx7V9cPIx+HHnMuIA4xAvTcdYyH9dXlqaNMa+Uj4DjuVd9Dm7TWSec+uOJs3yx8zmXqaYEFRJm53iI3XVe7Ks7iZ54DNuSFXlmr1EybXVvRxNoi/FV1WgXk+VeqRMEvW8R9mDst1wHvsjtiDWJFLwUreSDZQ1+zEui/+rjsHu5FscR/yZH2/R8J23jWizTKo5C+3lcqx6+X7yclAB3KMbJl0rk+qU0tN6QKZ+ZM++Z46u+ZSnwPl4nOdXAjsxkyKfeEpclXsrKLRMYtnZJvC5SUs/V5kd04GVFnzHJuXjmsKB3GGmn9YJmbzH1v1fVUfyqQs3PvGK+dg7qQ/xPW5QR6p77GglLu9GKo+/N5hA7n3Mv+BGEvq/FKlPDR9gj6bem9jebbr8ypI9b7Kzrn0dVskMz3YfFsOgnoztqu2DrpR90XPzxvoTszD+/bW71HnCOdpfZAlrMYttvScXb9BRtFNFefiPSvzqc66FTbj23rMHOTvYqMtpKm11pZYfBs/FvPUniNiM99b5I8ptM2mOygHhadx5hfP4z9nVjedlkP7aE9D+H0MHg6EMWGlUQprC5/knu/jKc7uVAtPVUN45pxmwCWDpy/89RE2Zyh8aPiPiuB0vZ9FpzOs8HSR3TmPzq8413vSKEDRNe6YLPyhLTDBn6/Ikvv1goyBYIOGNT36d/MejLPJS5Ns8jxWNOUZ1gfYeF4cXEVGabjaOsyS9wvq+3kVQ1Xd0PJHkoWkvMNA9MwdtvgUz7mfZFGsoPKzGzmz/Bn9soJERzJyXpz3NMOSJ4NqXvpOmjsIhasRcZybBY4lWUa57w4l3zCfK8rQQhnYyTc7svhiiY3vEc+5McwS6UX53Y+JPEGjGrpiVpN1MuhGw3tJ5F3uDovvU/KcJwdK5487bFgsTuDeGWWT0vMV2GI6zoJu5fqYTBzUTuWjEznX9IGLubj8blLKocAy01EWUN5z66jh4hodrWOcR+MsKHSU50CC3clVyft6lOk/xLE6bN2rhThuCP9jhkWUv4VTr3es/OeWxHlVOKpjBtiRzyZ0enE2opYJr3MJLk+X4iyyTanTHvMgRue0GTqZVYunrSzEmE8pf+4cVwQOHjZseB/U88oxhvVe9zsvt6eTLKzUIanc9PcAFrhgkveqnHtY+BK3r1xmM2zygMhLV4DFuRzfn2OTVzDoEKc1YumMT7v/tji6TFUU8b7K73jv2H2xv4rihYB8jCeKYaeeIps5JJ5xY5DFJN8AnxP1cuKwT8icm4V/MH7ipux/o8bp+7ryPqp1FhWuxurLMNrRmnyx0uhux5bPhrV67AqzmRodO8+iuo6v4A9idzXpYaGHm3V+G8izTb+mHpP7xP0k/wPl5bDQjbyTp6J+yLqp8ENYvJtoUKiopy4WuSEurOdFRgqO5Ot6WfgM1yOTLHEypOoX167x2nKWaOwjVSxg96KA9VLJD/kZKxpV8T6GRWIqU5VyH7xYp0DzceaTjjPJh0bo7Cm333OSbeS2f1jTjTwZBn518unFHIuI6/JnC8+K/dW8mGFhKeBHvb4g9kk00rMyygJRchnPyf4vr3Of6PQcJrM6W/x5WJSBi/mF/7yYRhunLLJnsqiYhKO8a0R7ZVDVgXu0AQyeHUL/melA7oOIfPHsiwk/Ss6viNLg4A6zySZiNNSaLHFQvmdQbQDxML/yHJjiVXbYScyk+WFKI3Ytd44q+eg29gHUhSRluVJ9SynZqIcO4wz9OxnJuXXft8BmTtQvi+iVaqnokD+0Ms/iio+vxijVbQ7i7nZi0bpo+ti9D8/lMYfkQ+tiH7UDQpNndcCKy8uC6r1r5dmRz4vPpsTBrh0xNic9G8rOjRjzC93k+WSGLfG8mp5kczUNyDbbchTfqsvHhoWPJ+lNVWdVd4robNrWuKk+N4XbE31dwOTdjzqowUDBpvWcI79BZ48w1poU+rFwH2Ve6E3XrrhkYzJmi9vajG/r8kLUQSN/vxFNNYRjKYu4oK7PYoTDfG+JP8Zpp013Ug6C4kXF9tT3822XQ5tp04hwBc3YmPYyKaiC7WHB/VwBuqWRD/qefL1hr2tYXUE2WVUp1QDZsMGnwOLb5euaOXf6BqPhLzEAcgfRcKDR44H0GQPnrA4zB/h1DBp6XqDjoRipPQaVQm0MCLBEtdJBQ84Dw2qDrfRYuj+p7u1dYfMn8J02DLPqX6RVjqX7YIBvFEzeiIjfjRur1JVnDX8Xhqem0jcuA9v5JmFVFnWGER2o6mDjzlGlwQef0eBGd5Qe4k1Rgx4+fSBpsyEc3zUqjJf3cwOnWm0g4M9g7KB2Jh8d3kdn6Fz7J2t7Xf+YZEHRM220GnEn65g+z70nqpwz3f1qntPOvVqMo4bwnSH5vTEAqBjt1FAGndWx+liXz2Z0+uKX8rG1zneRje+S71fb+CpQ9aXJM+kanjz70MHCf907MXjQjVBeWYiqx7gOzYm9etAhV0ZqNAr8zMoNZU6pU8ar4C+yUREY+85UWzyltx+Tqe6og9rwxJNRxzLm8x7ld7NRB1pZVD9fhts6fu56DIRqlCY+/Tm/uDbWA4NG9qbsf73GaV3d8H1pNmrYugw3agi3b8t15Ym/GTWi6EdDGcuk1njjOthsh159ebbj1zRCC1oCLMT1kxSAayPF9HUQ1rswiMHA6FLlSLKKYwyDEpRz6XzUbdU6Pz2sBvnGgUJjH6nmHaRnzLCiomN5MLZP8UGM6hlST6bw/ZRnrBe4qR1bdoKrP9AuSsGdiwUvGdRzXUeScR7Xzyd9p5uZ3KodQTW6rJGexTqnBIU8DjHI30ZxjPZ++P4/VOUw5k1AnGuoGxznXSNWgQzqeZFR/RGuY2pVO+ox5XnrdR7UQdP9xu/LcRozWfHDGh6jbxw6Ocq8LqUxkDfGjzfXyNqCOKOg2lSDMrTp+1opC5kO+ENc9oQ/ZChbUl0z6rRowr7XQ9HF3NZV3ZsPpjC+t65+mpSbghOft3hV6E+jTnS1k726k1HDXluO5iMGzlfJDtc5XBdV2yydnqn3PHXRdcRVpE0hFq83cp1jVc858RseoC6QfvexePXgL7XDuk7jpN34thFCJ9qqA002hKsjlpseWObEX2uRLWy3TXdSDhKaPmh4Ddvl0F5WYUM4JgxA4gsG0SoaT1MnECu0MjS/NkhHlF4PTEbOryqwG9GgiX16NAOMqSvAxqsrRRNwRV6jUATayDODz7nQuMi/oXEwcmoezbNMRX3UGi48hvcrsvmFqrzSNUiYf0pXxxDqRtyYKkY0HOPTtRW6URnYzjcJi7Koc1gNRwvpDFdNY4waJNYZaaTKudWGx0rUxgfDUXoyjRydjuQj4ug+FvJJq5O1Dkzn6hi63IeEITMpE+05qwydjXu1mobBVQ36EWGoIw7NGH4apo1eMghYnNSxhliXz6Z0Ojo93n2TxvpMHYllMgpV9z6GI2dziqPKEzo7F4yajjRdDltGDeq1rlzwOWsRDp1I+pHIeuQOJJ4M6oZabsbvqQRO5rqjPvqGVcNy1/sIRg6fElxX10Mrzj5Dh175vNCgIb8pWTELbtQRdi58P2PdJNOE31QvkHJoy7VRHiYNhrp7G9saZdS4QQDWkHrybMOvsYAWtGDaGjPsyFbzyoW63PCrBN0xhnnCf0dda3huhsWUgNokUGjkI2n1F9OWYXbHSE5Vu2My+rSeTFV0kJgEbrpjzOubGZg/SoeXaSO6TjZMAr+6+aQ2wmFyRZhht6Jk043sUwM9q7u2YRzCaZS/SsOtyfur71bz7K3Ju0a8ehnU0Do16oxEU79KsSOPmGOq7jdpfHUaMyHcX5XvYcXfNTlGbx/RJzb+cswarYgztOcx+ILLpu/bsCxU2u8PVXSem5RZ5sK4QUNxE/a9Dqq/ZRYvL8zX1x8NGsLt+7y6zjJDO6blveGUObbbcrTrGvrZL5bYfM1IbZ1fbWdEuMKLApvTTUOkT3zansppYHVY1HOy/rDnN6jxqUncoL6/ic9hO75tgCy/Nr8Y0+m6+vmmIPz7RjJfgzN/zbktbL9Nd1QOiDrwFfO2cUez3XJoL6twsUw3DM9mYHQnZm017m7oFpv5h1mxJZO7OAXyHj8MfYKqpZouP/g2yZvle2lxrAFdKBJi0wzP0THz1VMt4P58HpbOo6o3wP9er9jKQuZ3sang9YJH2kjD2a8M3mBLAPyoiTV8/BSJ5cunYfq5vK3hhsDOyrwqXZ6AWWkGfjcMHDRb6dgNwd3KhZMwdVfe5JQuj8H0X3zLBaGjEeMVbDeEIXpIfhNDTMrAdr41wfS/p0F6fVcYhg9IuyrZ1oe5KpO9Oye2ZGbPT8mLw5md65SXs5D4j7yQhevAMIQxn+zQiXzktPs+vo/Coj4sw9SFygUYOlbHXk7DxE/ykhVmZeJ7T5UYSN8Wm5ym6/MqY2cCctNYBgbv3IO6WiYHmapFZJzUsXbRUKfvmYSln4eN9dl7flGOecg9kDZMcRnV2a296vu6P5mDO58b2C88ovddsfmywRIpXevEhh60BcL+8XLLXAoavotvi3Lv2oXBlh/mxD58lq3SRgU+nybn8zYWDgqcOq6Ve2qmdhX+99GGi024n8ZaU0npp1lpn+eTkYp6uPDNuFjFPADhQ2YVKgih3WLzbhKSddawsWX/ywswEtgLU49dELywCJkvjXVTK3Fqy91HoxAWhrh8W87bCrb2g18x1E/mIV2dZ78kYYabqz1RiCqyZ4caeW7er2mOIEw+SECgxglxQ/fbYtMThPAOsV2B7piXvBZV44bovSVIGJ6L8q0I+INMzcr7FaB8G/lIWv0NQGJhEoJGcurzglrLG6iSWrwQPRUS985C8j95aauChxMwxeu/JwrxY00asCcTMCFk0B8ZVp/TNkb55EZ5PCj2llMwq5N5mRQkr2PGeIZhpJ4fZ6Bn899PiHpiEoc0gufdb/Km2fv7t4m9ZdSBv8qbEq3Ou0a8MhlUWICxi6KW7ArDkJmo7QlhjZZJTydr7YpDnOpZjlv1l1rEntP2F59rUZyhgfWkWlA66fu2xR9C2bsgnnvbMES3yZvV+D+PYi1oD753xbM9m4DTP9ZKtXtnwJkOsO3zZmBRxFXeLarHpkPL+/xvtWVvvy0HdcpGeSt9bgSy1QsadnkhsL36bXwQf7QCxadFWMmNav5ls3R5IPTNPBRXFiF5MgReXZ0p3T4OvR9MYE45wa7fsAzZnJDcd7U4Q0MXV2Tna30OJ/FtA/JPCvj/HuhxJKRW6QM/j1me5HTyYgVn/ppjW9gBm+6oHJ5Pw9BnKdSNXohdS4C/oa2wWw7tZRU2hHeDu2bJ0UYsw+xtRc1kIe7vhu53qlM/TDwRhzzL1Q8y6lLP2XFAuQS5u9MwdktTl+VqRb4DHbr18mb+2z54yzsAI5fTkKuzkvPAPhFw/5WCIcyH3o/PQupX81Vv07eVcNcH/jqxutboUcJztNzUzvdDsB2rAFdjJd8sk4I5xUEtz0r5VStHw3iU4JFejtKQuivKYWsvVvc2cC8FaXEL33stvkNL87EOrbzPdjTiYrN838CIV9OOOnZrTm0gKl8fMpAXTGgoFPI53VPaqM+riu4eYye5Lk7qWLuwqdP5qve/pmBqel4Nru0H9TLdG5o2fs1jq9wAPBuVZytC0ag1QW2g96gBSVNsikJUsRn/rW2Mzl+b1WThOerbisb2EiSneU30wfFT+rLMwdxtsQr+BgwE6ry45rQu1HHobcjKsxQcea8fxh67wH9u3qSjo/U4teXQFYaRT+RwF57PwHRV4w3cTEJKlfcFSN0Um4L0D0n0zFwQ/jxqS97q0axf0xwuWOe48Qdpws8sP89B+qcxSD0SOxp1djWkG3qa7ayxiPvwaRgWYpG7OIYlX0nuyqwU9Ps+izXdCFS6OSfyzAW+beImbSD8xbBoyCnBzE9KPRGgXPOGzeafvwSpn0WJu7DO2dCByzfTaoNJ9pzPwDZ2Q//3yhHLoHcnOpV31mmfDEr8PgcpodrdqMPMdYyu0fO/tR2oTnGsZ9tA4MCQfZ3bzjhDYTX5vnb8Ib3sBRw2ONtlXwijbE4ZUh+jbnhvCM7ezMJyq3t69Fjyeb3QI9RPscQb2arBE4Sddm+s1lNO2nL8ENojelwej0Hfus0wcGoK0r+XqjoxqnHhc7jx/y0A9X7kmzlY+nMRJg9o71a+exwG/6XFna2isd+Avrjitv9ZVMtMz4riM23EchObKk7i2waUSvxZbcYKTaMboNACmvfX7NnCTth02+XwMgsjgSFI/eWC0JWMSWdBNa0th1axChvC7aALzF1e6N8dhKBBCh0IQxhT5EwMQuLw5ukG9zti0yHlJ2kY+6wfervXwVvrMJgLDsHpm/WUZRCSd+PgFw4EPEnB2Kd7ofeddbDu3UGYelhbGT0n0zCjjr4uQe7H0zDwfg90r+uB/lMpWK4IHNGxVm+PCq6ed4BOnVot1WvkIKP2Djc43wHN55tVSiDpBI7HZyhDwd0hSYZ4in4dRddXYRkKysi0HmW0Q4t5VlANWU+NA9E87cvHStp2n651mvNiYojaXsdKmpPl2WYkL5j2yfISPhCF0U81ibFTn9c+TupYu2hCp5eyMH1qEPq8KE//g87N+wNw5N9ZVQZea3b3i7LIQrq6URRJL2TkjW0DELKl+90Q/Tws6vQCJCtGOeVg4gd0Cde7xO95SN8UkSinlITkf/HfmtHHecg/E5vr3bWOvg6fTwtnzTs0mrP/qc+6Yd3fBmDqMf6xPQ6pDowEl3Fqy2W0Ufq1DYbTl2eh7FLKA8v/lv6rnDRMX8fyazSq1ibN+TXWUEfadoQy5O+OwfHdvfjMb8G6d3phb+Q0pBRZXdUEIPaZ0MrLM5D8Rd6UWYCJH7ngBbEuN5+fhadKnW7zSLGdMTguRnGWrk9XNI6mfkK5tvX8BU3XeHpsNY4VtUAGvO8b2UZM+4U/cTgOsf3icKRjebdaeJTHHJfprjt6ygc+ZdQjlmxrbXVr9Gyr6XY7CL5aHGcYs8Z93wc5tcOqvuy1kY0xSM9GVJkqPZyG03/vg57ut6Bn90jrbEnTPq8P+t+XvYLSwoKaTyqleZiXns2Fukz5VkPBWVtO8Id5iO8QHsnLPKS+PQJ7feiDrdsMg5eVLxo7gMsHw7M5SO5XvCP0mi9N6Brt7dK83xAICFv9axrSNXonDQtiaK7vg1Bth5Cj+PZ14tX4a6vXppdg+u98cA+A9+Q8zB12YG9WAWu2IdyzVV/h0HBL03EgnjCMz87ATJ2U/F/jz6A6BiroqY82wzrvXhjhBmXbMMRvZKC4wqDwjTIGxW3sVO0YhcwfS3DnfBQCWzUlW348C0fe64aBmk+k3BCeLkAxm4TYAT94lFNeLsPCtwPQ49N/QmQy0s8IvI7RB2dtGUWs4CTfrFDC9xeb4B8xlB19Grfz6etqoN35qNCp+xjRoTpWQplR6PunsZxoaRyGt4iDFZquz2sNL/j002is2TpWgvSpfuju7oOhb2eh4A5B7NIdWCoyYCll9JULnMSfq55NUYgf4DJahtlTI7Cgjyp+HYEjl7msuiD8ddT+CKkDI+po04Wrus/Yf5mA5BMMdL6ZUX/XT5/CpyRY4PeuGX2s63hpRJdW/1pF8BTK8DE/N5cAv41A/6lOfRDo3JZL6EbpVzQYliZg6ha6W5/MqJ/gV0yfch3L6zkGVzZGBVujGb9mlfF4Cga962BzcAQmfi2D75M4zN0vwgorQGKnOEY3DeBqxIv1TG7CWIap87PSlsT1BExh7OY5FofoqtaFXoh+JhphKr52kKdFcR1EuX8Fz19Q/YkeCF8wtolqujJq/Kn1m4KukaYRLfnCw5AW6dk3kbXs+zr99K9FuA8koVDMQPJkGPyqEUSt/N8xGPjbZhjRT53UNPZ93vDXMdkHfBiH42KaHZkSTEfQd+SbW2LoT0o7dThsy+nywyja0qV0AqK7fNpUhOU8zH7aC92hac2nbDtuiFw8rQ3kcTodhE2/wft5HMK8w6k8CyOnFip0ZvbUEZjiA/jWhyFu0PHrOL6tg9vN5XVZ6zxuK3gfqddUG7hhmdfAX6tH8+WAdTjshaFb6CftT0Lmm2YG9zgohzayZhvC11UErT3gVnuWV9fcMzXwzwl8m+HItTy4dsRhfmUFlu6Nw+iHfuDyqO8BMv1UweWF4IlxmM+tAONGUAm0UcWlTp2u+VSV494egcRsBgr8fmgkwsq1H4/BiNSAwdHfUze6xQiUZvWjJ9XJ9EGfqvVz6jxhLaEV+dYIvTLLNZijswZdxX60aOHcPOSaFVSXJvM5K58gGdWFTuQjpxP3ebmiGXWfNq90J+uYfm7H3AOb/f026vPaoWqaAUd17FWBhj/UA3u/XYDSxgjMPGVQyM5A4mgQvNwLV0dQve4j8dwQvpqHmYMeyW70v43OoX8v9PMRN++PoUZzS/Nfzxx00oKkG2363wn1E9iFKzPoQoVg+CgGY+rvs2L6lDxMX0VJMhx97NE+SVxGmyY2jVjGclTQqVpHuDYFYfhiBuZPyoLBPwPf3JHGcKe2XEE3Sv95EiauSzvFfOzoDH8W0v0+B7NidPDsT3zeQHujgpvBml+zivh1BDa/ewRmn7jAf2YeVlaWYP7iKIR28E+zdeXUrq/KWoU7CqNH5ScsX8N6KrJa+koALXHl9ERNoMpfHvJWjIMDG6LNgV+C5GXxNcP1KZgtu2HoWFj+u0nUhpcn6N+JzXpU+wza2ho2/MMO5t2qYKM2pUXhWV3NLoJvTqsD8Fbp2VVEK+IMq6xV39fvUzv7849fcS1y+yHyzQxkCiuwkr8DCXVKjjyMnZqw2fDr0OfdFofFhVHwu7Ac/9ED67p7of8D9H3e7pYa0GBrFO4sxLWYTaUVbTku8O6Jwfi9RbSvRchMR9UvD8q3YnC64gumNrMpBCFVPzTRaVaNE7/BHYaZ3AyE8Yf8d/2w7u3N0PeB/JV037eoN91BGMeyDRu47S2Jb03ok+YWt2irHLMo59Emr4HM1eFV+2sdsOnNlUMJZiM+GLpekhrBCymTdQBNsVkObeY1mRpF/+lb7eJsq4n8v4akzwn4p2GJ26MGCzI1CTeCGGjPiaAEllMwV7cBWjYSM9lxdaSWNsedG4IBxaplYd7g83eFEjr6ciOkS/v0BtE+L87Dwt3WBaItzzdDUI4Uo8WNcFMjyvqhb7vYRKe8nltum0CfmBMOXW7Mfzt0Jh87dJ97CyAmYwD/bu0Tu47WMd3nrtUL+Nqi6fq81nBSx14R14dhmDvvWNLRa0mtse1N5MkMTNwqQej8HCS/HgY/RkU9vhBE+UghDDpaMf+1Nto0B1N8MTSxeJfr4DBE0DH0fjIk9GAaZn9CG/PLGIyjzTcefRyE4Ptis7wA6Tq+wWJe0al+6GvxMGb/Nxjki89k89/2d2C0m3NbrqKO0i/D7OVp/DcPExfRZ9gmFgnjiyhJr7YMM1cW8IITMHGt06Nq6/k11sg9bovV1pGHs5/wDiNkTwLS/xvAp167BL9Sps1JwwSft1p8JeBkcVRfQMuT/GOlw7pNdIUhKj7pLfMGcLRFUgeOZwiGba1vo00JwMs6V69R1AT99EzNNjx0NO9WA+jz9YvN8kK6TgOACL452/vUc1pDC/VsXUow/5vWUdtWWhBn2GIt+b5bdQNvUPZWS4M973iPzeZgfJfYcdfmnPiOfV6U1x+mIbsxBskbCYh+6IOe9V7wH47DXLYILDdu8jVLi9tyutzgPzQOmRvKmhDLkLpRqSlKt0eg39sLQ9ea1Zl5mL3eSEejRlYaM11euROhaZz7DfnrE5D6KwSJG0mIH/aDd30P+D6MwmR6CVaKdyBqNpK71fGtDs/OPqkRdV6Zm6Wd/I714DkWQSCo1duGvHp/rRM23Xo5yCPBB3/CWMxWIzhiqxzaT3sbwn+3MjLWHtUjAAb2KKY7D8kL9VV/6Xm7g1BzFhZEjmzyQ7BZKSqVTBeDCu42WtSkjO8qu141bEAn0iBY8YVDquJL39R98lpBCZLXhelfH4bhD+VNju/jsNpTnr7kdKVkDUf5xrEki3jt3YraScH4v+vJCZaFMie4hAeGPxIyWE7BrMlia6Xn2qdGTbNxGAZFY7v0GbqhLJSgUOcWncnHFtzHArlbaXxbThCGjylS2+E6tiMIQUVkbo3DRIVMVIF6p0Kimq7PgtJyGxbEKUChLTFP9SgpJ3XMAm2wOTl0EGQtikG08ilcK9F/2dA28A4msmaZlykY8h+H9JbTMHUiBJH/HRefRCblkUKt8hLdUYgelC+W/xEd+MsTMFt2QfiwGKW5Mao2VKUxSJs6P4Xhjfno49CHSidZHlLXzYR8AWZvClncMQTDLe/scEPkxjzEJJtbhtTH8qgKQ9C3aUWTh1NbrqEbpX9rCiZuyR0P2ir2ITguFtVcvp6E6e8nMPhGe/iFvVG1jWner7FCU1+7P7E24reSBZgXgb0X7UY7zGIZdUnH0E2bwxfNHPsqjuXugsgJB4ujfjgkOlUAshi0G9aQl7rP5x0S/MeQXEfKszDx7VmpA8fJdD6hQ8oaB1mYu2ZSvwslbXqwavYF1UbI/I9jJj6eoNqf6HDemdESGcxZGEzSFYKQ0mHxBH1uZQG9an6ZhTnhR3CdpXmK1sjrvhQyonV6llOE0h9iU0f++0E4frv9XoJEC+KMhtj0fVvXWenQH+qKwJAyP//yFIxXLRRdlxb5qGWs/8YSoe+cqSYHi8oCf3Vw6vPm/xWEvZcLEDmfgMiHMUhcEdNn8NG02+tbB9ttOS9RpkxULuwJ4psYUJqAwQ/GYOFJDqY/CsFZMx1ixMs0TIQH6k8/U0rDvLim68PB2rXprOg5p37DzSHo/WcafF9NQezDCIxeFGVxJYF+tLd+466T+LYRu0PStbnP6KQ+WJmOly+0z/M5uL+Z1QGd+2uObWEnbLqVcni5DFOhHjlm2RqD9KUglJ8tw3JNymK8Ng0LJoMA7JVD+2lvQ7inR3UQjFcPNsJag0y5SuN5jp2W50FCli8PwN7vDBZGKOdgKtwD3e/Haz65UVfOtRXg2ODJvNQzoqf8cAyO/1t5+QxkqhRs+pQXev6OQb9BxU/fnZc3PCEYUObkLU1B6J1eGPnFwFw+T6kKOojOt8rOOExI88Di81yLwhGjEQ53RyAu9gfOTYjRe4JtpyEhzoffTsNeo8/A+fzN383WVGpLZWAj3yQsymLoKzG3GbLwzz44csugF+5ZCkb4wlwfT1fImOdkHCKSDJZg6rPaOUrz3++Fni+0sQOWPjuswAOjZyKy4Xo+BUe+qspbzNeJYA+Wt/ibOz1mIyranI8qdu+jUoTCUyP5nYLjfBQa4v1y3HjkYSfqGLo2p0+oEgPHA0cMF9BYvjUCfd5uGPpRe5fm74XcPQ493T2YnM7/J6MFFmVzJ9IMVNSN+6gx6K+6rpM61hBbNscqmdpFIvE5j5xRFgnMQ/a+2NSDL6C4Q4Z1/ndt4SVzMB//FJsoL7V5gnsUOTKcmilnaYSiNkdtWdPHCr+nYYE7XLi/3c1t4S9Eg8XyBAx8hsHQhiFd44Ebop8IRwrrw5Fr+O57wjBk4qm6j43DqBjxkvt6yNCZL30fgwlJDD0w/E1MlSFb6MtbP6qzyw+Ja4rsL8N0GGX/tkGlwzJQ9q40Wo3e7F4cp7ZchzZKPw3HQxP49IGKzsfAZ0Pye2F5DX2Nz+EZhCFHnUZ15NmOX9NynC26l19QOnEVypD77rg6FRA8yNT4qJxGPlLudwujhv7QGmINg8h6MlWBbtocLPeRf+O90f+LmzbyWSEE8a9FQ8gvp9FeVtWP52k44tsrz2vKMckHy/68btHM9FenUboDDabzqSOXnA/jcFo0Ii6grpmu0jWl20dg8wdTatnXTKuwMQqnFf95eQoGPhiDXI2goaxcHoSed/og/pvYJdGavGtER2RwQ7fa8FA0dUxQ/i6MCn2ag9OHjaaBKMHESa6vEM8wJE40r9lL6iITBjaR0wo9q061UYK5a/rxxWVY+L8+6P1nHqInlLMw342UQ8toUZyh2q7az+5t+b6Ie4MqFTV+ZSUN6inuceoPRb5RZK8M05GBmrrOKd0eg6lqP70lPirGmAe6oRfjyRr1gL+l7gmPck+wStYwdlBu/lfJQoe7PZ934Z4sM3bWDLPdlnNvBLx8YXKjcr2dBlmqPBD6e4vGot7i18zDWKAXjhv5cVgO6nzo4IfT3xgMDLCk5zTs+A25e7KM2GuUtR/fNqQLffYPUcs8ScKEg+lq8g3bUcRC+/guQ4fkPc1i119zbgs7YNMblgNvBPdinC7K9vcx6P8b6hHD1AcDn56GGUNRdl4ObYO1lXkW9QDjt8FQikXOT7LJS5MsfmyUzRXFIYLFk15xHLDQFbGzmuI4C4hjYH9S7NRxP8awyqrXgfU+FjgQZmFMga0usS/Ixh+J41UWWWyTcl6IGVxZ93weFrsvdtqgeDEoroNpY5DFpDxJsNh+fn0X8+/U8sG1Jybl15z0vAUW3y7O2xRmk1mRgS+KLHM+yFCMpfNDV3QZeyMi9rtZ4OQcW1qRd6/k59jwFnGtLTGWeSHvV3mRYaNbxe+83KYzrCgds8KWbkSZr0v+zXv0DqsqRpniHRZVro/JvS3C4pfm2NyNSZY4GWY+N+7fOlp13/plYD/fFKzLYvFKSOSbuJ7Hz4KSHAWZ3yPkaMswu/OHOEGPXgaxnOJ4j8nzMRbaws/D8jkRYeiHSL97TmTESc2R0dUV78G49B6JkyHmdeG+9SEWO+wRv9fKaqfy0el9Fr/UfufvEb6kk8F0goU3yr+5DyRrZLCjdUyiyJL7hVyIYzzbg5LeCe/zMw8vF9xfWV/s3KvAEjvEOTwdmBH77ZPcr13PVO9WkGQh5f6bYlhrjblz1C2u62WxB2KnDkd1rC52bE4Dnb4QVesstymRM+Kah30MnVjm2YllrPy+JcIS+FtyQXczfFf5PigDJw1y7IFOZ5iWaSMb1ahcdL9vGTUtN00eDMoN7S8GVdLv7m1CvqUUYL4Nbube4GX+ffj3sTibU+TZNvr3xTw+Ni/2C17MsLCoV7yehGfFfjP+SLIwtzv8ePQB4ukl1CSIqG+8HPl1gheWpMOracr+Nyhvvf6W8nlBGGYFvTwY+Tl6GsmWU1uuQ68rYM941fFLLL5N+913xjgfrVNHnu36NQ3Q3i/IJg3PLbLxXcoxxn4iZ3Kf2TF4/h7lN5TpfTFJV0j+AZf19X4WUP0mlMWTXM/g+6nP0thP1dff0ZzYWU0jmWn0ewV6fQsseNFpvefo7SmW8bGE0LeoZ7m8YtlG1Xw0KqvG+aSneCEgjsVUI9fVWLB/qGtC68Ux7gCLSjYoziLbZb/MeyKq6lHYNylO0oF1Nqbzn6HLxXy7hK7d5WMuqc6a6SqnedeIDsmgztZwfR3j9YT7cMfGa/K8eCUs9Df35+LsTl4ohGKGJfYJP8Qw7rNGXZuo4FjP6nULlveBGL4r94XkvyU/UJdngQsGV9H9HvxB7HOAkziDYx7T2/WzMZd0vr3iu3P9Gb1YLRUd8IeQJXwe1Y/t8rLQyQRL3phjSazv0V38/d0sXPMe1n1Uc+ZYRPg/7p0xNqfI/MoSmzuq5Ds+s0G5zB9Tyg3L9bCsHybPRNnoDd3NHfq86j0wT5Q2GJ6C273oJ6KvuDWAf0ewXt9R7XcFNtpyCuf86j21eBFlJptgQaGPXehPVWdx8ec4C+0KsfjPljNfInNCy0eevPtjLHm/wAoFTPeTLLpT6B58nsisybUt6TlnfoNWZ9zMx/1zpTzQlkhlsUmOvaJn5ljG8DHtxLcWUeRsVyO7W4let7jxvvVQYs2aGKIhTv21FtnCivxvh01H6paD3jZZSca60n45tJ82N4Tzl9ecFDm50KhOssUq5adXKv5zBbG3Cn2AaGa8ns6wqHA4K5PxfWXQ8RQNawB+Fn8qduvQBNpqg5EZRTZzWKvEakKHOcYVcYVDxRMa0qtcNBfZ5CFN6dQkfn6qMt9Wfh7VjIZBMs8P5EWBzZ1Bp0c4cBXJU3uvGl4sscmDXs1JUBOWw+EZVqiprI3KwG6+aViVRc7KQkI0XuuPx9TlkYLv2ufXWHmA5+qCQym50BhexTzLjWoybBQEWWKFLZ4PyUpQdw8XOiQzmG/6RuRah7hT+ejsPpKh8wyzOysohycDVffD5PGzyKVFuTGrhs7VMY0VNo9lIgUJ1ecZ1hd799I7NdXl0jy6gART40YP5MWk5ri5IuiOG6PXl+GrYmcVTupYPazW82Z0euacgQxyh/sH3hiBjsoBpeFfTr4zurz8QRe8HTLIsath7VxTnXCHDW9Qrh9g49VF36hc9HpnYwy1rRF6h8fNhtNit47avDVPnkMzeEX7LJ3xiWt5WHRB7NQxd0jIjieKoaUFVrDOiUBO/5w8ubZgQP7AzBg2af8blTfW/VF9Q1d1wKpzjBsGCA3vhTi15QqzYdWeGzV4qoEoOuM18tksdeTZkV9jir6Bz6zBq/IY48CmwXX+mGER9Xct8cYMqdPv/qjaaCYld5jNqHnZyEfSy5V5h42+4dcwiLQiUzrUeurCZ7Wps2vgMnvMX+M/enbF2TyW7cwBZZ/Rezb25yvQNUY0bMi3aP/Y0zmMQ6pklNu1M/PoKcywsLLPTBfj+8/g+1f7eDw10lXO8q4RHZJBJPOlov9FquMXrDyYZJFtlTZYTvXiPivo67OxTVRxqmeNdIPis3Lux9TGR6M80zcOWfLlGuIkzsDyM43pHfjZNb47JqO87ZA/xCn+HGOB6niPJ3yueHUnt8Cqj2rKn3fYqNopZpB4B4OZjtAPChDJSKc48nmNysksrUc9YqQnmmzLWbwU0QbR1CS509xuTGEI1vf589E6vgg+5/44m2tgfyzpOUd+Q21ZmSePSaN9s/GtVZRGXheL3BC7WskLjJt43XQF2WTTg6oQR/neOlvYXpvOaVAOxQIrPC2wYiP99KIoH1ddz5yWQ5t5i/8PM7C9lJYhl12E8ru94N3gATeWZtspl2D5eR4y94rg3d0LPR6872paqZvP87u8COksupN7+sDnQZOjUobS7/OQ+asX+rYZ5Bc/9y+AQnYOCj0D0LfRBZ6K86vB6z0rQfkvcT+eH5bLQT43r9xrkxs8G5oowJdYDstYDrcK0LO/z3n5O8k3TrOyqNzvUTcE/V5wb+SrBVujtLwM+fsZfNB+8DVxnmWUvMW86Av4miuXTuWj3fuU8pD/y6utyM/f9Tc8Fvqsy6CTd+TnNlXHNHi5F3JpyL8dtPasTd6r/CQLOfCBf5OFPFgLKOVko46Zgtdsuc1RbIqky2rrdGk5C5mcC3r9WBeticoahH8SOAjB82UY+jpSteDJMmSvTMHUf7VFwUJXCjAnFqRrGv6ZILfZyr+tQtKbBVjkn+/6g9CLvsErL69Wv6MhDm05p11lYgv5fez5Na8WxUZk+ZoJ1foC9UxuIYO6C21WO/yGVnP7CHR/MAWuY/NQuNjiVWa5zn2SgUyhB/rWoF4tP0cf8EEG6xv6LVtQNpuuM0qdTUPx3SZ11RrPOw7Pv9yDRXChHbcUw+l9vlcW9znTs7LMcN9lldR/J3FGI2z52Tx/c5B5hL6Wr8eyX95u5HITOt3Kc7XIR+X3LZWLmj+zwYK88TJ9nIFFjH9668mnE5+XT2/44TCk/CMQC1T+WHqUguSPs5BVZo7YFIPFfKLKnxQoz3DPYluOJK/ogS5nYA5134C/B1zt1gO6e6b/9ELw3Z6m4hires6231DOwdhHQUiUhyB+sCqXsQyn0G9feCymvnCFIFmYg4iJ+DYd3zbi+TQMeIcgBXjfPN7XcBFVO5RgOtQDQ7fK4D+3BJkvvWJ/86waf62dNn0NlEO76ExDOEEQBEEQaxcMbI7vG4CJlzEMfhLgNwssfh2Bze+L1dYPzACbbdeiiQRBvFpKMBHshuN3fRDPL8KozYVKCYIgiNcBPlhiAPq/mIf+ugMhtAYyAC+M5pYgXjUnPOGc5VvHIfj3CSifyMDSN8pCpLVkT22Gvm/lueXDVxnMHJQ2O0LpxwHo+TgF5S0xmH+QgEALWpOV93HtT0IhFVHnYifMeVPLob2LZRIEQRAEscbJw9kPB2Didw9Ef6zTCM7ZkYDRfWL7jwKGRQRBvJY8mYAJvpjanihEqRGcIAjizebmMPR9kYbSngQk634N6IbImahYOHSl+cX6icY8OQuh0ATkNkQhWacRnOM/N6ourFp43lmv3X14DhYvBMH1eAz63x2CWQsL2ZrychlSn4pG/a2jMH+DGsGt8qaWAzWEEwRBEARhzrNpmPmNb/SCf4e0py7eTbLL4/qb99V/2k0QRFuYPRWHHNbw8OdRCjYJgiDecFI/zUqDHzzb+xvbhC1ekCdK6IEeZRpMomUs/zQDWb7xnh8aTlrWhWUhTYfhAu/Gznvt3s/vQP6HMLgx1hj0bobBy7mmB9GUH07B4Ls9MHA5D+5947D0IF5/0A5Rw5tYDtQQThAEQRCEBeYhdVNsmvF8GsZ+4sN7XBA+FJL3EQTxevFwBEauYYjkGYaRA2IfQRAE8cazfDslT49Xh+y5MVjgG9sHIUIN4e3jXgpm+boudSj9OAbJ57ixPgxD++V9ncbzyQwUH01CeGMeZj/thXU9/XD8pyyUGrTEln6bhpHQZlj33hGYfeaF8KVFKPwcBS81gtviTSuHt2iOcIIgCIIgzMnDWf9mOM1Hha/3Q2x6BuIfVo32Lpcge/00RD+bgIUSgO/LDCyeq/85JkEQaxFtfldPOxbJJAiCINYeN4dg3d+n5VHhByYh9cMw+KuGhpcep2HqqyMwci0P4A5D8tFMCxfnI1SenIU+72lpVLhrRwxmrsUhtKlytHf5eRZmv45C9N8LUOrywejCIsQtfPXZXsqQ+2kEhr/AWEIsqOraGoCQrw/69vul6XSWsynIPMhB+tec3EDb5QH/oTgkLw2Djz5DbRFvRjlQQzhBEARBEPUpL8DZfWE4/V/hEXW5wO0Wns7LMpSU4QKeAMR+mIXEfnn2R4IgXjPuHoGe4BQsAy2SSRAEQWgsXxuC/o+nIS9cQpfbDS4xKrRcKkFZGp3sAu/BcZi7Qg2X7aT8y1kIHjitNmTCejcobjv8VVJH+Xp2xWDqpwSEVtnI/NJvKZiaTsLMzRTknmOcocxfLr1HD/j2h2Dw4BAM7/eDm0aAt43XuRyoIZwgCIIgCEuUn+dg/nYKUrfmIf+X2LneC/27g+hwB8G/gaIagnh9KUPq29OQw2An86gP4hcjYp5XgiAIgkBelmD5t3mYu4W+YrYgdgL0+EPQvysIod1earjsGGUo/T6PPnsK5u7lpdH6HNeWfgii3z64z681jhPEGwY1hBMEQRAEQRAEQRAEQRAEQRCvNbRYJkEQBEEQBEEQBEEQBEEQBPFaQw3hBEEQBEEQBEEQBEEQBEEQxGsNNYQTBEEQBEEQBEEQBEEQBEEQrzXUEE4QBEEQBEEQBEEQBEEQBEG81lBDOEEQBEEQBEEQBEEQBEEQBPFaQw3hBEEQBEEQBEEQBEEQBEEQxGsNNYQTBEEQBEEQBEEQBEEQBEEQrzXUEE4QBEEQBEEQBEEQBEEQBEG81lBDeJsoP0nD9N28+IsgiFcB1cNVxMsSZG/OQrYk/iaINx2pTpyF4x/0weZ31sFbb71VkdZ1d0Pv7uNw9mYWSmVxzhtNGUq/piD9RPzZakpZSP3fcdjr3wzdb1eWxVtvrYPud3qh/7OzkPq1hE9CEKsX8n0IYg3DbdE1tPviT4IgCKL1vMUQsU20gNy/+qHv6wUovwRwHZqDlemQ+IUgiE5B9XA1MQtD3UMwLbXk+SH+NAOjG+VfiFdBGUrP5IY81wYPuF3yXqKDlHMw9ekgjPyYkwNdlwf8u/uhf3cI/B7pCIC/cpC+lYaFhSzk/+I73OA7nICZS8Pge+PKrAzT4W4Yui43P4euMJg7LG22hPLDKRg+NALTD+VmB5fHD/2Bfgju94NSHKVHaUjdXoD5h3nJroDbB5FvZmDqqA+oChGrBfJ9CGINc30IuiPTcsf39jgUsqOqDSIIgiBaC40IbzE+zzo5SEJ6NnrlDeKNpnR7BPq93dD70RTkhWy0g07dZy1A9XA14YWe9cr4yR7wUiP4K2H51lkY8PFRx+ug+2890IOpe91b8NY61Bmhs5B6opQR0U7y/xmEzW/3wpEfc+DaFYVktghspQCZqwkIb1mG7K0UpHh61A0DX87A4p8MitkkxPZ3Q+7HI9D79mYY/M+bNtLThf+1QT5f5mHqo82w7r0jMP27CwLHkpApMlgpZODO7DiMHh2GYZFinw5B5LNRGB+/AtOTMQi5czD9aS+s8w7C1GNxPYJ4xZDvQ7SM52kY2b0Zun1t1nGdus9aAP0yl+oue6kRvE2k/4ny9k63nHaPQds9qlck49zf7H1nM/SfStPXBQRRA8D/A7VJAujURKUsAAAAAElFTkSuQmCC;" vertex="1" parent="1">
                    <mxGeometry x="685" y="-94.51000000000002" width="614" height="284.51" as="geometry"/>
                </mxCell>
            </root>
        </mxGraphModel>
    </diagram>
</mxfile>